<?xml version="1.0" encoding="UTF-8" standalone="no"?>
<svg
   xmlns:dc="http://purl.org/dc/elements/1.1/"
   xmlns:cc="http://creativecommons.org/ns#"
   xmlns:rdf="http://www.w3.org/1999/02/22-rdf-syntax-ns#"
   xmlns:svg="http://www.w3.org/2000/svg"
   xmlns="http://www.w3.org/2000/svg"
   xmlns:xlink="http://www.w3.org/1999/xlink"
   id="f61e7f2c-3df8-44b9-b514-d2b672d0e0d5"
   data-name="Layer 1"
   width="1100.99998"
   height="666.0509"
   viewBox="0 0 1100.99998 666.0509"
   version="1.1">
  <metadata
     id="metadata127">
    <rdf:RDF>
      <cc:Work
         rdf:about="">
        <dc:format>image/svg+xml</dc:format>
        <dc:type
           rdf:resource="http://purl.org/dc/dcmitype/StillImage" />
        <dc:title>dev_focus</dc:title>
      </cc:Work>
    </rdf:RDF>
  </metadata>
  <defs
     id="defs125">
    <linearGradient
       gradientUnits="userSpaceOnUse"
       y2="646.78455"
       x2="979.4455"
       y1="738.5899"
       x1="979.4455"
       id="afa9b5ae-644d-481c-a512-b5b81b77e42b">
      <stop
         id="stop648"
         stop-opacity="0.25"
         stop-color="gray"
         offset="0" />
      <stop
         id="stop650"
         stop-opacity="0.12"
         stop-color="gray"
         offset="0.53514" />
      <stop
         id="stop652"
         stop-opacity="0.1"
         stop-color="gray"
         offset="1" />
    </linearGradient>
    <linearGradient
       xlink:href="#afa9b5ae-644d-481c-a512-b5b81b77e42b"
       y2="119"
       x2="600.65161"
       y1="650.10522"
       x1="600.65161"
       id="bf9220ea-365d-417c-960f-9ff5535a2d22" />
    <linearGradient
       xlink:href="#afa9b5ae-644d-481c-a512-b5b81b77e42b"
       y2="377.70425"
       x2="485.72021"
       y1="615.59839"
       x1="485.72021"
       id="b4202d31-0de8-4369-b735-813ee4300deb" />
    <linearGradient
       xlink:href="#afa9b5ae-644d-481c-a512-b5b81b77e42b"
       id="linearGradient767"
       gradientUnits="userSpaceOnUse"
       x1="979.4455"
       y1="738.5899"
       x2="979.4455"
       y2="646.78455" />
    <linearGradient
       gradientUnits="userSpaceOnUse"
       x2="205.5"
       y1="458.72"
       x1="205.5"
       id="d0586609-2d1f-4894-831f-bc1bf1cfe805">
      <stop
         id="stop3161"
         stop-opacity="0.25"
         stop-color="gray"
         offset="0" />
      <stop
         id="stop3163"
         stop-opacity="0.12"
         stop-color="gray"
         offset="0.54" />
      <stop
         id="stop3165"
         stop-opacity="0.1"
         stop-color="gray"
         offset="1" />
    </linearGradient>
    <linearGradient
       xlink:href="#d0586609-2d1f-4894-831f-bc1bf1cfe805"
       y2="40.02"
       x2="347.94"
       y1="120.14"
       x1="347.94"
       id="dc1a1433-8955-4fce-8d84-3a5c46e8d5cb"
       gradientTransform="translate(2670.1925,120.59854)" />
    <linearGradient
       xlink:href="#d0586609-2d1f-4894-831f-bc1bf1cfe805"
       y2="189.02"
       x2="347.94"
       y1="269.14001"
       x1="347.94"
       id="6583b9bd-7f21-4a55-b428-c52c7257def0"
       gradientTransform="translate(2670.1925,120.59854)" />
    <linearGradient
       xlink:href="#d0586609-2d1f-4894-831f-bc1bf1cfe805"
       y2="337.01999"
       x2="347.94"
       y1="417.14001"
       x1="347.94"
       id="d5bb9150-ad00-4040-8c31-39c92932ad3e"
       gradientTransform="translate(2670.1925,120.59854)" />
    <linearGradient
       xlink:href="#d0586609-2d1f-4894-831f-bc1bf1cfe805"
       y2="737.77002"
       x2="660.90997"
       y1="754.77002"
       x1="660.90997"
       id="43ab44a3-beba-4304-ae82-955b08a7fed3"
       gradientTransform="translate(1216.8592,-86.06812)" />
    <linearGradient
       xlink:href="#d0586609-2d1f-4894-831f-bc1bf1cfe805"
       y2="417"
       x2="810"
       y1="732"
       x1="810"
       id="e180fe82-c096-4b7f-a7fc-e0d67eafb4b3"
       gradientTransform="translate(1068.8592,-158.68812)" />
    <linearGradient
       xlink:href="#d0586609-2d1f-4894-831f-bc1bf1cfe805"
       id="linearGradient3400"
       gradientUnits="userSpaceOnUse"
       x1="205.5"
       y1="458.72"
       x2="205.5"
       gradientTransform="matrix(1.4257907,0,0,1.3197303,2495.1923,-26.068117)" />
  </defs>
  <title
     id="title2">dev_focus</title>
  <circle
     cx="633.92942"
     cy="214.02012"
     r="36.39575"
     fill="#2f2e41"
     id="circle4" />
  <path
     transform="translate(-49.50001 -116.97455)"
     d="M693.56939,295.60077a36.40082,36.40082,0,0,1,32.03938,53.66882,36.38708,36.38708,0,1,0-60.45438-39.98247A36.306,36.306,0,0,1,693.56939,295.60077Z"
     fill="#2f2e41"
     id="path6" />
  <circle
     cx="565.91872"
     cy="107.03051"
     r="106.9125"
     fill="#2f2e41"
     id="circle8" />
  <path
     transform="translate(-49.50001 -116.97455)"
     d="M531.5098,157.67094A106.89328,106.89328,0,0,1,679.677,146.461c-.87424-.83106-1.73925-1.66885-2.64768-2.47643A106.91251,106.91251,0,0,0,534.96321,303.79182c.90844.80758,1.84178,1.56849,2.76952,2.33937A106.89337,106.89337,0,0,1,531.5098,157.67094Z"
     fill="#2f2e41"
     id="path10" />
  <circle
     cx="565.01268"
     cy="144.17807"
     r="68.8589"
     fill="#ffb8b8"
     id="circle12" />
  <path
     transform="translate(-49.50001 -116.97455)"
     d="M565.58663,282.89754s9.06039,83.35551-5.43622,92.41589,83.35551,21.74492,83.35551,21.74492-14.49662-90.60382,21.74491-114.16081Z"
     fill="#ffb8b8"
     id="path14" />
  <path
     transform="translate(-49.50001 -116.97455)"
     d="M652.5663,360.81682s26.98248-12.60018-11.87783-8.11216-72.38788-12.72672-72.38788-12.72672-11.77434-11.77849-13.58641.906,5.43623,36.24153-34.42945,39.86568-76.10721-7.2483-90.60382,19.93284-7.2483,144.9661-7.2483,144.9661,27.18114,97.85213,48.92606,112.34874,212.01292-5.43623,212.01292-5.43623L737.73388,554.709V440.54818s-7.2483-39.86568-57.98644-28.99322c0,0-32.61737-7.24831-30.8053-23.557S652.5663,360.81682,652.5663,360.81682Z"
     fill="#d0cde1"
     id="path16" />
  <path
     transform="translate(-49.50001 -116.97455)"
     d="M478.55,727.24542c1.12-4.88,1.87-7.64,1.87-7.64l-.57995-3.97-5.97-40.54-2.51-17.1c21.74-9.06,27.18-50.74,27.18-50.74l.82-.49,3.71-2.22v-.01l13.32-7.99.27-.16,5.38,3.58,10.93,7.29c38.24,28.12,77.18,27.62,101.21,23.19,14.69-2.71,23.82-6.88,23.82-6.88l26.36-8.79.82-.27.81.12,15.46,2.34.28.05,1.28.19-3.58,24.75-5.19,35.97c13.71,7.26,25.9,20.9,36.56,37.71q3.54,5.58,6.86,11.61c2.88,5.2,5.63,10.61,8.25,16.15.32.66.63,1.33.94,2,1.01,2.17,2.01,4.36,2.98005,6.56H473.75c.36-2.21.72-4.32,1.07-6.35a1.54822,1.54822,0,0,0,.04-.21c.13-.68.25-1.34.36-2C476.44,736.79541,477.62,731.28546,478.55,727.24542Z"
     fill="#2f2e41"
     id="path18" />
  <path
     transform="translate(-49.50001 -116.97455)"
     d="M467.73451,378.93759s19.93284,36.24152,12.68454,81.54343S502.164,618.13166,502.164,618.13166l21.74492-5.43623s-14.49661-94.228-10.87246-115.97289,3.62415-106.9125-14.49661-117.78495S467.73451,378.93759,467.73451,378.93759Z"
     fill="#2f2e41"
     id="path20" />
  <path
     transform="translate(-49.50001 -116.97455)"
     d="M678.47286,416.59979l7.61685,200.62583,14.49661,9.06038s20.83888-220.16727,9.96642-220.16727H688.4302A9.97043,9.97043,0,0,0,678.47286,416.59979Z"
     fill="#2f2e41"
     id="path22" />
  <circle
     cx="462.63037"
     cy="487.56653"
     r="9.06038"
     fill="#ff3465"
     id="circle24" />
  <circle
     cx="643.838"
     cy="496.62692"
     r="9.06038"
     fill="#ff3465"
     id="circle26" />
  <polygon
     points="506.12 58.104 506.12 126.963 522.067 126.963 542.362 105.218 539.644 126.963 610.133 126.963 605.784 105.218 614.482 126.963 625.717 126.963 625.717 58.104 506.12 58.104"
     fill="#2f2e41"
     id="polygon28" />
  <ellipse
     cx="495.24775"
     cy="129.68146"
     rx="5.43623"
     ry="9.96642"
     fill="#ffb8b8"
     id="ellipse30" />
  <ellipse
     cx="634.77762"
     cy="129.68146"
     rx="5.43623"
     ry="9.96642"
     fill="#ffb8b8"
     id="ellipse32" />
  <path
     transform="translate(-49.50001 -116.97455)"
     d="M721.4252,612.69543s-82.44948-15.40265-87.8857,11.77849,91.50985,15.40265,91.50985,15.40265Z"
     fill="#ffb8b8"
     id="path34" />
  <path
     transform="translate(-49.50001 -116.97455)"
     d="M719.61312,426.05157S917.12944,583.70221,880.88791,621.75581,706.92859,648.937,706.92859,648.937l9.06038-45.3019,79.73135-9.06038L755.85465,554.709l-36.24153,3.62415Z"
     fill="#d0cde1"
     id="path36" />
  <path
     transform="translate(-49.50001 -116.97455)"
     d="M427.86884,688.80263l25.36906,19.93284s18.12077,56.17437,45.30191,39.86568S473.17074,674.306,473.17074,674.306l-30.80529-10.87246Z"
     fill="#ffb8b8"
     id="path38" />
  <path
     transform="translate(-49.50001 -116.97455)"
     d="M453.2379,397.05835l-25.30065,7.61381s-175.83982,130.104-183.08812,166.34551S279.27858,627.192,279.27858,627.192l157.65064,74.29513,16.30868-43.48983-74.29513-38.05361s5.43623-10.87245-16.30868-12.68453S337.265,581.89013,337.265,581.89013s43.48983-67.04682,67.04682-52.55021,30.8053,25.36907,30.8053,25.36907Z"
     fill="#d0cde1"
     id="path40" />
  <path
     transform="translate(-49.50001 -116.97455)"
     d="M814.1,733.45544v6.07a13.34008,13.34008,0,0,1-.91,4.87,13.68227,13.68227,0,0,1-.97,2,13.4373,13.4373,0,0,1-11.55,6.56H354.12a13.43736,13.43736,0,0,1-11.55-6.56,13.68842,13.68842,0,0,1-.97-2,13.34153,13.34153,0,0,1-.91-4.87v-6.07a13.42641,13.42641,0,0,1,13.43-13.43h25.74v-2.83a.55908.55908,0,0,1,.56-.56h13.43a.55908.55908,0,0,1,.56.56v2.83h8.39v-2.83a.55908.55908,0,0,1,.56-.56h13.43a.55908.55908,0,0,1,.56.56v2.83h8.4v-2.83a.55908.55908,0,0,1,.56-.56h13.43a.55908.55908,0,0,1,.56.56v2.83h8.39v-2.83a.55908.55908,0,0,1,.56-.56h13.43a.55908.55908,0,0,1,.56.56v2.83h8.39v-2.83a.55908.55908,0,0,1,.56-.56h13.43a.55908.55908,0,0,1,.56.56v2.83h8.4v-2.83a.55908.55908,0,0,1,.56-.56h13.43a.55908.55908,0,0,1,.56.56v2.83h8.39v-2.83a.55908.55908,0,0,1,.56-.56h105.2a.55908.55908,0,0,1,.56.56v2.83h8.4v-2.83a.55908.55908,0,0,1,.56-.56h13.43a.56552.56552,0,0,1,.56.56v2.83h8.39v-2.83a.55908.55908,0,0,1,.56-.56h13.43a.55908.55908,0,0,1,.56.56v2.83h8.39v-2.83a.55908.55908,0,0,1,.56-.56h13.43a.55908.55908,0,0,1,.56.56v2.83h8.4v-2.83a.55908.55908,0,0,1,.56-.56h13.43a.557.557,0,0,1,.55.56v2.83h8.4v-2.83a.55908.55908,0,0,1,.56-.56H738a.55908.55908,0,0,1,.56.56v2.83h8.39v-2.83a.55908.55908,0,0,1,.56-.56h13.43a.55908.55908,0,0,1,.56.56v2.83h39.17A13.42636,13.42636,0,0,1,814.1,733.45544Z"
     fill="#3f3d56"
     id="path42" />
  <rect
     x="161.44819"
     y="627.41618"
     width="732.99951"
     height="2"
     fill="#3f3d56"
     id="rect44" />
  <path
     transform="translate(-49.50001 -116.97455)"
     d="M778.14246,477.82126H611.69957v-3.43053H536.22789v3.43053h-167.129a11.25861,11.25861,0,0,0-11.25861,11.25861v227.9115A11.25864,11.25864,0,0,0,369.09889,728.25H778.14246a11.25864,11.25864,0,0,0,11.25861-11.25865V489.07987A11.2586,11.2586,0,0,0,778.14246,477.82126Z"
     id="path46"
     fill="#3f3d56" />
  <rect
     x="26.02015"
     y="663.55077"
     width="189"
     height="2.26159"
     fill="#3f3d56"
     id="rect52" />
  <rect
     x="851.02015"
     y="663.55077"
     width="189"
     height="2.26159"
     fill="#3f3d56"
     id="rect54" />
  <path
     transform="translate(-49.50001 -116.97455)"
     d="M185.63919,707.69176c-19.911,32.5064-13.06067,72.9409-13.06067,72.9409s39.1325-12.26879,59.04353-44.7752,13.06067-72.9409,13.06067-72.9409S205.55022,675.18536,185.63919,707.69176Z"
     fill="#3f3d56"
     id="path56" />
  <path
     transform="translate(-49.50001 -116.97455)"
     d="M171.76594,780.90107l-1.13209-.17932c-.40938-.06491-41.158-6.81651-65.56214-36.01491-24.40427-29.19937-23.817-70.4997-23.809-70.91351l.02429-1.14573,1.13209.17932c.40939.06492,41.158,6.81651,65.56228,36.01588h0c24.40414,29.19841,23.81684,70.49874,23.80885,70.91255Z"
     fill="#ff3465"
     id="path58" />
  <path
     transform="translate(-49.50001 -116.97455)"
     d="M173.37365,781.92912l-1.09375-.34277c-.39551-.124-39.7207-12.75586-59.59766-45.20605-19.87695-32.45118-13.26269-73.22266-13.19433-73.63086l.1914-1.12989,1.09375.34278c.39551.124,39.72071,12.75586,59.59766,45.207h0c19.87695,32.45019,13.2627,73.22168,13.19434,73.62988Zm-72.081-117.67773c-.90528,6.84277-4.51368,42.33594,13.09472,71.084,17.60938,28.74707,50.86719,41.65821,57.373,43.96192.90527-6.84278,4.51367-42.33594-13.09473-71.083h0C141.05627,679.46623,107.79846,666.5551,101.2926,664.25139Z"
     fill="#3f3d56"
     id="path60" />
  <circle
     cx="124.32091"
     cy="536.32762"
     r="22"
     fill="#3f3d56"
     id="circle62" />
  <polygon
     points="273.582,131.051 214,131.051 214,129.051 274.417,129.051 274.711,129.348 401.211,256.848 399.789,258.254 "
     id="polygon64"
     transform="matrix(0.97710757,0,0,1,9.1846938,0)"
     style="fill:#3f3d56" />
  <polygon
     points="882,127.051 882,125.051 821.582,125.051 821.289,125.348 694.789,252.848 696.211,254.254 822.417,127.051 "
     id="polygon66"
     transform="matrix(0.84738381,0,0,1,106.03604,0)"
     style="fill:#3f3d56" />
  <rect
     x="868"
     y="92.573288"
     width="28.955219"
     height="28.955219"
     id="rect84"
     style="fill:#ff3465" />
  <rect
     x="868"
     y="136.00612"
     width="28.955219"
     height="28.955219"
     id="rect86"
     style="fill:#ff3465" />
  <path
     d="M 904.95506,115.52845 H 873.99999 V 84.57336 h 30.95508 z m -28.95508,-2 h 26.95508 V 86.57336 h -26.95507 z"
     id="path92"
     style="fill:#3f3d56" />
  <path
     d="m 904.95506,158.96106 h -30.95507 v -30.95508 h 30.95508 z m -28.95508,-2 h 26.95508 v -26.95508 h -26.95507 z"
     id="path96"
     style="fill:#3f3d56" />
  <circle
     cx="192.99998"
     cy="111.0509"
     r="16"
     id="circle100"
     style="fill:#ff3465" />
  <circle
     cx="192.99998"
     cy="154.0509"
     r="16"
     id="circle102"
     style="fill:#ff3465" />
  <path
     d="m 184.99999,124.0509 a 17,17 0 1 1 17,-17 17.019,17.019 0 0 1 -17,17 z m 0,-32 a 15,15 0 1 0 15,15 15.017,15.017 0 0 0 -15,-15 z"
     id="path106"
     style="fill:#3f3d56" />
  <path
     d="m 184.99999,167.0509 a 17,17 0 1 1 17,-17 17.019,17.019 0 0 1 -17,17 z m 0,-32 a 15,15 0 1 0 15,15 15.017,15.017 0 0 0 -15,-15 z"
     id="path108"
     style="fill:#3f3d56" />
  <path
     transform="translate(-49.50001 -116.97455)"
     d="M1038.5,713.02545h-2v-15a3.00328,3.00328,0,0,1,3-3h5a1.00067,1.00067,0,0,0,1-1v-10a1.00067,1.00067,0,0,0-1-1h-5a3.00328,3.00328,0,0,1-3-3v-5a1.00067,1.00067,0,0,0-1-1h-9a3.00328,3.00328,0,0,1-3-3v-1a1.00067,1.00067,0,0,0-1-1h-36a1.00067,1.00067,0,0,0-1,1v1a3.00328,3.00328,0,0,1-3,3h-9a1.00067,1.00067,0,0,0-1,1v5a3.00328,3.00328,0,0,1-3,3h-5a1.00067,1.00067,0,0,0-1,1v10a1.00067,1.00067,0,0,0,1,1h6a3.00328,3.00328,0,0,1,3,3v15h-2v-15a1.00067,1.00067,0,0,0-1-1h-6a3.00328,3.00328,0,0,1-3-3v-10a3.00328,3.00328,0,0,1,3-3h5a1.00067,1.00067,0,0,0,1-1v-5a3.00328,3.00328,0,0,1,3-3h9a1.00067,1.00067,0,0,0,1-1v-1a3.00328,3.00328,0,0,1,3-3h36a3.00328,3.00328,0,0,1,3,3v1a1.00067,1.00067,0,0,0,1,1h9a3.00328,3.00328,0,0,1,3,3v5a1.00067,1.00067,0,0,0,1,1h5a3.00328,3.00328,0,0,1,3,3v10a3.00328,3.00328,0,0,1-3,3h-5a1.00067,1.00067,0,0,0-1,1Z"
     fill="#3f3d56"
     id="path110" />
  <path
     transform="translate(-49.50001 -116.97455)"
     d="M1035.5,783.02545h-61a3.00328,3.00328,0,0,1-3-3v-43h2v43a1.00067,1.00067,0,0,0,1,1h61a1.00067,1.00067,0,0,0,1-1v-43h2v43A3.00328,3.00328,0,0,1,1035.5,783.02545Z"
     fill="#3f3d56"
     id="path112" />
  <rect
     x="921.99998"
     y="603.0509"
     width="79"
     height="24"
     rx="2"
     fill="#ff3465"
     id="rect114" />
  <path
     transform="translate(-49.50001 -116.97455)"
     d="M1042,738.02545H967a3.00328,3.00328,0,0,1-3-3v-20a3.00328,3.00328,0,0,1,3-3h75a3.00328,3.00328,0,0,1,3,3v20A3.00328,3.00328,0,0,1,1042,738.02545Zm-75-24a1.00067,1.00067,0,0,0-1,1v20a1.00067,1.00067,0,0,0,1,1h75a1.00067,1.00067,0,0,0,1-1v-20a1.00067,1.00067,0,0,0-1-1Z"
     fill="#3f3d56"
     id="path116" />
  <path
     transform="translate(-49.50001 -116.97455)"
     d="M1002.5,660.02545v0a249.6283,249.6283,0,0,1-2.09463-54.11121L1002.5,576.02545h0c-11.54175,22.96553-8.93335,53.1922,0,83.99993Z"
     fill="#d0cde1"
     id="path118" />
  <path
     transform="translate(-49.50001 -116.97455)"
     d="M1011.5,665.02545v0a183.49687,183.49687,0,0,1-1.00779-32.20905L1011.5,615.02545h0c-5.55309,13.67-4.29811,31.662,0,50Z"
     fill="#d0cde1"
     id="path120" />
  <g
     transform="translate(-1568.4926,515.76762)"
     id="g3690" />
  <g
     transform="translate(-1568.4926,515.76762)"
     id="g3898">
    <path
       style="fill:#ff3465;fill-opacity:1;stroke-width:1.47135544"
       d="m 3030.1618,1103.0534 a 31.21541,31.21541 0 1 0 31.2154,31.2154 31.307178,31.307178 0 0 0 -31.2154,-31.2154 z m -6.4082,47.8586 -15.9979,-15.9979 4.4872,-4.4872 11.5257,11.5258 24.327,-24.3271 4.4872,4.4873 z"
       id="path2379" />
    <g
       transform="translate(1199.3333,328)"
       id="g1613">
      <g
         id="g765"
         transform="translate(1799.6131,54.97852)">
        <path
           id="path661"
           transform="translate(-114.2798,-119)"
           d="m 260.11393,656.80937 c -6.98452,26.59789 -31.459,43.21966 -31.459,43.21966 0,0 -13.15033,-26.50193 -6.16581,-53.09982 6.98452,-26.59789 31.459,-43.21966 31.459,-43.21966 0,0 13.15033,26.50193 6.16581,53.09982 z"
           style="fill:#3f3d56" />
        <path
           id="path663"
           transform="translate(-114.2798,-119)"
           d="m 249.52,651.18266 c -19.56251,19.32716 -21.75117,48.83128 -21.75117,48.83128 0,0 29.52845,-1.83141 49.091,-21.15858 19.56255,-19.32717 21.75116,-48.83129 21.75116,-48.83129 0,0 -29.52851,1.83142 -49.09099,21.15859 z"
           style="fill:#ff3465" />
        <path
           id="rect665"
           d="m 83.251012,573.24115 h 76.520968 c 8.41943,0 15.19753,6.7781 15.19753,15.19753 v 15.10112 c 0,8.41943 -6.7781,15.19753 -15.19753,15.19753 H 83.251012 c -8.419432,0 -15.19753,-6.7781 -15.19753,-15.19753 v -15.10112 c 0,-8.41943 6.778098,-15.19753 15.19753,-15.19753 z"
           style="fill:#ff3465" />
        <g
           id="g669"
           style="opacity:0.7">
          <path
             id="path667"
             transform="translate(-114.2798,-119)"
             d="M 1009.7741,663.17837 V 646.78456 H 927.805 V 722.606 a 15.984,15.984 0 0 0 15.984,15.984 h 50.00113 a 15.984,15.984 0 0 0 15.98397,-15.984 v -16.80371 a 21.312,21.312 0 0 0 0,-42.62392 z m 0,34.427 v -26.2301 a 13.11505,13.11505 0 0 1 0,26.2301 z"
             style="fill:url(#linearGradient767)" />
        </g>
        <path
           id="path671"
           transform="translate(-114.2798,-119)"
           d="m 1007.1368,665.74436 a 19.45875,19.45875 0 1 0 19.4588,19.45874 19.45877,19.45877 0 0 0 -19.4588,-19.45874 z m 0,31.43336 a 11.97462,11.97462 0 1 1 11.9746,-11.97462 11.97462,11.97462 0 0 1 -11.9746,11.97462 z"
           style="fill:#ff3465" />
        <path
           id="path673"
           transform="translate(-114.2798,-119)"
           d="m 1007.1368,665.74436 a 19.45875,19.45875 0 1 0 19.4588,19.45874 19.45877,19.45877 0 0 0 -19.4588,-19.45874 z m 0,31.43336 a 11.97462,11.97462 0 1 1 11.9746,-11.97462 11.97462,11.97462 0 0 1 -11.9746,11.97462 z"
           style="opacity:0.1" />
        <path
           id="path675"
           d="M 818.01569,531.77609 H 892.857 v 74.07228 a 9.75,9.75 0 0 1 -9.75,9.75 h -55.34131 a 9.75,9.75 0 0 1 -9.75,-9.75 z"
           style="fill:#ff3465" />
        <path
           id="rect677"
           d="m 0,615.59839 h 971.44043 v 32.93018 H 0 Z"
           style="fill:#e0e0e0" />
        <g
           id="g681"
           style="opacity:0.7">
          <path
             id="path679"
             transform="translate(-114.2798,-119)"
             d="m 753.24926,514.26464 c -10.41165,-37.79179 -69.43785,-65.38862 -113.8507,-71.50773 0.006,-0.27882 0.0211,-0.55536 0.0211,-0.83569 V 409.571 c 0.0473,-0.0173 0.0958,-0.0318 0.143,-0.0493 v -1.22615 a 110.93933,110.93933 0 0 0 67.01046,-70.2316 119.882,119.882 0 0 0 7.14989,-15.41561 c 4.74115,-1.72629 8.322,-9.54462 8.322,-18.93884 a 33.06945,33.06945 0 0 0 -1.3381,-9.49537 121.52779,121.52779 0 0 0 0.88891,-14.41912 120.17944,120.17944 0 0 0 -39.6966,-89.38228 23.44841,23.44841 0 0 0 0.37522,-5.87723 c -1.00473,-15.52708 -17.58929,-26.07586 -33.13284,-26.78142 a 32.8005,32.8005 0 0 0 5.53147,-34.63658 c -9.91113,14.43929 -30.25853,15.97418 -47.77168,16.08774 7.55675,-2.9265 10.95734,-13.39715 6.56225,-20.20525 -18.30375,24.53386 -53.985,29.07689 -75.75576,50.59371 a 63.8633,63.8633 0 0 0 -11.77976,16.06661 120.24089,120.24089 0 0 0 -45.31946,94.1347 121.55587,121.55587 0 0 0 0.87233,14.28918 32.96391,32.96391 0 0 0 -1.38014,9.62531 c 0,9.43741 3.61453,17.27988 8.38807,18.95778 a 119.88387,119.88387 0 0 0 7.18266,15.46665 110.91725,110.91725 0 0 0 66.54128,69.98516 v 33.80212 c 0,0.26025 0.0145,0.51691 0.0196,0.77593 -44.58123,6.01408 -104.079,33.82817 -114.39809,71.92387 -8.91132,32.89854 -18.42365,69.02824 -23.15665,90.24078 40.56827,28.50553 125.69315,45.24341 179.04119,45.24341 50.6869,0 133.53278,-15.10715 172.90663,-41.06339 -4.26491,-23.30786 -14.07735,-61.02406 -23.3763,-94.77722 z"
             style="fill:url(#bf9220ea-365d-417c-960f-9ff5535a2d22)" />
        </g>
        <path
           id="path683"
           transform="translate(-114.2798,-119)"
           d="m 603.61048,640.72159 c 48.89581,0 128.8143,-14.57335 166.79676,-39.61233 -4.11411,-22.48424 -13.57985,-58.86769 -22.55024,-91.42816 -11.42431,-41.46766 -83.52767,-70.216 -126.54025,-70.216 h -41.4486 c -43.1459,0 -115.35328,28.91469 -126.6338,70.55985 -8.5964,31.736 -17.77266,66.589 -22.33837,87.05194 39.1347,27.49829 121.25159,43.6447 172.7145,43.6447 z"
           style="fill:#3f3d56;fill-opacity:1" />
        <path
           id="circle685"
           d="M 603.0423,164.49683 A 116.23581,116.23581 0 0 1 486.80649,280.73264 116.23581,116.23581 0 0 1 370.57068,164.49683 116.23581,116.23581 0 0 1 486.80649,48.261017 116.23581,116.23581 0 0 1 603.0423,164.49683 Z"
           style="fill:#72351c" />
        <path
           id="path687"
           d="M 449.29134,261.31116 H 523.77 v 59.58294 a 37.23927,37.23927 0 0 1 -37.23927,37.23927 h -7e-5 A 37.23927,37.23927 0 0 1 449.29139,320.8941 v -59.58294 z"
           style="opacity:0.1" />
        <path
           id="path689"
           d="M 459.97433,258.55269 H 513.087 a 10.683,10.683 0 0 1 10.683,10.683 v 48.89994 a 37.23927,37.23927 0 0 1 -37.23927,37.23927 h -7e-5 a 37.23927,37.23927 0 0 1 -37.23927,-37.23927 v -48.89995 a 10.683,10.683 0 0 1 10.68294,-10.68299 z"
           style="fill:#fda57d" />
        <path
           id="path691"
           transform="translate(-114.2798,-119)"
           d="m 563.70906,408.43366 a 107.19075,107.19075 0 0 0 74.47862,0.20587 v -9.14914 h -74.47862 z"
           style="opacity:0.1" />
        <path
           id="circle693"
           d="M 593.55918,187.66795 A 106.75269,106.75269 0 0 1 486.80649,294.42065 106.75269,106.75269 0 0 1 380.05379,187.66795 106.75269,106.75269 0 0 1 486.80649,80.91526 106.75269,106.75269 0 0 1 593.55918,187.66795 Z"
           style="fill:#fda57d" />
        <path
           id="path695"
           transform="translate(-114.2798,-119)"
           d="m 525.04613,209.56488 c 0,0 44.98987,91.32263 171.90142,38.27492 L 667.402,201.507 615.02579,182.70528 Z"
           style="opacity:0.1" />
        <path
           id="path697"
           transform="translate(-114.2798,-119)"
           d="m 525.04613,208.2219 c 0,0 44.98982,91.32263 171.90142,38.27492 L 667.402,200.164 615.02578,181.3623 Z"
           style="fill:#72351c" />
        <path
           id="path699"
           transform="translate(-114.2798,-119)"
           d="m 524.64663,202.0522 a 61.66959,61.66959 0 0 1 15.28543,-24.86262 c 21.00146,-20.75652 55.42186,-25.13895 73.07881,-48.80594 4.23984,6.56758 0.95939,16.66822 -6.33032,19.49128 16.89431,-0.10957 36.52273,-1.59016 46.08358,-15.51925 a 31.6415,31.6415 0 0 1 -5.336,33.4127 c 14.99426,0.68059 30.99283,10.85661 31.962,25.835 0.64565,9.97871 -5.6112,19.42651 -13.81131,25.14924 -8.20011,5.72273 -18.12112,8.34985 -27.88617,10.50284 -28.50507,6.28476 -131.64649,32.62665 -113.04602,-25.20325 z"
           style="fill:#72351c" />
        <path
           id="path701"
           transform="translate(-114.2798,-119)"
           d="m 707.83565,307.60241 h -2.83022 l -55.06218,49.01876 c -53.0477,-24.84513 -91.99411,0 -91.99411,0 l -57.74814,-47.00429 -5.82291,0.73165 a 106.75011,106.75011 0 0 0 213.45756,-2.74612 z m -106.91116,67.82048 c -20.76778,0 -37.60344,-4.209 -37.60344,-9.40086 0,-5.19186 16.83566,-9.40086 37.60344,-9.40086 20.76778,0 37.60344,4.20894 37.60344,9.40086 0,5.19192 -16.83566,9.40086 -37.60344,9.40086 z"
           style="fill:#72351c" />
        <path
           id="ellipse703"
           d="m 389.9418,187.56625 a 9.93048,18.619659 0 0 1 -9.93048,18.61966 9.93048,18.619659 0 0 1 -9.93048,-18.61966 9.93048,18.619659 0 0 1 9.93048,-18.61966 9.93048,18.619659 0 0 1 9.93048,18.61966 z"
           style="fill:#fda57d" />
        <path
           id="ellipse705"
           d="m 603.47558,187.56625 a 9.93048,18.619659 0 0 1 -9.93048,18.61966 9.93048,18.619659 0 0 1 -9.93048,-18.61966 9.93048,18.619659 0 0 1 9.93048,-18.61966 9.93048,18.619659 0 0 1 9.93048,18.61966 z"
           style="fill:#fda57d" />
        <g
           id="g709"
           style="opacity:0.7">
          <path
             id="rect707"
             d="m 293.65814,377.70425 h 384.12412 c 8.033,0 14.5,6.467 14.5,14.5 v 208.89414 c 0,8.033 -6.467,14.5 -14.5,14.5 H 293.65814 c -8.033,0 -14.5,-6.467 -14.5,-14.5 V 392.20425 c 0,-8.033 6.467,-14.5 14.5,-14.5 z"
             style="fill:url(#b4202d31-0de8-4369-b735-813ee4300deb)" />
        </g>
        <path
           id="rect711"
           d="m 313.47732,382.09344 h 344.48576 c 14.86661,0 26.83505,11.96844 26.83505,26.83506 v 179.83484 c 0,14.86662 -11.96844,26.83505 -26.83505,26.83505 H 313.47732 c -14.86661,0 -26.83505,-11.96843 -26.83505,-26.83505 V 408.9285 c 0,-14.86662 11.96844,-26.83506 26.83505,-26.83506 z"
           style="fill:#fbebf0;fill-opacity:1" />
        <path
           id="rect715"
           d="M 41.162731,648.52856 H 930.27766 V 662 H 41.162731 Z"
           style="fill:#e0e0e0" />
        <path
           id="rect717"
           d="M 41.162731,648.52856 H 930.27766 v 4.49048 H 41.162731 Z"
           style="opacity:0.1" />
        <path
           id="path719"
           transform="translate(-114.2798,-119)"
           d="m 993.66537,650.77609 v 69.22823 a 14.59407,14.59407 0 0 1 -14.59405,14.59406 h 7.48413 a 14.59408,14.59408 0 0 0 14.59405,-14.59406 v -69.22823 z"
           style="opacity:0.1" />
        <path
           id="path721"
           transform="translate(-114.2798,-119)"
           d="m 947.06443,594.97939 c -1.26234,0.216 -2.68649,0.55668 -3.30507,1.67806 -0.98172,1.77969 0.79727,3.7863 2.42071,5.0092 2.99922,2.25925 6.16039,4.47845 8.19907,7.63175 2.03868,3.1533 2.67912,7.5539 0.45056,10.576 -2.9099,3.94605 -9.85229,4.79489 -10.52416,9.65158 -0.43133,3.11795 2.26418,5.77847 4.99546,7.343 6.74142,3.86165 15.432,4.89187 20.3151,10.93461 2.02,-4.15378 6.53823,-6.55488 11.04189,-7.58024 4.50366,-1.02536 9.183,-0.94882 13.7492,-1.6444 1.47405,-0.22454 3.13458,-0.67474 3.79362,-2.01224 1.27644,-2.59048 -2.36152,-5.69737 -1.1059,-8.298 0.95565,-1.97936 3.76299,-1.82565 5.81309,-2.61832 3.338,-1.29069 4.7146,-5.58675 3.7671,-9.038 -0.9474,-3.45125 -3.6235,-6.14839 -6.4377,-8.3597 -7.58406,-5.95952 -16.70348,-9.46426 -25.92721,-11.98516 -4.2899,-1.17245 -9.32574,-3.01108 -13.78142,-3.18882 -4.30137,-0.17155 -9.20703,1.17236 -13.46434,1.90068 z"
           style="fill:#fbebf0;fill-opacity:1" />
      </g>
      <g
         id="layer1"
         transform="matrix(2.0224598,0,0,2.0224598,2064.0154,216.55916)"
         style="fill:#ff3465;fill-opacity:1">
        <path
           d="m 64.768662,158.81909 q 5.07925,0 8.04633,3.01738 3.01737,2.96708 3.01737,8.95153 v 15.48917 h -7.84517 v -14.28222 q 0,-3.21853 -1.35781,-4.77751 -1.30753,-1.60926 -3.77172,-1.60926 -2.76592,0 -4.37519,1.81042 -1.60926,1.76014 -1.60926,5.2804 v 13.57817 h -7.84517 v -14.28222 q 0,-6.38677 -5.12953,-6.38677 -2.71563,0 -4.3249,1.81042 -1.60926,1.76014 -1.60926,5.2804 v 13.57817 h -7.84517 v -27.05576 h 7.49314 v 3.11795 q 1.50869,-1.70984 3.67114,-2.61505 2.21273,-0.90522 4.82779,-0.90522 2.8665,0 5.17982,1.15666 2.31332,1.10637 3.72143,3.26882 1.65955,-2.11216 4.17403,-3.26882 2.56476,-1.15666 5.58213,-1.15666 z"
           style="font-style:normal;font-variant:normal;font-weight:bold;font-stretch:normal;font-size:50.28952408px;line-height:1.25;font-family:Montserrat;-inkscape-font-specification:Montserrat;letter-spacing:-3.51415086px;word-spacing:0px;fill:#ff3465;fill-opacity:1;stroke:none;stroke-width:0.12572381px;stroke-linecap:butt;stroke-linejoin:miter;stroke-opacity:1"
           id="path2180" />
        <path
           d="m 106.14734,172.84987 q 0,0.15087 -0.15087,2.11216 H 85.528642 q 0.55318,2.51448 2.61505,3.97287 2.06187,1.4584 5.12953,1.4584 2.11216,0 3.72143,-0.60347 1.65955,-0.65377 3.067658,-2.01159 l 4.17403,4.52606 q -3.822,4.37519 -11.164268,4.37519 -4.57635,0 -8.09662,-1.76013 -3.52026,-1.81043 -5.43127,-4.97867 -1.911,-3.16824 -1.911,-7.1914 0,-3.97287 1.86071,-7.14111 1.91101,-3.21853 5.17983,-4.97866 3.3191,-1.81043 7.39256,-1.81043 3.97287,0 7.1914,1.70985 3.218528,1.70984 5.028948,4.92837 1.86071,3.16824 1.86071,7.39256 z m -14.030778,-8.09661 q -2.66534,0 -4.47576,1.50868 -1.81043,1.50869 -2.21274,4.12374 h 13.32672 q -0.40231,-2.56476 -2.21274,-4.07345 -1.81042,-1.55897 -4.42548,-1.55897 z"
           style="font-style:normal;font-variant:normal;font-weight:bold;font-stretch:normal;font-size:50.28952408px;line-height:1.25;font-family:Montserrat;-inkscape-font-specification:Montserrat;letter-spacing:-3.51415086px;word-spacing:0px;fill:#ff3465;fill-opacity:1;stroke:none;stroke-width:0.12572381px;stroke-linecap:butt;stroke-linejoin:miter;stroke-opacity:1"
           id="path2182" />
        <path
           d="m 107.92917,151.0734 7.77223,-2.11105 v 37.31482 h -7.84517 z"
           style="font-style:normal;font-variant:normal;font-weight:bold;font-stretch:normal;font-size:50.28952408px;line-height:1.25;font-family:Montserrat;-inkscape-font-specification:Montserrat;letter-spacing:-3.51415086px;word-spacing:0px;fill:#ff3465;fill-opacity:1;stroke:none;stroke-width:0.12572381px;stroke-linecap:butt;stroke-linejoin:miter;stroke-opacity:1"
           id="path2184" />
        <path
           d="m 135.46029,158.81909 c 2.51448,0 4.79427,0.58671 6.83938,1.76014 2.07863,1.13989 3.70466,2.76592 4.87808,4.87808 1.17343,2.07863 1.76014,4.50929 1.76014,7.29198 0,2.78269 -0.58671,5.23011 -1.76014,7.34227 -1.17342,2.07863 -2.79945,3.70466 -4.87808,4.87809 -2.04511,1.13989 -4.3249,1.70984 -6.83938,1.70984 -3.72142,0 -6.55439,-1.17342 -8.49892,-3.52027 v 3.11795 h -7.49314 V 151.0734 l 7.84477,-2.11105 3.9e-4,13.12556 c 1.97805,-2.17921 4.69369,-3.26882 8.1469,-3.26882 z m -1.35781,21.42334 c 2.01158,0 3.65437,-0.67053 4.92837,-2.01158 1.30753,-1.37458 1.96129,-3.20177 1.96129,-5.48156 0,-2.27979 -0.65376,-4.09022 -1.96129,-5.43127 -1.274,-1.37458 -2.91679,-2.06187 -4.92837,-2.06187 -2.01158,0 -3.67114,0.68729 -4.97867,2.06187 -1.274,1.34105 -1.911,3.15148 -1.911,5.43127 0,2.27979 0.637,4.10698 1.911,5.48156 1.30753,1.34105 2.96709,2.01158 4.97867,2.01158 z"
           style="font-style:normal;font-variant:normal;font-weight:bold;font-stretch:normal;font-size:50.28952408px;line-height:1.25;font-family:Montserrat;-inkscape-font-specification:Montserrat;letter-spacing:-3.51415086px;word-spacing:0px;fill:#ff3465;fill-opacity:1;stroke:none;stroke-width:0.12572381px;stroke-linecap:butt;stroke-linejoin:miter;stroke-opacity:1"
           id="path2186" />
        <path
           d="m 150.62635,159.22141 h 7.84516 v 27.05576 h -7.84516 z"
           style="font-style:normal;font-variant:normal;font-weight:bold;font-stretch:normal;font-size:50.28952408px;line-height:1.25;font-family:Montserrat;-inkscape-font-specification:Montserrat;letter-spacing:-3.51415086px;word-spacing:0px;fill:#ff3465;fill-opacity:1;stroke:none;stroke-width:0.12572381px;stroke-linecap:butt;stroke-linejoin:miter;stroke-opacity:1"
           id="path2188" />
        <path
           d="m 188.74092,172.84987 q 0,0.15087 -0.15087,2.11216 h -20.46784 q 0.55319,2.51448 2.61506,3.97287 2.06187,1.4584 5.12953,1.4584 2.11216,0 3.72142,-0.60347 1.65956,-0.65377 3.06766,-2.01159 l 4.17403,4.52606 q -3.822,4.37519 -11.16427,4.37519 -4.57635,0 -8.09661,-1.76013 -3.52027,-1.81043 -5.43127,-4.97867 -1.911,-3.16824 -1.911,-7.1914 0,-3.97287 1.86071,-7.14111 1.911,-3.21853 5.17982,-4.97866 3.31911,-1.81043 7.39256,-1.81043 3.97287,0 7.1914,1.70985 3.21853,1.70984 5.02895,4.92837 1.86072,3.16824 1.86072,7.39256 z m -14.03078,-8.09661 q -2.66535,0 -4.47577,1.50868 -1.81042,1.50869 -2.21274,4.12374 h 13.32673 q -0.40232,-2.56476 -2.21274,-4.07345 -1.81043,-1.55897 -4.42548,-1.55897 z"
           style="font-style:normal;font-variant:normal;font-weight:bold;font-stretch:normal;font-size:50.28952408px;line-height:1.25;font-family:Montserrat;-inkscape-font-specification:Montserrat;letter-spacing:-3.51415086px;word-spacing:0px;fill:#ff3465;fill-opacity:1;stroke:none;stroke-width:0.12572381px;stroke-linecap:butt;stroke-linejoin:miter;stroke-opacity:1"
           id="path2190" />
        <path
           id="path2192"
           style="font-style:normal;font-variant:normal;font-weight:bold;font-stretch:normal;font-size:50.28952408px;line-height:1.25;font-family:Montserrat;-inkscape-font-specification:Montserrat;letter-spacing:-3.51415086px;word-spacing:0px;fill:#ff3465;fill-opacity:1;stroke:none;stroke-width:0.06928126px;stroke-linecap:butt;stroke-linejoin:miter;stroke-opacity:1"
           d="m 150.62635,148.95106 7.84516,-2.11067 v 8.21592 l -7.84516,2.11075 z" />
      </g>
      <g
         style="fill:#ff3465;fill-opacity:1"
         transform="matrix(2.0224598,0,0,2.0224598,2064.0154,216.55916)"
         id="g2793">
        <path
           id="path2779"
           style="font-style:normal;font-variant:normal;font-weight:bold;font-stretch:normal;font-size:50.28952408px;line-height:1.25;font-family:Montserrat;-inkscape-font-specification:Montserrat;letter-spacing:-3.51415086px;word-spacing:0px;fill:#ff3465;fill-opacity:1;stroke:none;stroke-width:0.12572381px;stroke-linecap:butt;stroke-linejoin:miter;stroke-opacity:1"
           d="m 64.768662,158.81909 q 5.07925,0 8.04633,3.01738 3.01737,2.96708 3.01737,8.95153 v 15.48917 h -7.84517 v -14.28222 q 0,-3.21853 -1.35781,-4.77751 -1.30753,-1.60926 -3.77172,-1.60926 -2.76592,0 -4.37519,1.81042 -1.60926,1.76014 -1.60926,5.2804 v 13.57817 h -7.84517 v -14.28222 q 0,-6.38677 -5.12953,-6.38677 -2.71563,0 -4.3249,1.81042 -1.60926,1.76014 -1.60926,5.2804 v 13.57817 h -7.84517 v -27.05576 h 7.49314 v 3.11795 q 1.50869,-1.70984 3.67114,-2.61505 2.21273,-0.90522 4.82779,-0.90522 2.8665,0 5.17982,1.15666 2.31332,1.10637 3.72143,3.26882 1.65955,-2.11216 4.17403,-3.26882 2.56476,-1.15666 5.58213,-1.15666 z" />
        <path
           id="path2781"
           style="font-style:normal;font-variant:normal;font-weight:bold;font-stretch:normal;font-size:50.28952408px;line-height:1.25;font-family:Montserrat;-inkscape-font-specification:Montserrat;letter-spacing:-3.51415086px;word-spacing:0px;fill:#ff3465;fill-opacity:1;stroke:none;stroke-width:0.12572381px;stroke-linecap:butt;stroke-linejoin:miter;stroke-opacity:1"
           d="m 106.14734,172.84987 q 0,0.15087 -0.15087,2.11216 H 85.528642 q 0.55318,2.51448 2.61505,3.97287 2.06187,1.4584 5.12953,1.4584 2.11216,0 3.72143,-0.60347 1.65955,-0.65377 3.067658,-2.01159 l 4.17403,4.52606 q -3.822,4.37519 -11.164268,4.37519 -4.57635,0 -8.09662,-1.76013 -3.52026,-1.81043 -5.43127,-4.97867 -1.911,-3.16824 -1.911,-7.1914 0,-3.97287 1.86071,-7.14111 1.91101,-3.21853 5.17983,-4.97866 3.3191,-1.81043 7.39256,-1.81043 3.97287,0 7.1914,1.70985 3.218528,1.70984 5.028948,4.92837 1.86071,3.16824 1.86071,7.39256 z m -14.030778,-8.09661 q -2.66534,0 -4.47576,1.50868 -1.81043,1.50869 -2.21274,4.12374 h 13.32672 q -0.40231,-2.56476 -2.21274,-4.07345 -1.81042,-1.55897 -4.42548,-1.55897 z" />
        <path
           id="path2783"
           style="font-style:normal;font-variant:normal;font-weight:bold;font-stretch:normal;font-size:50.28952408px;line-height:1.25;font-family:Montserrat;-inkscape-font-specification:Montserrat;letter-spacing:-3.51415086px;word-spacing:0px;fill:#ff3465;fill-opacity:1;stroke:none;stroke-width:0.12572381px;stroke-linecap:butt;stroke-linejoin:miter;stroke-opacity:1"
           d="m 107.92917,151.0734 7.77223,-2.11105 v 37.31482 h -7.84517 z" />
        <path
           id="path2785"
           style="font-style:normal;font-variant:normal;font-weight:bold;font-stretch:normal;font-size:50.28952408px;line-height:1.25;font-family:Montserrat;-inkscape-font-specification:Montserrat;letter-spacing:-3.51415086px;word-spacing:0px;fill:#ff3465;fill-opacity:1;stroke:none;stroke-width:0.12572381px;stroke-linecap:butt;stroke-linejoin:miter;stroke-opacity:1"
           d="m 135.46029,158.81909 c 2.51448,0 4.79427,0.58671 6.83938,1.76014 2.07863,1.13989 3.70466,2.76592 4.87808,4.87808 1.17343,2.07863 1.76014,4.50929 1.76014,7.29198 0,2.78269 -0.58671,5.23011 -1.76014,7.34227 -1.17342,2.07863 -2.79945,3.70466 -4.87808,4.87809 -2.04511,1.13989 -4.3249,1.70984 -6.83938,1.70984 -3.72142,0 -6.55439,-1.17342 -8.49892,-3.52027 v 3.11795 h -7.49314 V 151.0734 l 7.84477,-2.11105 3.9e-4,13.12556 c 1.97805,-2.17921 4.69369,-3.26882 8.1469,-3.26882 z m -1.35781,21.42334 c 2.01158,0 3.65437,-0.67053 4.92837,-2.01158 1.30753,-1.37458 1.96129,-3.20177 1.96129,-5.48156 0,-2.27979 -0.65376,-4.09022 -1.96129,-5.43127 -1.274,-1.37458 -2.91679,-2.06187 -4.92837,-2.06187 -2.01158,0 -3.67114,0.68729 -4.97867,2.06187 -1.274,1.34105 -1.911,3.15148 -1.911,5.43127 0,2.27979 0.637,4.10698 1.911,5.48156 1.30753,1.34105 2.96709,2.01158 4.97867,2.01158 z" />
        <path
           id="path2787"
           style="font-style:normal;font-variant:normal;font-weight:bold;font-stretch:normal;font-size:50.28952408px;line-height:1.25;font-family:Montserrat;-inkscape-font-specification:Montserrat;letter-spacing:-3.51415086px;word-spacing:0px;fill:#ff3465;fill-opacity:1;stroke:none;stroke-width:0.12572381px;stroke-linecap:butt;stroke-linejoin:miter;stroke-opacity:1"
           d="m 150.62635,159.22141 h 7.84516 v 27.05576 h -7.84516 z" />
        <path
           id="path2789"
           style="font-style:normal;font-variant:normal;font-weight:bold;font-stretch:normal;font-size:50.28952408px;line-height:1.25;font-family:Montserrat;-inkscape-font-specification:Montserrat;letter-spacing:-3.51415086px;word-spacing:0px;fill:#ff3465;fill-opacity:1;stroke:none;stroke-width:0.12572381px;stroke-linecap:butt;stroke-linejoin:miter;stroke-opacity:1"
           d="m 188.74092,172.84987 q 0,0.15087 -0.15087,2.11216 h -20.46784 q 0.55319,2.51448 2.61506,3.97287 2.06187,1.4584 5.12953,1.4584 2.11216,0 3.72142,-0.60347 1.65956,-0.65377 3.06766,-2.01159 l 4.17403,4.52606 q -3.822,4.37519 -11.16427,4.37519 -4.57635,0 -8.09661,-1.76013 -3.52027,-1.81043 -5.43127,-4.97867 -1.911,-3.16824 -1.911,-7.1914 0,-3.97287 1.86071,-7.14111 1.911,-3.21853 5.17982,-4.97866 3.31911,-1.81043 7.39256,-1.81043 3.97287,0 7.1914,1.70985 3.21853,1.70984 5.02895,4.92837 1.86072,3.16824 1.86072,7.39256 z m -14.03078,-8.09661 q -2.66535,0 -4.47577,1.50868 -1.81042,1.50869 -2.21274,4.12374 h 13.32673 q -0.40232,-2.56476 -2.21274,-4.07345 -1.81043,-1.55897 -4.42548,-1.55897 z" />
        <path
           d="m 150.62635,148.95106 7.84516,-2.11067 v 8.21592 l -7.84516,2.11075 z"
           style="font-style:normal;font-variant:normal;font-weight:bold;font-stretch:normal;font-size:50.28952408px;line-height:1.25;font-family:Montserrat;-inkscape-font-specification:Montserrat;letter-spacing:-3.51415086px;word-spacing:0px;fill:#ff3465;fill-opacity:1;stroke:none;stroke-width:0.06928126px;stroke-linecap:butt;stroke-linejoin:miter;stroke-opacity:1"
           id="path2791" />
      </g>
      <g
         id="g2816"
         transform="matrix(2.0224598,0,0,2.0224598,671.96209,-696.68708)"
         style="fill:#ff3465;fill-opacity:1">
        <path
           d="m 64.768662,158.81909 q 5.07925,0 8.04633,3.01738 3.01737,2.96708 3.01737,8.95153 v 15.48917 h -7.84517 v -14.28222 q 0,-3.21853 -1.35781,-4.77751 -1.30753,-1.60926 -3.77172,-1.60926 -2.76592,0 -4.37519,1.81042 -1.60926,1.76014 -1.60926,5.2804 v 13.57817 h -7.84517 v -14.28222 q 0,-6.38677 -5.12953,-6.38677 -2.71563,0 -4.3249,1.81042 -1.60926,1.76014 -1.60926,5.2804 v 13.57817 h -7.84517 v -27.05576 h 7.49314 v 3.11795 q 1.50869,-1.70984 3.67114,-2.61505 2.21273,-0.90522 4.82779,-0.90522 2.8665,0 5.17982,1.15666 2.31332,1.10637 3.72143,3.26882 1.65955,-2.11216 4.17403,-3.26882 2.56476,-1.15666 5.58213,-1.15666 z"
           style="font-style:normal;font-variant:normal;font-weight:bold;font-stretch:normal;font-size:50.28952408px;line-height:1.25;font-family:Montserrat;-inkscape-font-specification:Montserrat;letter-spacing:-3.51415086px;word-spacing:0px;fill:#ff3465;fill-opacity:1;stroke:none;stroke-width:0.12572381px;stroke-linecap:butt;stroke-linejoin:miter;stroke-opacity:1"
           id="path2802" />
        <path
           d="m 106.14734,172.84987 q 0,0.15087 -0.15087,2.11216 H 85.528642 q 0.55318,2.51448 2.61505,3.97287 2.06187,1.4584 5.12953,1.4584 2.11216,0 3.72143,-0.60347 1.65955,-0.65377 3.067658,-2.01159 l 4.17403,4.52606 q -3.822,4.37519 -11.164268,4.37519 -4.57635,0 -8.09662,-1.76013 -3.52026,-1.81043 -5.43127,-4.97867 -1.911,-3.16824 -1.911,-7.1914 0,-3.97287 1.86071,-7.14111 1.91101,-3.21853 5.17983,-4.97866 3.3191,-1.81043 7.39256,-1.81043 3.97287,0 7.1914,1.70985 3.218528,1.70984 5.028948,4.92837 1.86071,3.16824 1.86071,7.39256 z m -14.030778,-8.09661 q -2.66534,0 -4.47576,1.50868 -1.81043,1.50869 -2.21274,4.12374 h 13.32672 q -0.40231,-2.56476 -2.21274,-4.07345 -1.81042,-1.55897 -4.42548,-1.55897 z"
           style="font-style:normal;font-variant:normal;font-weight:bold;font-stretch:normal;font-size:50.28952408px;line-height:1.25;font-family:Montserrat;-inkscape-font-specification:Montserrat;letter-spacing:-3.51415086px;word-spacing:0px;fill:#ff3465;fill-opacity:1;stroke:none;stroke-width:0.12572381px;stroke-linecap:butt;stroke-linejoin:miter;stroke-opacity:1"
           id="path2804" />
        <path
           d="m 107.92917,151.0734 7.77223,-2.11105 v 37.31482 h -7.84517 z"
           style="font-style:normal;font-variant:normal;font-weight:bold;font-stretch:normal;font-size:50.28952408px;line-height:1.25;font-family:Montserrat;-inkscape-font-specification:Montserrat;letter-spacing:-3.51415086px;word-spacing:0px;fill:#ff3465;fill-opacity:1;stroke:none;stroke-width:0.12572381px;stroke-linecap:butt;stroke-linejoin:miter;stroke-opacity:1"
           id="path2806" />
        <path
           d="m 135.46029,158.81909 c 2.51448,0 4.79427,0.58671 6.83938,1.76014 2.07863,1.13989 3.70466,2.76592 4.87808,4.87808 1.17343,2.07863 1.76014,4.50929 1.76014,7.29198 0,2.78269 -0.58671,5.23011 -1.76014,7.34227 -1.17342,2.07863 -2.79945,3.70466 -4.87808,4.87809 -2.04511,1.13989 -4.3249,1.70984 -6.83938,1.70984 -3.72142,0 -6.55439,-1.17342 -8.49892,-3.52027 v 3.11795 h -7.49314 V 151.0734 l 7.84477,-2.11105 3.9e-4,13.12556 c 1.97805,-2.17921 4.69369,-3.26882 8.1469,-3.26882 z m -1.35781,21.42334 c 2.01158,0 3.65437,-0.67053 4.92837,-2.01158 1.30753,-1.37458 1.96129,-3.20177 1.96129,-5.48156 0,-2.27979 -0.65376,-4.09022 -1.96129,-5.43127 -1.274,-1.37458 -2.91679,-2.06187 -4.92837,-2.06187 -2.01158,0 -3.67114,0.68729 -4.97867,2.06187 -1.274,1.34105 -1.911,3.15148 -1.911,5.43127 0,2.27979 0.637,4.10698 1.911,5.48156 1.30753,1.34105 2.96709,2.01158 4.97867,2.01158 z"
           style="font-style:normal;font-variant:normal;font-weight:bold;font-stretch:normal;font-size:50.28952408px;line-height:1.25;font-family:Montserrat;-inkscape-font-specification:Montserrat;letter-spacing:-3.51415086px;word-spacing:0px;fill:#ff3465;fill-opacity:1;stroke:none;stroke-width:0.12572381px;stroke-linecap:butt;stroke-linejoin:miter;stroke-opacity:1"
           id="path2808" />
        <path
           d="m 150.62635,159.22141 h 7.84516 v 27.05576 h -7.84516 z"
           style="font-style:normal;font-variant:normal;font-weight:bold;font-stretch:normal;font-size:50.28952408px;line-height:1.25;font-family:Montserrat;-inkscape-font-specification:Montserrat;letter-spacing:-3.51415086px;word-spacing:0px;fill:#ff3465;fill-opacity:1;stroke:none;stroke-width:0.12572381px;stroke-linecap:butt;stroke-linejoin:miter;stroke-opacity:1"
           id="path2810" />
        <path
           d="m 188.74092,172.84987 q 0,0.15087 -0.15087,2.11216 h -20.46784 q 0.55319,2.51448 2.61506,3.97287 2.06187,1.4584 5.12953,1.4584 2.11216,0 3.72142,-0.60347 1.65956,-0.65377 3.06766,-2.01159 l 4.17403,4.52606 q -3.822,4.37519 -11.16427,4.37519 -4.57635,0 -8.09661,-1.76013 -3.52027,-1.81043 -5.43127,-4.97867 -1.911,-3.16824 -1.911,-7.1914 0,-3.97287 1.86071,-7.14111 1.911,-3.21853 5.17982,-4.97866 3.31911,-1.81043 7.39256,-1.81043 3.97287,0 7.1914,1.70985 3.21853,1.70984 5.02895,4.92837 1.86072,3.16824 1.86072,7.39256 z m -14.03078,-8.09661 q -2.66535,0 -4.47577,1.50868 -1.81042,1.50869 -2.21274,4.12374 h 13.32673 q -0.40232,-2.56476 -2.21274,-4.07345 -1.81043,-1.55897 -4.42548,-1.55897 z"
           style="font-style:normal;font-variant:normal;font-weight:bold;font-stretch:normal;font-size:50.28952408px;line-height:1.25;font-family:Montserrat;-inkscape-font-specification:Montserrat;letter-spacing:-3.51415086px;word-spacing:0px;fill:#ff3465;fill-opacity:1;stroke:none;stroke-width:0.12572381px;stroke-linecap:butt;stroke-linejoin:miter;stroke-opacity:1"
           id="path2812" />
        <path
           id="path2814"
           style="font-style:normal;font-variant:normal;font-weight:bold;font-stretch:normal;font-size:50.28952408px;line-height:1.25;font-family:Montserrat;-inkscape-font-specification:Montserrat;letter-spacing:-3.51415086px;word-spacing:0px;fill:#ff3465;fill-opacity:1;stroke:none;stroke-width:0.06928126px;stroke-linecap:butt;stroke-linejoin:miter;stroke-opacity:1"
           d="m 150.62635,148.95106 7.84516,-2.11067 v 8.21592 l -7.84516,2.11075 z" />
      </g>
    </g>
    <g
       aria-label="Löner"
       transform="scale(1.0349427,0.96623706)"
       style="font-style:normal;font-variant:normal;font-weight:600;font-stretch:normal;font-size:41.39770889px;line-height:1.25;font-family:Montserrat;-inkscape-font-specification:'Montserrat Semi-Bold';letter-spacing:0px;word-spacing:0px;fill:#3f3d56;fill-opacity:1;stroke:none;stroke-width:1.03494275px;stroke-linecap:butt;stroke-linejoin:miter;stroke-opacity:1"
       id="text3468">
      <path
         d="m 2994.3314,1145.7942 h 10.7634 v 48.8493 h 30.3031 v 9.1075 h -41.0665 z"
         style="font-style:normal;font-variant:normal;font-weight:600;font-stretch:normal;font-size:82.79541779px;font-family:Montserrat;-inkscape-font-specification:'Montserrat Semi-Bold';fill:#3f3d56;fill-opacity:1;stroke-width:1.03494275px"
         id="path3743" />
      <path
         d="m 3062.3685,1204.3305 q -6.7064,0 -12.0881,-2.8978 -5.3817,-2.8978 -8.4452,-8.0312 -2.9806,-5.2161 -2.9806,-11.7569 0,-6.5408 2.9806,-11.6742 3.0635,-5.1333 8.4452,-8.0311 5.3817,-2.8978 12.0881,-2.8978 6.7892,0 12.1709,2.8978 5.3817,2.8978 8.3624,8.0311 3.0634,5.1334 3.0634,11.6742 0,6.5408 -3.0634,11.7569 -2.9807,5.1334 -8.3624,8.0312 -5.3817,2.8978 -12.1709,2.8978 z m 0,-8.8591 q 5.7129,0 9.4387,-3.8086 3.7258,-3.8085 3.7258,-10.0182 0,-6.2097 -3.7258,-10.0182 -3.7258,-3.8086 -9.4387,-3.8086 -5.7129,0 -9.4387,3.8086 -3.643,3.8085 -3.643,10.0182 0,6.2097 3.643,10.0182 3.7258,3.8086 9.4387,3.8086 z m -8.114,-42.888 q -2.1526,0 -3.5602,-1.4075 -1.4075,-1.4075 -1.4075,-3.5602 0,-2.2355 1.4075,-3.643 1.4076,-1.4075 3.5602,-1.4075 2.1527,0 3.5602,1.4075 1.4076,1.4075 1.4076,3.643 0,2.1527 -1.4076,3.5602 -1.4075,1.4075 -3.5602,1.4075 z m 16.0623,0 q -2.1526,0 -3.5602,-1.4075 -1.4075,-1.4075 -1.4075,-3.5602 0,-2.2355 1.4075,-3.643 1.4076,-1.4075 3.5602,-1.4075 2.1527,0 3.5603,1.4075 1.4075,1.4075 1.4075,3.643 0,2.1527 -1.4075,3.5602 -1.4076,1.4075 -3.5603,1.4075 z"
         style="font-style:normal;font-variant:normal;font-weight:600;font-stretch:normal;font-size:82.79541779px;font-family:Montserrat;-inkscape-font-specification:'Montserrat Semi-Bold';fill:#3f3d56;fill-opacity:1;stroke-width:1.03494275px"
         id="path3745" />
      <path
         d="m 3120.9488,1159.0415 q 8.3624,0 13.4129,4.8849 5.0505,4.8849 5.0505,14.4892 v 25.3354 h -10.3494 v -24.0107 q 0,-5.7957 -2.7323,-8.6935 -2.7322,-2.9806 -7.7827,-2.9806 -5.7129,0 -9.0247,3.4774 -3.3118,3.3946 -3.3118,9.8526 v 22.3548 h -10.3495 v -44.2128 h 9.8527 v 5.7129 q 2.5666,-3.0634 6.458,-4.6365 3.8914,-1.5731 8.7763,-1.5731 z"
         style="font-style:normal;font-variant:normal;font-weight:600;font-stretch:normal;font-size:82.79541779px;font-family:Montserrat;-inkscape-font-specification:'Montserrat Semi-Bold';fill:#3f3d56;fill-opacity:1;stroke-width:1.03494275px"
         id="path3747" />
      <path
         d="m 3194.6704,1181.893 q 0,1.0763 -0.1656,3.0634 h -34.6913 q 0.9108,4.8849 4.7194,7.7828 3.8913,2.815 9.6042,2.815 7.286,0 12.0054,-4.8021 l 5.5473,6.3752 q -2.9807,3.5602 -7.5344,5.3817 -4.5538,1.8215 -10.2667,1.8215 -7.286,0 -12.8332,-2.8978 -5.5473,-2.8978 -8.6108,-8.0312 -2.9806,-5.2161 -2.9806,-11.7569 0,-6.458 2.8978,-11.5914 2.9807,-5.2161 8.1968,-8.1139 5.2161,-2.8978 11.7569,-2.8978 6.4581,0 11.5086,2.8978 5.1333,2.815 7.9484,8.0311 2.8978,5.1334 2.8978,11.9226 z m -22.3548,-14.572 q -4.9677,0 -8.4451,2.9806 -3.3946,2.8979 -4.1398,7.7828 h 25.087 q -0.6623,-4.8021 -4.0569,-7.7828 -3.3946,-2.9806 -8.4452,-2.9806 z"
         style="font-style:normal;font-variant:normal;font-weight:600;font-stretch:normal;font-size:82.79541779px;font-family:Montserrat;-inkscape-font-specification:'Montserrat Semi-Bold';fill:#3f3d56;fill-opacity:1;stroke-width:1.03494275px"
         id="path3749" />
      <path
         d="m 3214.3835,1165.9963 q 4.4709,-6.9548 15.7311,-6.9548 v 9.8526 q -1.3247,-0.2484 -2.4011,-0.2484 -6.044,0 -9.4387,3.5602 -3.3946,3.4774 -3.3946,10.1011 v 21.444 h -10.3494 v -44.2128 h 9.8527 z"
         style="font-style:normal;font-variant:normal;font-weight:600;font-stretch:normal;font-size:82.79541779px;font-family:Montserrat;-inkscape-font-specification:'Montserrat Semi-Bold';fill:#3f3d56;fill-opacity:1;stroke-width:1.03494275px"
         id="path3751" />
    </g>
    <g
       aria-label="Bokföring"
       transform="scale(1.0349427,0.96623706)"
       style="font-style:normal;font-variant:normal;font-weight:600;font-stretch:normal;font-size:41.39770889px;line-height:1.25;font-family:Montserrat;-inkscape-font-specification:'Montserrat Semi-Bold';letter-spacing:0px;word-spacing:0px;fill:#3f3d56;fill-opacity:1;stroke:none;stroke-width:1.03494275px;stroke-linecap:butt;stroke-linejoin:miter;stroke-opacity:1"
       id="text3472">
      <path
         d="m 3406.9799,1166.8243 q 4.8021,1.5731 7.6172,5.2989 2.815,3.643 2.815,9.1075 0,7.5343 -5.7956,11.6741 -5.7957,4.057 -16.8903,4.057 h -28.8128 v -57.9568 h 27.1569 q 10.2666,0 15.8139,4.057 5.5473,3.9742 5.5473,11.0118 0,4.3053 -1.9871,7.6171 -1.9871,3.3119 -5.4645,5.1334 z m -30.3031,-19.3742 v 15.9795 h 15.2343 q 5.6301,0 8.6108,-1.987 3.0634,-2.0699 3.0634,-5.9613 0,-3.9742 -3.0634,-5.9613 -2.9807,-2.0699 -8.6108,-2.0699 z m 17.387,41.0666 q 12.5021,0 12.5021,-8.3624 0,-8.3623 -12.5021,-8.3623 h -17.387 v 16.7247 z"
         style="font-style:normal;font-variant:normal;font-weight:600;font-stretch:normal;font-size:82.79541779px;font-family:Montserrat;-inkscape-font-specification:'Montserrat Semi-Bold';fill:#3f3d56;fill-opacity:1;stroke-width:1.03494275px"
         id="path3719" />
      <path
         d="m 3447.8576,1197.5414 q -6.7065,0 -12.0882,-2.8979 -5.3817,-2.8978 -8.4451,-8.0311 -2.9806,-5.2161 -2.9806,-11.757 0,-6.5408 2.9806,-11.6741 3.0634,-5.1334 8.4451,-8.0312 5.3817,-2.8978 12.0882,-2.8978 6.7892,0 12.1709,2.8978 5.3817,2.8978 8.3623,8.0312 3.0635,5.1333 3.0635,11.6741 0,6.5409 -3.0635,11.757 -2.9806,5.1333 -8.3623,8.0311 -5.3817,2.8979 -12.1709,2.8979 z m 0,-8.8591 q 5.7128,0 9.4386,-3.8086 3.7258,-3.8086 3.7258,-10.0183 0,-6.2096 -3.7258,-10.0182 -3.7258,-3.8086 -9.4386,-3.8086 -5.7129,0 -9.4387,3.8086 -3.643,3.8086 -3.643,10.0182 0,6.2097 3.643,10.0183 3.7258,3.8086 9.4387,3.8086 z"
         style="font-style:normal;font-variant:normal;font-weight:600;font-stretch:normal;font-size:82.79541779px;font-family:Montserrat;-inkscape-font-specification:'Montserrat Semi-Bold';fill:#3f3d56;fill-opacity:1;stroke-width:1.03494275px"
         id="path3721" />
      <path
         d="m 3499.4003,1178.0016 -7.7,7.286 v 11.6742 h -10.3494 v -61.4342 h 10.3494 v 37.0923 l 21.444,-19.8709 h 12.4194 l -18.4634,18.5462 20.2021,25.6666 h -12.5849 z"
         style="font-style:normal;font-variant:normal;font-weight:600;font-stretch:normal;font-size:82.79541779px;font-family:Montserrat;-inkscape-font-specification:'Montserrat Semi-Bold';fill:#3f3d56;fill-opacity:1;stroke-width:1.03494275px"
         id="path3723" />
      <path
         d="m 3552.0349,1143.3104 q -6.5408,0 -6.5408,7.1204 v 2.6494 h 12.1709 v 8.2796 h -11.8398 v 35.602 h -10.3494 v -35.602 h -7.286 v -8.2796 h 7.286 v -2.815 q 0,-7.1204 4.1398,-11.1774 4.1398,-4.1398 11.6741,-4.1398 5.9613,0 9.3559,2.4011 l -2.8978,7.7828 q -2.6495,-1.8215 -5.7129,-1.8215 z"
         style="font-style:normal;font-variant:normal;font-weight:600;font-stretch:normal;font-size:82.79541779px;font-family:Montserrat;-inkscape-font-specification:'Montserrat Semi-Bold';fill:#3f3d56;fill-opacity:1;stroke-width:1.03494275px"
         id="path3725" />
      <path
         d="m 3583.8555,1197.5414 q -6.7064,0 -12.0881,-2.8979 -5.3817,-2.8978 -8.4452,-8.0311 -2.9806,-5.2161 -2.9806,-11.757 0,-6.5408 2.9806,-11.6741 3.0635,-5.1334 8.4452,-8.0312 5.3817,-2.8978 12.0881,-2.8978 6.7892,0 12.1709,2.8978 5.3817,2.8978 8.3624,8.0312 3.0634,5.1333 3.0634,11.6741 0,6.5409 -3.0634,11.757 -2.9807,5.1333 -8.3624,8.0311 -5.3817,2.8979 -12.1709,2.8979 z m 0,-8.8591 q 5.7129,0 9.4387,-3.8086 3.7258,-3.8086 3.7258,-10.0183 0,-6.2096 -3.7258,-10.0182 -3.7258,-3.8086 -9.4387,-3.8086 -5.7129,0 -9.4387,3.8086 -3.643,3.8086 -3.643,10.0182 0,6.2097 3.643,10.0183 3.7258,3.8086 9.4387,3.8086 z m -8.114,-42.8881 q -2.1526,0 -3.5602,-1.4075 -1.4075,-1.4075 -1.4075,-3.5602 0,-2.2355 1.4075,-3.643 1.4076,-1.4075 3.5602,-1.4075 2.1527,0 3.5603,1.4075 1.4075,1.4075 1.4075,3.643 0,2.1527 -1.4075,3.5602 -1.4076,1.4075 -3.5603,1.4075 z m 16.0624,0 q -2.1527,0 -3.5602,-1.4075 -1.4076,-1.4075 -1.4076,-3.5602 0,-2.2355 1.4076,-3.643 1.4075,-1.4075 3.5602,-1.4075 2.1526,0 3.5602,1.4075 1.4075,1.4075 1.4075,3.643 0,2.1527 -1.4075,3.5602 -1.4076,1.4075 -3.5602,1.4075 z"
         style="font-style:normal;font-variant:normal;font-weight:600;font-stretch:normal;font-size:82.79541779px;font-family:Montserrat;-inkscape-font-specification:'Montserrat Semi-Bold';fill:#3f3d56;fill-opacity:1;stroke-width:1.03494275px"
         id="path3727" />
      <path
         d="m 3627.2015,1159.2071 q 4.4709,-6.9548 15.7311,-6.9548 v 9.8526 q -1.3247,-0.2484 -2.401,-0.2484 -6.0441,0 -9.4387,3.5602 -3.3946,3.4774 -3.3946,10.1011 v 21.444 h -10.3495 v -44.2128 h 9.8527 z"
         style="font-style:normal;font-variant:normal;font-weight:600;font-stretch:normal;font-size:82.79541779px;font-family:Montserrat;-inkscape-font-specification:'Montserrat Semi-Bold';fill:#3f3d56;fill-opacity:1;stroke-width:1.03494275px"
         id="path3729" />
      <path
         d="m 3651.6313,1152.749 h 10.3495 v 44.2128 h -10.3495 z m 5.2161,-7.286 q -2.815,0 -4.7193,-1.7387 -1.9043,-1.8215 -1.9043,-4.4709 0,-2.6495 1.9043,-4.3882 1.9043,-1.8215 4.7193,-1.8215 2.8151,0 4.7194,1.7387 1.9043,1.6559 1.9043,4.2226 0,2.7322 -1.9043,4.6365 -1.8215,1.8215 -4.7194,1.8215 z"
         style="font-style:normal;font-variant:normal;font-weight:600;font-stretch:normal;font-size:82.79541779px;font-family:Montserrat;-inkscape-font-specification:'Montserrat Semi-Bold';fill:#3f3d56;fill-opacity:1;stroke-width:1.03494275px"
         id="path3731" />
      <path
         d="m 3700.6514,1152.2523 q 8.3623,0 13.4128,4.8849 5.0506,4.8849 5.0506,14.4892 v 25.3354 h -10.3495 v -24.0107 q 0,-5.7957 -2.7322,-8.6935 -2.7323,-2.9806 -7.7828,-2.9806 -5.7129,0 -9.0247,3.4774 -3.3118,3.3946 -3.3118,9.8526 v 22.3548 h -10.3494 v -44.2128 h 9.8526 v 5.7129 q 2.5667,-3.0634 6.4581,-4.6365 3.8914,-1.5731 8.7763,-1.5731 z"
         style="font-style:normal;font-variant:normal;font-weight:600;font-stretch:normal;font-size:82.79541779px;font-family:Montserrat;-inkscape-font-specification:'Montserrat Semi-Bold';fill:#3f3d56;fill-opacity:1;stroke-width:1.03494275px"
         id="path3733" />
      <path
         d="m 3776.6912,1152.749 v 37.5064 q 0,23.3483 -23.8451,23.3483 -6.3752,0 -12.0881,-1.6559 -5.7129,-1.5732 -9.4387,-4.6366 l 4.6366,-7.7828 q 2.8978,2.4011 7.286,3.8086 4.4709,1.4904 9.0247,1.4904 7.286,0 10.6806,-3.3119 3.3946,-3.3118 3.3946,-10.101 v -2.3183 q -2.6495,2.8979 -6.4581,4.3882 -3.8085,1.4903 -8.3623,1.4903 -6.2924,0 -11.4258,-2.6495 -5.0505,-2.7322 -8.0311,-7.6171 -2.8979,-4.885 -2.8979,-11.1774 0,-6.2925 2.8979,-11.0946 2.9806,-4.8849 8.0311,-7.5344 5.1334,-2.6494 11.4258,-2.6494 4.8021,0 8.6935,1.5731 3.9742,1.5731 6.6237,4.8021 v -5.8785 z m -23.5967,33.4494 q 5.8785,0 9.6043,-3.4774 3.8086,-3.5602 3.8086,-9.1903 0,-5.5473 -3.8086,-9.0247 -3.7258,-3.4774 -9.6043,-3.4774 -5.9613,0 -9.7698,3.4774 -3.7258,3.4774 -3.7258,9.0247 0,5.6301 3.7258,9.1903 3.8085,3.4774 9.7698,3.4774 z"
         style="font-style:normal;font-variant:normal;font-weight:600;font-stretch:normal;font-size:82.79541779px;font-family:Montserrat;-inkscape-font-specification:'Montserrat Semi-Bold';fill:#3f3d56;fill-opacity:1;stroke-width:1.03494275px"
         id="path3735" />
    </g>
    <g
       aria-label="HR"
       transform="scale(1.0349427,0.96623706)"
       style="font-style:normal;font-variant:normal;font-weight:600;font-stretch:normal;font-size:41.39770889px;line-height:1.25;font-family:Montserrat;-inkscape-font-specification:'Montserrat Semi-Bold';letter-spacing:0px;word-spacing:0px;fill:#3f3d56;fill-opacity:1;stroke:none;stroke-width:1.03494275px;stroke-linecap:butt;stroke-linejoin:miter;stroke-opacity:1"
       id="text3476">
      <path
         d="m 3045.8301,1285.677 v 57.9568 h -10.7634 v -24.8386 h -29.9719 v 24.8386 h -10.7634 v -57.9568 h 10.7634 v 23.9279 h 29.9719 v -23.9279 z"
         style="font-style:normal;font-variant:normal;font-weight:600;font-stretch:normal;font-size:82.79541779px;font-family:Montserrat;-inkscape-font-specification:'Montserrat Semi-Bold';fill:#3f3d56;fill-opacity:1;stroke-width:1.03494275px"
         id="path3738" />
      <path
         d="m 3099.3612,1343.6338 -11.8397,-16.9731 q -0.7452,0.083 -2.2355,0.083 h -13.0817 v 16.8903 h -10.7634 v -57.9568 h 23.8451 q 7.5344,0 13.0817,2.4839 5.6301,2.4838 8.6107,7.1204 2.9806,4.6365 2.9806,11.0118 0,6.5408 -3.229,11.2601 -3.1462,4.7194 -9.1075,7.0376 l 13.3301,19.043 z m -0.2484,-37.3407 q 0,-5.5473 -3.643,-8.528 -3.643,-2.9806 -10.6806,-2.9806 h -12.5849 v 23.0999 h 12.5849 q 7.0376,0 10.6806,-2.9806 3.643,-3.0635 3.643,-8.6107 z"
         style="font-style:normal;font-variant:normal;font-weight:600;font-stretch:normal;font-size:82.79541779px;font-family:Montserrat;-inkscape-font-specification:'Montserrat Semi-Bold';fill:#3f3d56;fill-opacity:1;stroke-width:1.03494275px"
         id="path3740" />
    </g>
    <g
       aria-label="Rådgivning"
       transform="scale(1.0349427,0.96623706)"
       style="font-style:normal;font-variant:normal;font-weight:600;font-stretch:normal;font-size:41.39770889px;line-height:1.25;font-family:Montserrat;-inkscape-font-specification:'Montserrat Semi-Bold';letter-spacing:0px;word-spacing:0px;fill:#3f3d56;fill-opacity:1;stroke:none;stroke-width:1.03494275px;stroke-linecap:butt;stroke-linejoin:miter;stroke-opacity:1"
       id="text3480">
      <path
         d="m 3403.8337,1339.9908 -11.8398,-16.973 q -0.7451,0.083 -2.2354,0.083 h -13.0817 v 16.8902 h -10.7634 v -57.9567 h 23.8451 q 7.5343,0 13.0816,2.4838 5.6301,2.4839 8.6108,7.1204 2.9806,4.6366 2.9806,11.0118 0,6.5408 -3.229,11.2602 -3.1462,4.7193 -9.1075,7.0376 l 13.33,19.0429 z m -0.2484,-37.3407 q 0,-5.5473 -3.643,-8.5279 -3.643,-2.9807 -10.6806,-2.9807 h -12.5849 v 23.1 h 12.5849 q 7.0376,0 10.6806,-2.9807 3.643,-3.0634 3.643,-8.6107 z"
         style="font-style:normal;font-variant:normal;font-weight:600;font-stretch:normal;font-size:82.79541779px;font-family:Montserrat;-inkscape-font-specification:'Montserrat Semi-Bold';fill:#3f3d56;fill-opacity:1;stroke-width:1.03494275px"
         id="path3698" />
      <path
         d="m 3441.8044,1295.2813 q 9.7699,0 14.9032,4.7194 5.2161,4.6365 5.2161,14.0752 v 25.9149 h -9.7698 v -5.3817 q -1.9043,2.8979 -5.4645,4.471 -3.4774,1.4903 -8.4452,1.4903 -4.9677,0 -8.6935,-1.6559 -3.7258,-1.7387 -5.7957,-4.7193 -1.9871,-3.0635 -1.9871,-6.8721 0,-5.9612 4.3882,-9.5214 4.471,-3.643 13.9924,-3.643 h 11.4258 v -0.6624 q 0,-4.6365 -2.815,-7.1204 -2.7323,-2.4839 -8.1968,-2.4839 -3.7258,0 -7.3688,1.1592 -3.5602,1.1591 -6.044,3.229 l -4.057,-7.5344 q 3.4774,-2.6494 8.3623,-4.057 4.8849,-1.4075 10.3494,-1.4075 z m -1.4075,37.7547 q 3.8914,0 6.872,-1.7387 3.0635,-1.8215 4.3054,-5.1333 v -5.1333 h -10.6806 q -8.9419,0 -8.9419,5.8785 0,2.815 2.2355,4.4709 2.2354,1.6559 6.2096,1.6559 z m 2.2355,-42.1428 q -4.057,0 -6.872,-2.7323 -2.7323,-2.7322 -2.7323,-6.7064 0,-3.9742 2.7323,-6.7892 2.815,-2.8151 6.872,-2.8151 4.1398,0 6.872,2.8151 2.8151,2.815 2.8151,6.7892 0,3.9742 -2.8151,6.7064 -2.7322,2.7323 -6.872,2.7323 z m 0,-4.2226 q 2.3183,0 3.8086,-1.4903 1.4903,-1.4903 1.4903,-3.7258 0,-2.3183 -1.5731,-3.8086 -1.4903,-1.5731 -3.7258,-1.5731 -2.2355,0 -3.7258,1.5731 -1.4903,1.4903 -1.4903,3.8086 0,2.2355 1.4903,3.7258 1.4903,1.4903 3.7258,1.4903 z"
         style="font-style:normal;font-variant:normal;font-weight:600;font-stretch:normal;font-size:82.79541779px;font-family:Montserrat;-inkscape-font-specification:'Montserrat Semi-Bold';fill:#3f3d56;fill-opacity:1;stroke-width:1.03494275px"
         id="path3700" />
      <path
         d="m 3518.9931,1278.5566 v 61.4342 h -9.9355 v -5.7128 q -2.5667,3.1462 -6.3752,4.7193 -3.7258,1.5731 -8.2796,1.5731 -6.3752,0 -11.5085,-2.815 -5.0506,-2.8151 -7.9484,-7.9484 -2.8978,-5.2161 -2.8978,-11.9225 0,-6.7065 2.8978,-11.8398 2.8978,-5.1333 7.9484,-7.9483 5.1333,-2.8151 11.5085,-2.8151 4.3882,0 8.0312,1.4903 3.643,1.4904 6.2096,4.471 v -22.686 z m -23.3484,53.1547 q 3.7258,0 6.7065,-1.6559 2.9806,-1.7387 4.7193,-4.8849 1.7387,-3.1463 1.7387,-7.286 0,-4.1398 -1.7387,-7.286 -1.7387,-3.1463 -4.7193,-4.8022 -2.9807,-1.7387 -6.7065,-1.7387 -3.7257,0 -6.7064,1.7387 -2.9806,1.6559 -4.7193,4.8022 -1.7387,3.1462 -1.7387,7.286 0,4.1397 1.7387,7.286 1.7387,3.1462 4.7193,4.8849 2.9807,1.6559 6.7064,1.6559 z"
         style="font-style:normal;font-variant:normal;font-weight:600;font-stretch:normal;font-size:82.79541779px;font-family:Montserrat;-inkscape-font-specification:'Montserrat Semi-Bold';fill:#3f3d56;fill-opacity:1;stroke-width:1.03494275px"
         id="path3702" />
      <path
         d="m 3576.4945,1295.7781 v 37.5063 q 0,23.3483 -23.8451,23.3483 -6.3753,0 -12.0881,-1.6559 -5.7129,-1.5731 -9.4387,-4.6365 l 4.6365,-7.7828 q 2.8979,2.4011 7.286,3.8086 4.471,1.4903 9.0247,1.4903 7.286,0 10.6806,-3.3118 3.3946,-3.3118 3.3946,-10.101 v -2.3183 q -2.6494,2.8978 -6.458,4.3881 -3.8086,1.4904 -8.3623,1.4904 -6.2925,0 -11.4258,-2.6495 -5.0505,-2.7322 -8.0312,-7.6172 -2.8978,-4.8849 -2.8978,-11.1774 0,-6.2924 2.8978,-11.0945 2.9807,-4.885 8.0312,-7.5344 5.1333,-2.6495 11.4258,-2.6495 4.8021,0 8.6935,1.5731 3.9742,1.5731 6.6236,4.8022 v -5.8785 z m -23.5967,33.4493 q 5.8784,0 9.6042,-3.4774 3.8086,-3.5602 3.8086,-9.1903 0,-5.5473 -3.8086,-9.0247 -3.7258,-3.4774 -9.6042,-3.4774 -5.9613,0 -9.7699,3.4774 -3.7258,3.4774 -3.7258,9.0247 0,5.6301 3.7258,9.1903 3.8086,3.4774 9.7699,3.4774 z"
         style="font-style:normal;font-variant:normal;font-weight:600;font-stretch:normal;font-size:82.79541779px;font-family:Montserrat;-inkscape-font-specification:'Montserrat Semi-Bold';fill:#3f3d56;fill-opacity:1;stroke-width:1.03494275px"
         id="path3704" />
      <path
         d="m 3590.0199,1295.7781 h 10.3494 v 44.2127 h -10.3494 z m 5.2161,-7.286 q -2.8151,0 -4.7194,-1.7387 -1.9042,-1.8215 -1.9042,-4.471 0,-2.6494 1.9042,-4.3881 1.9043,-1.8215 4.7194,-1.8215 2.815,0 4.7193,1.7387 1.9043,1.6559 1.9043,4.2226 0,2.7322 -1.9043,4.6365 -1.8215,1.8215 -4.7193,1.8215 z"
         style="font-style:normal;font-variant:normal;font-weight:600;font-stretch:normal;font-size:82.79541779px;font-family:Montserrat;-inkscape-font-specification:'Montserrat Semi-Bold';fill:#3f3d56;fill-opacity:1;stroke-width:1.03494275px"
         id="path3706" />
      <path
         d="m 3655.3506,1295.7781 -18.9601,44.2127 h -10.6806 l -18.9602,-44.2127 h 10.7634 l 13.7441,32.787 14.158,-32.787 z"
         style="font-style:normal;font-variant:normal;font-weight:600;font-stretch:normal;font-size:82.79541779px;font-family:Montserrat;-inkscape-font-specification:'Montserrat Semi-Bold';fill:#3f3d56;fill-opacity:1;stroke-width:1.03494275px"
         id="path3708" />
      <path
         d="m 3686.9061,1295.2813 q 8.3623,0 13.4128,4.8849 5.0505,4.885 5.0505,14.4892 v 25.3354 H 3695.02 v -24.0106 q 0,-5.7957 -2.7322,-8.6935 -2.7323,-2.9807 -7.7828,-2.9807 -5.7129,0 -9.0247,3.4774 -3.3118,3.3946 -3.3118,9.8527 v 22.3547 h -10.3495 v -44.2127 h 9.8527 v 5.7129 q 2.5667,-3.0635 6.458,-4.6366 3.8914,-1.5731 8.7764,-1.5731 z"
         style="font-style:normal;font-variant:normal;font-weight:600;font-stretch:normal;font-size:82.79541779px;font-family:Montserrat;-inkscape-font-specification:'Montserrat Semi-Bold';fill:#3f3d56;fill-opacity:1;stroke-width:1.03494275px"
         id="path3710" />
      <path
         d="m 3718.5792,1295.7781 h 10.3494 v 44.2127 h -10.3494 z m 5.2161,-7.286 q -2.8151,0 -4.7194,-1.7387 -1.9043,-1.8215 -1.9043,-4.471 0,-2.6494 1.9043,-4.3881 1.9043,-1.8215 4.7194,-1.8215 2.815,0 4.7193,1.7387 1.9043,1.6559 1.9043,4.2226 0,2.7322 -1.9043,4.6365 -1.8215,1.8215 -4.7193,1.8215 z"
         style="font-style:normal;font-variant:normal;font-weight:600;font-stretch:normal;font-size:82.79541779px;font-family:Montserrat;-inkscape-font-specification:'Montserrat Semi-Bold';fill:#3f3d56;fill-opacity:1;stroke-width:1.03494275px"
         id="path3712" />
      <path
         d="m 3767.5992,1295.2813 q 8.3624,0 13.4129,4.8849 5.0505,4.885 5.0505,14.4892 v 25.3354 h -10.3494 v -24.0106 q 0,-5.7957 -2.7323,-8.6935 -2.7322,-2.9807 -7.7827,-2.9807 -5.7129,0 -9.0247,3.4774 -3.3119,3.3946 -3.3119,9.8527 v 22.3547 h -10.3494 v -44.2127 h 9.8527 v 5.7129 q 2.5666,-3.0635 6.458,-4.6366 3.8914,-1.5731 8.7763,-1.5731 z"
         style="font-style:normal;font-variant:normal;font-weight:600;font-stretch:normal;font-size:82.79541779px;font-family:Montserrat;-inkscape-font-specification:'Montserrat Semi-Bold';fill:#3f3d56;fill-opacity:1;stroke-width:1.03494275px"
         id="path3714" />
      <path
         d="m 3843.6391,1295.7781 v 37.5063 q 0,23.3483 -23.8451,23.3483 -6.3753,0 -12.0882,-1.6559 -5.7128,-1.5731 -9.4386,-4.6365 l 4.6365,-7.7828 q 2.8979,2.4011 7.286,3.8086 4.471,1.4903 9.0247,1.4903 7.286,0 10.6806,-3.3118 3.3946,-3.3118 3.3946,-10.101 v -2.3183 q -2.6494,2.8978 -6.458,4.3881 -3.8086,1.4904 -8.3623,1.4904 -6.2925,0 -11.4258,-2.6495 -5.0505,-2.7322 -8.0312,-7.6172 -2.8978,-4.8849 -2.8978,-11.1774 0,-6.2924 2.8978,-11.0945 2.9807,-4.885 8.0312,-7.5344 5.1333,-2.6495 11.4258,-2.6495 4.8021,0 8.6935,1.5731 3.9741,1.5731 6.6236,4.8022 v -5.8785 z m -23.5967,33.4493 q 5.8784,0 9.6042,-3.4774 3.8086,-3.5602 3.8086,-9.1903 0,-5.5473 -3.8086,-9.0247 -3.7258,-3.4774 -9.6042,-3.4774 -5.9613,0 -9.7699,3.4774 -3.7258,3.4774 -3.7258,9.0247 0,5.6301 3.7258,9.1903 3.8086,3.4774 9.7699,3.4774 z"
         style="font-style:normal;font-variant:normal;font-weight:600;font-stretch:normal;font-size:82.79541779px;font-family:Montserrat;-inkscape-font-specification:'Montserrat Semi-Bold';fill:#3f3d56;fill-opacity:1;stroke-width:1.03494275px"
         id="path3716" />
    </g>
    <path
       id="path3692"
       d="m 3030.1618,1239.0534 a 31.21541,31.21541 0 1 0 31.2154,31.2154 31.307178,31.307178 0 0 0 -31.2154,-31.2154 z m -6.4082,47.8586 -15.9979,-15.9979 4.4872,-4.4872 11.5257,11.5258 24.327,-24.3271 4.4872,4.4873 z"
       style="fill:#ff3465;fill-opacity:1;stroke-width:1.47135544" />
    <path
       id="path3694"
       d="m 3410.1618,1103.0534 a 31.21541,31.21541 0 1 0 31.2154,31.2154 31.307178,31.307178 0 0 0 -31.2154,-31.2154 z m -6.4082,47.8586 -15.9979,-15.9979 4.4872,-4.4872 11.5257,11.5258 24.327,-24.3271 4.4872,4.4873 z"
       style="fill:#ff3465;fill-opacity:1;stroke-width:1.47135544" />
    <path
       style="fill:#ff3465;fill-opacity:1;stroke-width:1.47135544"
       d="m 3410.1618,1239.0534 a 31.21541,31.21541 0 1 0 31.2154,31.2154 31.307178,31.307178 0 0 0 -31.2154,-31.2154 z m -6.4082,47.8586 -15.9979,-15.9979 4.4872,-4.4872 11.5257,11.5258 24.327,-24.3271 4.4872,4.4873 z"
       id="path3696" />
  </g>
  <g
     style="font-style:normal;font-weight:normal;font-size:28.8393px;line-height:1.25;font-family:sans-serif;letter-spacing:0px;word-spacing:0px;fill:#000000;fill-opacity:1;stroke:none;stroke-width:0.720982px;stroke-linecap:butt;stroke-linejoin:miter;stroke-opacity:1"
     id="text2912"
     aria-label="Rådgivning">
    <path
       id="path1193"
       style="font-style:normal;font-variant:normal;font-weight:600;font-stretch:normal;font-family:Montserrat;-inkscape-font-specification:'Montserrat Semi-Bold';stroke-width:0.720982px"
       d="m 932.33997,144.47354 q 0,-0.78858 -0.32387,-1.35185 -0.32388,-0.56326 -1.11246,-0.88714 -0.54918,-0.22531 -1.28143,-0.26755 -0.73225,-0.0563 -1.70388,-0.0563 h -1.95736 v 5.64675 h 1.66164 q 1.29552,0 2.16858,-0.12673 0.87306,-0.12674 1.46449,-0.57735 0.56327,-0.43653 0.81674,-0.95755 0.26755,-0.53511 0.26755,-1.42225 z m 8.43493,14.54637 h -6.60431 l -5.71716,-7.6886 h -2.49246 v 7.6886 h -5.3792 v -20.96762 h 9.0686 q 1.85878,0 3.19654,0.21122 1.33776,0.21123 2.50654,0.91531 1.18287,0.70409 1.87287,1.83062 0.70408,1.11245 0.70408,2.80226 0,2.32347 -1.08429,3.78797 -1.07021,1.46449 -3.0698,2.43613 z" />
    <path
       id="path1195"
       style="font-style:normal;font-variant:normal;font-weight:600;font-stretch:normal;font-family:Montserrat;-inkscape-font-specification:'Montserrat Semi-Bold';stroke-width:0.720982px"
       d="m 952.4627,154.89398 v -3.29511 q -1.02796,0.0845 -2.22491,0.23938 -1.19694,0.14082 -1.81653,0.33797 -0.76041,0.23938 -1.16878,0.70408 -0.39429,0.45061 -0.39429,1.19694 0,0.49286 0.0845,0.80266 0.0845,0.3098 0.42245,0.59143 0.32388,0.28163 0.77449,0.42245 0.45062,0.12673 1.40817,0.12673 0.76041,0 1.5349,-0.30979 0.78858,-0.3098 1.38001,-0.81674 z m 0,2.45021 q -0.40837,0.3098 -1.01388,0.74633 -0.60551,0.43653 -1.14062,0.69 -0.74633,0.33796 -1.54898,0.49286 -0.80266,0.16898 -1.76021,0.16898 -2.25307,0 -3.77389,-1.39408 -1.52083,-1.39409 -1.52083,-3.56267 0,-1.73205 0.7745,-2.83042 0.77449,-1.09837 2.19674,-1.73204 1.40817,-0.63368 3.49226,-0.90123 2.08408,-0.26755 4.32307,-0.39429 v -0.0845 q 0,-1.3096 -1.07021,-1.80245 -1.0702,-0.50694 -3.15429,-0.50694 -1.25327,0 -2.67552,0.45061 -1.42225,0.43653 -2.04185,0.67592 h -0.46469 v -3.81614 q 0.76041,-0.19714 1.94327,-0.40836 1.19694,-0.21123 3.01348,-0.3098 -1.11245,-0.50694 -1.80245,-1.52082 -0.67593,-1.01388 -0.67593,-2.29532 0,-1.81653 1.29552,-3.02756 1.3096,-1.21102 3.18246,-1.21102 1.88694,0 3.18246,1.2251 1.29551,1.21103 1.29551,3.01348 0,1.36593 -0.74632,2.40797 -0.74633,1.04204 -1.9292,1.49266 2.81634,0.32388 4.22451,1.59123 1.42225,1.25327 1.42225,3.75981 v 10.7584 h -5.02716 z m -0.50694,-18.32027 q 0,-0.87306 -0.54919,-1.47857 -0.5351,-0.60551 -1.36592,-0.60551 -0.83082,0 -1.38001,0.60551 -0.5351,0.59143 -0.5351,1.47857 0,0.88715 0.5351,1.47858 0.53511,0.57735 1.38001,0.57735 0.8449,0 1.38,-0.59143 0.53511,-0.59143 0.53511,-1.4645 z" />
    <path
       id="path1197"
       style="font-style:normal;font-variant:normal;font-weight:600;font-stretch:normal;font-family:Montserrat;-inkscape-font-specification:'Montserrat Semi-Bold';stroke-width:0.720982px"
       d="m 977.52809,159.01991 h -5.0694 v -1.64755 q -1.3096,1.0702 -2.45021,1.57714 -1.14062,0.50694 -2.63328,0.50694 -2.88674,0 -4.61879,-2.2249 -1.73205,-2.22491 -1.73205,-5.9988 0,-2.01368 0.57735,-3.56266 0.59143,-1.56307 1.60531,-2.67552 0.95756,-1.05613 2.32348,-1.63348 1.36592,-0.59143 2.73185,-0.59143 1.42225,0 2.32347,0.3098 0.91531,0.29571 1.87287,0.76041 v -6.73104 h 5.0694 z m -5.0694,-4.36532 v -7.75901 q -0.53511,-0.2253 -1.12654,-0.32387 -0.59143,-0.0986 -1.08429,-0.0986 -1.99959,0 -2.99939,1.25327 -0.9998,1.23919 -0.9998,3.45002 0,2.32347 0.80265,3.3796 0.80266,1.04204 2.57695,1.04204 0.69,0 1.4645,-0.25347 0.77449,-0.26755 1.36592,-0.69 z" />
    <path
       id="path1199"
       style="font-style:normal;font-variant:normal;font-weight:600;font-stretch:normal;font-family:Montserrat;-inkscape-font-specification:'Montserrat Semi-Bold';stroke-width:0.720982px"
       d="m 997.69306,157.20338 q 0,2.2249 -0.63367,3.74572 -0.63368,1.52082 -1.7743,2.37981 -1.14061,0.87306 -2.76001,1.25327 -1.60531,0.39428 -3.63307,0.39428 -1.64756,0 -3.25287,-0.19714 -1.59123,-0.19714 -2.76001,-0.47878 v -3.95695 h 0.6196 q 0.92939,0.36612 2.26715,0.66184 1.33776,0.3098 2.39388,0.3098 1.40817,0 2.28123,-0.26756 0.88715,-0.25347 1.35185,-0.73224 0.43653,-0.45062 0.63367,-1.1547 0.19715,-0.70408 0.19715,-1.6898 v -0.29572 q -0.91531,0.74633 -2.02777,1.18286 -1.11245,0.43654 -2.47837,0.43654 -3.32328,0 -5.12574,-1.9996 -1.80245,-1.9996 -1.80245,-6.08329 0,-1.95735 0.54918,-3.3796 0.54919,-1.42225 1.54899,-2.47838 0.92939,-0.98572 2.28123,-1.5349 1.36593,-0.54919 2.78818,-0.54919 1.28143,0 2.32347,0.3098 1.05613,0.29571 1.91511,0.83082 l 0.18306,-0.70409 h 4.91451 z m -5.0694,-3.16838 v -7.16758 q -0.43654,-0.18306 -1.07021,-0.28163 -0.63368,-0.11266 -1.14062,-0.11266 -1.9996,0 -2.9994,1.1547 -0.9998,1.14062 -0.9998,3.19654 0,2.28124 0.8449,3.18246 0.85899,0.90123 2.53471,0.90123 0.76041,0 1.49266,-0.23939 0.73224,-0.23939 1.33776,-0.63367 z" />
    <path
       id="path1201"
       style="font-style:normal;font-variant:normal;font-weight:600;font-stretch:normal;font-family:Montserrat;-inkscape-font-specification:'Montserrat Semi-Bold';stroke-width:0.720982px"
       d="m 1007.5502,159.01991 h -5.0694 v -15.81373 h 5.0694 z m 0.1409,-18.0668 h -5.3511 v -3.84429 h 5.3511 z" />
    <path
       id="path1203"
       style="font-style:normal;font-variant:normal;font-weight:600;font-stretch:normal;font-family:Montserrat;-inkscape-font-specification:'Montserrat Semi-Bold';stroke-width:0.720982px"
       d="m 1028.2644,143.20618 -6.0974,15.81373 h -5.7453 l -6.0551,-15.81373 h 5.3651 l 3.6612,10.87106 3.619,-10.87106 z" />
    <path
       id="path1205"
       style="font-style:normal;font-variant:normal;font-weight:600;font-stretch:normal;font-family:Montserrat;-inkscape-font-specification:'Montserrat Semi-Bold';stroke-width:0.720982px"
       d="m 1046.979,159.01991 h -5.0976 v -7.84349 q 0,-0.95756 -0.099,-1.90103 -0.099,-0.95756 -0.3379,-1.40817 -0.2817,-0.52102 -0.8309,-0.76041 -0.5351,-0.23939 -1.5067,-0.23939 -0.69,0 -1.4082,0.22531 -0.7041,0.2253 -1.5349,0.71816 v 11.20902 h -5.0694 v -15.81373 h 5.0694 v 1.74613 q 1.3519,-1.05612 2.591,-1.61939 1.2533,-0.56327 2.7741,-0.56327 2.5629,0 3.9992,1.49266 1.4505,1.49266 1.4505,4.46389 z" />
    <path
       id="path1207"
       style="font-style:normal;font-variant:normal;font-weight:600;font-stretch:normal;font-family:Montserrat;-inkscape-font-specification:'Montserrat Semi-Bold';stroke-width:0.720982px"
       d="m 1056.7235,159.01991 h -5.0694 v -15.81373 h 5.0694 z m 0.1408,-18.0668 h -5.3511 v -3.84429 h 5.3511 z" />
    <path
       id="path1209"
       style="font-style:normal;font-variant:normal;font-weight:600;font-stretch:normal;font-family:Montserrat;-inkscape-font-specification:'Montserrat Semi-Bold';stroke-width:0.720982px"
       d="m 1077.3954,159.01991 h -5.0976 v -7.84349 q 0,-0.95756 -0.099,-1.90103 -0.099,-0.95756 -0.3379,-1.40817 -0.2817,-0.52102 -0.8308,-0.76041 -0.5351,-0.23939 -1.5068,-0.23939 -0.69,0 -1.4081,0.22531 -0.7041,0.2253 -1.535,0.71816 v 11.20902 h -5.0694 v -15.81373 h 5.0694 v 1.74613 q 1.3519,-1.05612 2.5911,-1.61939 1.2532,-0.56327 2.7741,-0.56327 2.5628,0 3.9992,1.49266 1.4504,1.49266 1.4504,4.46389 z" />
    <path
       id="path1211"
       style="font-style:normal;font-variant:normal;font-weight:600;font-stretch:normal;font-family:Montserrat;-inkscape-font-specification:'Montserrat Semi-Bold';stroke-width:0.720982px"
       d="m 1097.4477,157.20338 q 0,2.2249 -0.6337,3.74572 -0.6337,1.52082 -1.7743,2.37981 -1.1406,0.87306 -2.76,1.25327 -1.6053,0.39428 -3.6331,0.39428 -1.6475,0 -3.2528,-0.19714 -1.5913,-0.19714 -2.76,-0.47878 v -3.95695 h 0.6196 q 0.9293,0.36612 2.2671,0.66184 1.3378,0.3098 2.3939,0.3098 1.4082,0 2.2812,-0.26756 0.8872,-0.25347 1.3519,-0.73224 0.4365,-0.45062 0.6336,-1.1547 0.1972,-0.70408 0.1972,-1.6898 v -0.29572 q -0.9153,0.74633 -2.0278,1.18286 -1.1124,0.43654 -2.4784,0.43654 -3.3232,0 -5.1257,-1.9996 -1.8024,-1.9996 -1.8024,-6.08329 0,-1.95735 0.5491,-3.3796 0.5492,-1.42225 1.549,-2.47838 0.9294,-0.98572 2.2813,-1.5349 1.3659,-0.54919 2.7881,-0.54919 1.2815,0 2.3235,0.3098 1.0561,0.29571 1.9151,0.83082 l 0.1831,-0.70409 h 4.9145 z m -5.0694,-3.16838 v -7.16758 q -0.4365,-0.18306 -1.0702,-0.28163 -0.6337,-0.11266 -1.1406,-0.11266 -1.9996,0 -2.9994,1.1547 -0.9998,1.14062 -0.9998,3.19654 0,2.28124 0.8449,3.18246 0.8589,0.90123 2.5347,0.90123 0.7604,0 1.4926,-0.23939 0.7323,-0.23939 1.3378,-0.63367 z" />
  </g>
  <g
     style="font-style:normal;font-weight:normal;font-size:28.8393px;line-height:1.25;font-family:sans-serif;letter-spacing:0px;word-spacing:0px;fill:#000000;fill-opacity:1;stroke:none;stroke-width:0.720982px;stroke-linecap:butt;stroke-linejoin:miter;stroke-opacity:1"
     id="text2916"
     aria-label="HR">
    <path
       id="path1214"
       style="font-style:normal;font-variant:normal;font-weight:600;font-stretch:normal;font-family:Montserrat;-inkscape-font-specification:'Montserrat Semi-Bold';stroke-width:0.720982px"
       d="m 939.38082,117.14465 h -5.40737 v -9.23758 h -7.98431 v 9.23758 h -5.40737 V 96.177029 h 5.40737 v 7.674521 h 7.98431 v -7.674521 h 5.40737 z" />
    <path
       id="path1216"
       style="font-style:normal;font-variant:normal;font-weight:600;font-stretch:normal;font-family:Montserrat;-inkscape-font-specification:'Montserrat Semi-Bold';stroke-width:0.720982px"
       d="m 956.50414,102.59828 q 0,-0.78858 -0.32388,-1.35185 -0.32388,-0.56326 -1.11245,-0.88714 -0.54919,-0.22531 -1.28144,-0.26755 -0.73224,-0.0563 -1.70388,-0.0563 h -1.95735 v 5.64675 h 1.66164 q 1.29551,0 2.16858,-0.12673 0.87306,-0.12674 1.46449,-0.57735 0.56327,-0.43653 0.81674,-0.95755 0.26755,-0.53511 0.26755,-1.42225 z m 8.43493,14.54637 h -6.60431 l -5.71716,-7.6886 h -2.49246 v 7.6886 h -5.3792 V 96.177029 h 9.0686 q 1.85878,0 3.19654,0.211225 1.33776,0.211225 2.50654,0.915309 1.18286,0.704084 1.87286,1.830619 0.70409,1.112448 0.70409,2.802258 0,2.32347 -1.08429,3.78797 -1.07021,1.46449 -3.06981,2.43613 z" />
  </g>
  <g
     style="font-style:normal;font-weight:normal;font-size:28.8393px;line-height:1.25;font-family:sans-serif;letter-spacing:0px;word-spacing:0px;fill:#000000;fill-opacity:1;stroke:none;stroke-width:0.720982px;stroke-linecap:butt;stroke-linejoin:miter;stroke-opacity:1"
     id="text2920"
     aria-label="Lön">
    <path
       id="path1186"
       style="font-style:normal;font-variant:normal;font-weight:600;font-stretch:normal;font-family:Montserrat;-inkscape-font-specification:'Montserrat Semi-Bold';stroke-width:0.720982px"
       d="M 27.419782,117.60608 H 12.296055 V 96.638454 h 5.407366 v 16.912096 h 9.716361 z" />
    <path
       id="path1188"
       style="font-style:normal;font-variant:normal;font-weight:600;font-stretch:normal;font-family:Montserrat;-inkscape-font-specification:'Montserrat Semi-Bold';stroke-width:0.720982px"
       d="m 46.542705,109.70626 q 0,3.90062 -2.281232,6.15369 -2.267151,2.23899 -6.379002,2.23899 -4.111851,0 -6.393084,-2.23899 -2.267151,-2.25307 -2.267151,-6.15369 0,-3.92879 2.281233,-6.16778 2.295314,-2.23899 6.379002,-2.23899 4.140014,0 6.393084,2.25307 2.26715,2.25307 2.26715,6.1537 z m -6.238185,3.84429 q 0.492859,-0.60551 0.732248,-1.45041 0.25347,-0.85898 0.25347,-2.36572 0,-1.39409 -0.25347,-2.33756 -0.253471,-0.94347 -0.704084,-1.50674 -0.450614,-0.57735 -1.08429,-0.81674 -0.633676,-0.23939 -1.365923,-0.23939 -0.732248,0 -1.309596,0.19715 -0.563268,0.19714 -1.08429,0.78857 -0.464696,0.54919 -0.746329,1.50674 -0.267552,0.95756 -0.267552,2.40797 0,1.29551 0.239388,2.25307 0.239389,0.94347 0.704085,1.52082 0.450613,0.54919 1.070207,0.80266 0.633676,0.25347 1.436332,0.25347 0.690002,0 1.309596,-0.22531 0.633676,-0.23939 1.070208,-0.78858 z m 3.450012,-14.011269 h -4.182259 v -3.844299 h 4.182259 z m -7.561863,0 H 32.01041 v -3.844299 h 4.182259 z" />
    <path
       id="path1190"
       style="font-style:normal;font-variant:normal;font-weight:600;font-stretch:normal;font-family:Montserrat;-inkscape-font-specification:'Montserrat Semi-Bold';stroke-width:0.720982px"
       d="m 66.088081,117.60608 h -5.097569 v -7.8435 q 0,-0.95755 -0.09857,-1.90102 -0.09857,-0.95756 -0.33796,-1.40817 -0.281634,-0.52103 -0.830819,-0.76041 -0.535104,-0.23939 -1.50674,-0.23939 -0.690003,0 -1.408169,0.2253 -0.704084,0.22531 -1.534903,0.71817 v 11.20902 h -5.069405 v -15.81373 h 5.069405 v 1.74613 q 1.351842,-1.05613 2.59103,-1.61939 1.253269,-0.56327 2.774091,-0.56327 2.562866,0 3.999198,1.49266 1.450413,1.49265 1.450413,4.46389 z" />
  </g>
  <g
     style="font-style:normal;font-weight:normal;font-size:28.8393px;line-height:1.25;font-family:sans-serif;letter-spacing:0px;word-spacing:0px;fill:#000000;fill-opacity:1;stroke:none;stroke-width:0.720982px;stroke-linecap:butt;stroke-linejoin:miter;stroke-opacity:1"
     id="text2924"
     aria-label="Bokföring">
    <path
       id="path1167"
       style="font-style:normal;font-variant:normal;font-weight:600;font-stretch:normal;font-family:Montserrat;-inkscape-font-specification:'Montserrat Semi-Bold';stroke-width:0.720982px"
       d="m 30.236118,151.86327 q 0,1.52082 -0.619594,2.71776 -0.605512,1.19695 -1.67572,1.98552 -1.239188,0.92939 -2.731846,1.32368 -1.478577,0.39429 -3.759809,0.39429 h -9.153094 v -20.96763 h 8.139213 q 2.534702,0 3.703482,0.16898 1.182861,0.16898 2.337559,0.74633 1.196943,0.60551 1.774292,1.63348 0.591431,1.01388 0.591431,2.32347 0,1.52082 -0.802656,2.6896 -0.802656,1.1547 -2.267151,1.80246 v 0.11265 q 2.055926,0.40837 3.252869,1.6898 1.211024,1.28144 1.211024,3.37961 z m -6.928187,-8.61799 q 0,-0.52102 -0.267552,-1.04205 -0.25347,-0.52102 -0.915309,-0.77449 -0.591431,-0.2253 -1.478577,-0.23939 -0.873064,-0.0282 -2.464294,-0.0282 h -0.506941 v 4.43573 h 0.844901 q 1.281433,0 2.182661,-0.0423 0.901227,-0.0422 1.42225,-0.28163 0.732247,-0.32388 0.957554,-0.83082 0.225307,-0.52102 0.225307,-1.19694 z m 1.323678,8.5335 q 0,-0.9998 -0.394287,-1.53491 -0.380206,-0.54918 -1.309597,-0.81673 -0.633675,-0.18306 -1.746128,-0.19715 -1.112453,-0.0141 -2.323478,-0.0141 h -1.182861 v 5.22431 h 0.394287 q 2.281233,0 3.26695,-0.0141 0.985718,-0.0141 1.816537,-0.36612 0.844901,-0.35204 1.154698,-0.92939 0.323879,-0.59143 0.323879,-1.35184 z" />
    <path
       id="path1169"
       style="font-style:normal;font-variant:normal;font-weight:600;font-stretch:normal;font-family:Montserrat;-inkscape-font-specification:'Montserrat Semi-Bold';stroke-width:0.720982px"
       d="m 50.147617,150.38469 q 0,3.90063 -2.281232,6.1537 -2.267151,2.23898 -6.379002,2.23898 -4.111851,0 -6.393084,-2.23898 -2.267151,-2.25307 -2.267151,-6.1537 0,-3.92879 2.281233,-6.16778 2.295314,-2.23898 6.379002,-2.23898 4.140014,0 6.393083,2.25307 2.267151,2.25307 2.267151,6.15369 z m -6.238185,3.8443 q 0.492859,-0.60551 0.732248,-1.45041 0.25347,-0.85898 0.25347,-2.36572 0,-1.39409 -0.25347,-2.33756 -0.253471,-0.94348 -0.704085,-1.50674 -0.450613,-0.57735 -1.084289,-0.81674 -0.633676,-0.23939 -1.365923,-0.23939 -0.732248,0 -1.309597,0.19714 -0.563267,0.19715 -1.084289,0.78858 -0.464696,0.54918 -0.746329,1.50674 -0.267552,0.95755 -0.267552,2.40797 0,1.29551 0.239388,2.25306 0.239389,0.94348 0.704084,1.52083 0.450614,0.54918 1.070208,0.80265 0.633676,0.25347 1.436332,0.25347 0.690002,0 1.309596,-0.2253 0.633676,-0.23939 1.070208,-0.78858 z" />
    <path
       id="path1171"
       style="font-style:normal;font-variant:normal;font-weight:600;font-stretch:normal;font-family:Montserrat;-inkscape-font-specification:'Montserrat Semi-Bold';stroke-width:0.720982px"
       d="m 70.59422,158.28452 h -5.900224 l -4.43573,-6.88595 -1.380005,1.67572 v 5.21023 h -5.069406 v -21.9111 h 5.069406 v 13.08188 l 5.463693,-6.98451 h 5.843898 l -5.689,6.81553 z" />
    <path
       id="path1173"
       style="font-style:normal;font-variant:normal;font-weight:600;font-stretch:normal;font-family:Montserrat;-inkscape-font-specification:'Montserrat Semi-Bold';stroke-width:0.720982px"
       d="m 83.436716,140.09098 h -0.380205 q -0.337961,-0.0986 -0.887146,-0.2253 -0.535104,-0.12674 -1.154698,-0.12674 -1.492658,0 -2.027762,0.5351 -0.521023,0.53511 -0.521023,2.07001 v 0.12674 h 3.914708 v 3.43593 h -3.745727 v 12.3778 h -5.069406 v -12.3778 h -2.168579 v -3.43593 h 2.168579 v -0.43654 q 0,-2.90082 1.534903,-4.35124 1.548985,-1.45041 4.675119,-1.45041 1.126534,0 2.041844,0.0845 0.915309,0.0704 1.619393,0.19714 z" />
    <path
       id="path1175"
       style="font-style:normal;font-variant:normal;font-weight:600;font-stretch:normal;font-family:Montserrat;-inkscape-font-specification:'Montserrat Semi-Bold';stroke-width:0.720982px"
       d="m 101.5176,150.38469 q 0,3.90063 -2.281237,6.1537 -2.267151,2.23898 -6.379002,2.23898 -4.111851,0 -6.393084,-2.23898 -2.267151,-2.25307 -2.267151,-6.1537 0,-3.92879 2.281233,-6.16778 2.295314,-2.23898 6.379002,-2.23898 4.140014,0 6.393083,2.25307 2.267156,2.25307 2.267156,6.15369 z m -6.23819,3.8443 q 0.492859,-0.60551 0.732247,-1.45041 0.253471,-0.85898 0.253471,-2.36572 0,-1.39409 -0.253471,-2.33756 -0.25347,-0.94348 -0.704084,-1.50674 -0.450613,-0.57735 -1.084289,-0.81674 -0.633676,-0.23939 -1.365923,-0.23939 -0.732248,0 -1.309597,0.19714 -0.563267,0.19715 -1.084289,0.78858 -0.464696,0.54918 -0.746329,1.50674 -0.267552,0.95755 -0.267552,2.40797 0,1.29551 0.239388,2.25306 0.239389,0.94348 0.704084,1.52083 0.450614,0.54918 1.070208,0.80265 0.633676,0.25347 1.436332,0.25347 0.690002,0 1.309596,-0.2253 0.633676,-0.23939 1.070208,-0.78858 z m 3.450012,-14.01127 h -4.182259 v -3.8443 h 4.182259 z m -7.561863,0 h -4.18226 v -3.8443 h 4.18226 z" />
    <path
       id="path1177"
       style="font-style:normal;font-variant:normal;font-weight:600;font-stretch:normal;font-family:Montserrat;-inkscape-font-specification:'Montserrat Semi-Bold';stroke-width:0.720982px"
       d="m 116.64132,147.3008 h -0.45061 q -0.32388,-0.11265 -1.04204,-0.16898 -0.71817,-0.0563 -1.19695,-0.0563 -1.08429,0 -1.91511,0.14081 -0.83081,0.14082 -1.78837,0.47878 v 10.58943 h -5.0694 v -15.81373 h 5.0694 v 2.32347 q 1.67572,-1.43633 2.91491,-1.90102 1.23919,-0.47878 2.28123,-0.47878 0.26755,0 0.60551,0.0141 0.33796,0.0141 0.59143,0.0422 z" />
    <path
       id="path1179"
       style="font-style:normal;font-variant:normal;font-weight:600;font-stretch:normal;font-family:Montserrat;-inkscape-font-specification:'Montserrat Semi-Bold';stroke-width:0.720982px"
       d="m 124.61155,158.28452 h -5.0694 v -15.81373 h 5.0694 z m 0.14082,-18.0668 h -5.35104 v -3.8443 h 5.35104 z" />
    <path
       id="path1181"
       style="font-style:normal;font-variant:normal;font-weight:600;font-stretch:normal;font-family:Montserrat;-inkscape-font-specification:'Montserrat Semi-Bold';stroke-width:0.720982px"
       d="m 145.28346,158.28452 h -5.09757 v -7.8435 q 0,-0.95756 -0.0986,-1.90103 -0.0986,-0.95755 -0.33796,-1.40817 -0.28163,-0.52102 -0.83082,-0.76041 -0.5351,-0.23939 -1.50674,-0.23939 -0.69,0 -1.40817,0.22531 -0.70408,0.22531 -1.5349,0.71817 v 11.20902 h -5.06941 v -15.81373 h 5.06941 v 1.74612 q 1.35184,-1.05612 2.59103,-1.61939 1.25327,-0.56327 2.77409,-0.56327 2.56287,0 3.9992,1.49266 1.45041,1.49266 1.45041,4.4639 z" />
    <path
       id="path1183"
       style="font-style:normal;font-variant:normal;font-weight:600;font-stretch:normal;font-family:Montserrat;-inkscape-font-specification:'Montserrat Semi-Bold';stroke-width:0.720982px"
       d="m 165.33577,156.46798 q 0,2.2249 -0.63367,3.74573 -0.63368,1.52082 -1.7743,2.3798 -1.14061,0.87306 -2.76001,1.25327 -1.60531,0.39429 -3.63307,0.39429 -1.64756,0 -3.25287,-0.19715 -1.59123,-0.19714 -2.76001,-0.47877 v -3.95696 h 0.6196 q 0.92939,0.36613 2.26715,0.66184 1.33776,0.3098 2.39388,0.3098 1.40817,0 2.28124,-0.26755 0.88714,-0.25347 1.35184,-0.73225 0.43653,-0.45061 0.63367,-1.1547 0.19715,-0.70408 0.19715,-1.6898 v -0.29571 q -0.91531,0.74632 -2.02777,1.18286 -1.11245,0.43653 -2.47837,0.43653 -3.32328,0 -5.12573,-1.9996 -1.80246,-1.9996 -1.80246,-6.08329 0,-1.95735 0.54919,-3.3796 0.54918,-1.42225 1.54898,-2.47838 0.92939,-0.98571 2.28123,-1.5349 1.36593,-0.54919 2.78818,-0.54919 1.28143,0 2.32347,0.3098 1.05613,0.29572 1.91511,0.83082 l 0.18306,-0.70408 h 4.91451 z m -5.0694,-3.16838 v -7.16758 q -0.43654,-0.18306 -1.07021,-0.28163 -0.63368,-0.11265 -1.14062,-0.11265 -1.9996,0 -2.9994,1.15469 -0.9998,1.14062 -0.9998,3.19655 0,2.28123 0.84491,3.18246 0.85898,0.90122 2.5347,0.90122 0.76041,0 1.49266,-0.23938 0.73224,-0.23939 1.33776,-0.63368 z" />
  </g>
</svg>
