<?xml version="1.0" encoding="UTF-8" standalone="no"?>
<svg
   xmlns:dc="http://purl.org/dc/elements/1.1/"
   xmlns:cc="http://creativecommons.org/ns#"
   xmlns:rdf="http://www.w3.org/1999/02/22-rdf-syntax-ns#"
   xmlns:svg="http://www.w3.org/2000/svg"
   xmlns="http://www.w3.org/2000/svg"
   xmlns:xlink="http://www.w3.org/1999/xlink"
   xmlns:sodipodi="http://sodipodi.sourceforge.net/DTD/sodipodi-0.dtd"
   xmlns:inkscape="http://www.inkscape.org/namespaces/inkscape"
   inkscape:version="1.0 (4035a4f, 2020-05-01)"
   sodipodi:docname="melbie_main_new.svg"
   version="1.1"
   viewBox="0 0 1100.99998 666.0509"
   height="666.0509"
   width="1100.99998"
   data-name="Layer 1"
   id="f61e7f2c-3df8-44b9-b514-d2b672d0e0d5">
  <sodipodi:namedview
     inkscape:current-layer="f61e7f2c-3df8-44b9-b514-d2b672d0e0d5"
     inkscape:window-maximized="0"
     inkscape:window-y="23"
     inkscape:window-x="40"
     inkscape:cy="592.29809"
     inkscape:cx="526.47682"
     inkscape:zoom="0.55048947"
     showgrid="false"
     id="namedview1549"
     inkscape:window-height="755"
     inkscape:window-width="1234"
     inkscape:pageshadow="2"
     inkscape:pageopacity="0"
     guidetolerance="10"
     gridtolerance="10"
     objecttolerance="10"
     borderopacity="1"
     bordercolor="#666666"
     pagecolor="#ffffff" />
  <metadata
     id="metadata127">
    <rdf:RDF>
      <cc:Work
         rdf:about="">
        <dc:format>image/svg+xml</dc:format>
        <dc:type
           rdf:resource="http://purl.org/dc/dcmitype/StillImage" />
        <dc:title>dev_focus</dc:title>
      </cc:Work>
    </rdf:RDF>
  </metadata>
  <defs
     id="defs125">
    <linearGradient
       id="afa9b5ae-644d-481c-a512-b5b81b77e42b"
       x1="979.4455"
       y1="738.5899"
       x2="979.4455"
       y2="646.78455"
       gradientUnits="userSpaceOnUse">
      <stop
         offset="0"
         stop-color="gray"
         stop-opacity="0.25"
         id="stop648" />
      <stop
         offset="0.53514"
         stop-color="gray"
         stop-opacity="0.12"
         id="stop650" />
      <stop
         offset="1"
         stop-color="gray"
         stop-opacity="0.1"
         id="stop652" />
    </linearGradient>
    <linearGradient
       id="bf9220ea-365d-417c-960f-9ff5535a2d22"
       x1="600.65161"
       y1="650.10522"
       x2="600.65161"
       y2="119"
       xlink:href="#afa9b5ae-644d-481c-a512-b5b81b77e42b" />
    <linearGradient
       id="b4202d31-0de8-4369-b735-813ee4300deb"
       x1="485.72021"
       y1="615.59839"
       x2="485.72021"
       y2="377.70425"
       xlink:href="#afa9b5ae-644d-481c-a512-b5b81b77e42b" />
    <linearGradient
       y2="646.78455"
       x2="979.4455"
       y1="738.5899"
       x1="979.4455"
       gradientUnits="userSpaceOnUse"
       id="linearGradient767"
       xlink:href="#afa9b5ae-644d-481c-a512-b5b81b77e42b" />
    <linearGradient
       id="d0586609-2d1f-4894-831f-bc1bf1cfe805"
       x1="205.5"
       y1="458.72"
       x2="205.5"
       gradientUnits="userSpaceOnUse">
      <stop
         offset="0"
         stop-color="gray"
         stop-opacity="0.25"
         id="stop3161" />
      <stop
         offset="0.54"
         stop-color="gray"
         stop-opacity="0.12"
         id="stop3163" />
      <stop
         offset="1"
         stop-color="gray"
         stop-opacity="0.1"
         id="stop3165" />
    </linearGradient>
    <linearGradient
       gradientTransform="translate(2670.1925,120.59854)"
       id="dc1a1433-8955-4fce-8d84-3a5c46e8d5cb"
       x1="347.94"
       y1="120.14"
       x2="347.94"
       y2="40.02"
       xlink:href="#d0586609-2d1f-4894-831f-bc1bf1cfe805" />
    <linearGradient
       gradientTransform="translate(2670.1925,120.59854)"
       id="6583b9bd-7f21-4a55-b428-c52c7257def0"
       x1="347.94"
       y1="269.14001"
       x2="347.94"
       y2="189.02"
       xlink:href="#d0586609-2d1f-4894-831f-bc1bf1cfe805" />
    <linearGradient
       gradientTransform="translate(2670.1925,120.59854)"
       id="d5bb9150-ad00-4040-8c31-39c92932ad3e"
       x1="347.94"
       y1="417.14001"
       x2="347.94"
       y2="337.01999"
       xlink:href="#d0586609-2d1f-4894-831f-bc1bf1cfe805" />
    <linearGradient
       gradientTransform="translate(1216.8592,-86.06812)"
       id="43ab44a3-beba-4304-ae82-955b08a7fed3"
       x1="660.90997"
       y1="754.77002"
       x2="660.90997"
       y2="737.77002"
       xlink:href="#d0586609-2d1f-4894-831f-bc1bf1cfe805" />
    <linearGradient
       gradientTransform="translate(1068.8592,-158.68812)"
       id="e180fe82-c096-4b7f-a7fc-e0d67eafb4b3"
       x1="810"
       y1="732"
       x2="810"
       y2="417"
       xlink:href="#d0586609-2d1f-4894-831f-bc1bf1cfe805" />
    <linearGradient
       gradientTransform="matrix(1.4257907,0,0,1.3197303,2495.1923,-26.068117)"
       x2="205.5"
       y1="458.72"
       x1="205.5"
       gradientUnits="userSpaceOnUse"
       id="linearGradient3400"
       xlink:href="#d0586609-2d1f-4894-831f-bc1bf1cfe805" />
  </defs>
  <title
     id="title2">dev_focus</title>
  <circle
     id="circle4"
     fill="#2f2e41"
     r="36.39575"
     cy="214.02012"
     cx="633.92942" />
  <path
     id="path6"
     fill="#2f2e41"
     d="M693.56939,295.60077a36.40082,36.40082,0,0,1,32.03938,53.66882,36.38708,36.38708,0,1,0-60.45438-39.98247A36.306,36.306,0,0,1,693.56939,295.60077Z"
     transform="translate(-49.50001 -116.97455)" />
  <circle
     id="circle8"
     fill="#2f2e41"
     r="106.9125"
     cy="107.03051"
     cx="565.91872" />
  <path
     id="path10"
     fill="#2f2e41"
     d="M531.5098,157.67094A106.89328,106.89328,0,0,1,679.677,146.461c-.87424-.83106-1.73925-1.66885-2.64768-2.47643A106.91251,106.91251,0,0,0,534.96321,303.79182c.90844.80758,1.84178,1.56849,2.76952,2.33937A106.89337,106.89337,0,0,1,531.5098,157.67094Z"
     transform="translate(-49.50001 -116.97455)" />
  <circle
     id="circle12"
     fill="#ffb8b8"
     r="68.8589"
     cy="144.17807"
     cx="565.01268" />
  <path
     id="path14"
     fill="#ffb8b8"
     d="M565.58663,282.89754s9.06039,83.35551-5.43622,92.41589,83.35551,21.74492,83.35551,21.74492-14.49662-90.60382,21.74491-114.16081Z"
     transform="translate(-49.50001 -116.97455)" />
  <path
     id="path16"
     fill="#d0cde1"
     d="M652.5663,360.81682s26.98248-12.60018-11.87783-8.11216-72.38788-12.72672-72.38788-12.72672-11.77434-11.77849-13.58641.906,5.43623,36.24153-34.42945,39.86568-76.10721-7.2483-90.60382,19.93284-7.2483,144.9661-7.2483,144.9661,27.18114,97.85213,48.92606,112.34874,212.01292-5.43623,212.01292-5.43623L737.73388,554.709V440.54818s-7.2483-39.86568-57.98644-28.99322c0,0-32.61737-7.24831-30.8053-23.557S652.5663,360.81682,652.5663,360.81682Z"
     transform="translate(-49.50001 -116.97455)" />
  <path
     id="path18"
     fill="#2f2e41"
     d="M478.55,727.24542c1.12-4.88,1.87-7.64,1.87-7.64l-.57995-3.97-5.97-40.54-2.51-17.1c21.74-9.06,27.18-50.74,27.18-50.74l.82-.49,3.71-2.22v-.01l13.32-7.99.27-.16,5.38,3.58,10.93,7.29c38.24,28.12,77.18,27.62,101.21,23.19,14.69-2.71,23.82-6.88,23.82-6.88l26.36-8.79.82-.27.81.12,15.46,2.34.28.05,1.28.19-3.58,24.75-5.19,35.97c13.71,7.26,25.9,20.9,36.56,37.71q3.54,5.58,6.86,11.61c2.88,5.2,5.63,10.61,8.25,16.15.32.66.63,1.33.94,2,1.01,2.17,2.01,4.36,2.98005,6.56H473.75c.36-2.21.72-4.32,1.07-6.35a1.54822,1.54822,0,0,0,.04-.21c.13-.68.25-1.34.36-2C476.44,736.79541,477.62,731.28546,478.55,727.24542Z"
     transform="translate(-49.50001 -116.97455)" />
  <path
     id="path20"
     fill="#2f2e41"
     d="M467.73451,378.93759s19.93284,36.24152,12.68454,81.54343S502.164,618.13166,502.164,618.13166l21.74492-5.43623s-14.49661-94.228-10.87246-115.97289,3.62415-106.9125-14.49661-117.78495S467.73451,378.93759,467.73451,378.93759Z"
     transform="translate(-49.50001 -116.97455)" />
  <path
     id="path22"
     fill="#2f2e41"
     d="M678.47286,416.59979l7.61685,200.62583,14.49661,9.06038s20.83888-220.16727,9.96642-220.16727H688.4302A9.97043,9.97043,0,0,0,678.47286,416.59979Z"
     transform="translate(-49.50001 -116.97455)" />
  <circle
     id="circle24"
     fill="#ff3465"
     r="9.06038"
     cy="487.56653"
     cx="462.63037" />
  <circle
     id="circle26"
     fill="#ff3465"
     r="9.06038"
     cy="496.62692"
     cx="643.838" />
  <polygon
     id="polygon28"
     fill="#2f2e41"
     points="506.12 58.104 506.12 126.963 522.067 126.963 542.362 105.218 539.644 126.963 610.133 126.963 605.784 105.218 614.482 126.963 625.717 126.963 625.717 58.104 506.12 58.104" />
  <ellipse
     id="ellipse30"
     fill="#ffb8b8"
     ry="9.96642"
     rx="5.43623"
     cy="129.68146"
     cx="495.24775" />
  <ellipse
     id="ellipse32"
     fill="#ffb8b8"
     ry="9.96642"
     rx="5.43623"
     cy="129.68146"
     cx="634.77762" />
  <path
     id="path34"
     fill="#ffb8b8"
     d="M721.4252,612.69543s-82.44948-15.40265-87.8857,11.77849,91.50985,15.40265,91.50985,15.40265Z"
     transform="translate(-49.50001 -116.97455)" />
  <path
     id="path36"
     fill="#d0cde1"
     d="M719.61312,426.05157S917.12944,583.70221,880.88791,621.75581,706.92859,648.937,706.92859,648.937l9.06038-45.3019,79.73135-9.06038L755.85465,554.709l-36.24153,3.62415Z"
     transform="translate(-49.50001 -116.97455)" />
  <path
     id="path38"
     fill="#ffb8b8"
     d="M427.86884,688.80263l25.36906,19.93284s18.12077,56.17437,45.30191,39.86568S473.17074,674.306,473.17074,674.306l-30.80529-10.87246Z"
     transform="translate(-49.50001 -116.97455)" />
  <path
     id="path40"
     fill="#d0cde1"
     d="M453.2379,397.05835l-25.30065,7.61381s-175.83982,130.104-183.08812,166.34551S279.27858,627.192,279.27858,627.192l157.65064,74.29513,16.30868-43.48983-74.29513-38.05361s5.43623-10.87245-16.30868-12.68453S337.265,581.89013,337.265,581.89013s43.48983-67.04682,67.04682-52.55021,30.8053,25.36907,30.8053,25.36907Z"
     transform="translate(-49.50001 -116.97455)" />
  <path
     style="fill:#534a6d;fill-opacity:1"
     id="path42"
     fill="#3f3d56"
     d="M814.1,733.45544v6.07a13.34008,13.34008,0,0,1-.91,4.87,13.68227,13.68227,0,0,1-.97,2,13.4373,13.4373,0,0,1-11.55,6.56H354.12a13.43736,13.43736,0,0,1-11.55-6.56,13.68842,13.68842,0,0,1-.97-2,13.34153,13.34153,0,0,1-.91-4.87v-6.07a13.42641,13.42641,0,0,1,13.43-13.43h25.74v-2.83a.55908.55908,0,0,1,.56-.56h13.43a.55908.55908,0,0,1,.56.56v2.83h8.39v-2.83a.55908.55908,0,0,1,.56-.56h13.43a.55908.55908,0,0,1,.56.56v2.83h8.4v-2.83a.55908.55908,0,0,1,.56-.56h13.43a.55908.55908,0,0,1,.56.56v2.83h8.39v-2.83a.55908.55908,0,0,1,.56-.56h13.43a.55908.55908,0,0,1,.56.56v2.83h8.39v-2.83a.55908.55908,0,0,1,.56-.56h13.43a.55908.55908,0,0,1,.56.56v2.83h8.4v-2.83a.55908.55908,0,0,1,.56-.56h13.43a.55908.55908,0,0,1,.56.56v2.83h8.39v-2.83a.55908.55908,0,0,1,.56-.56h105.2a.55908.55908,0,0,1,.56.56v2.83h8.4v-2.83a.55908.55908,0,0,1,.56-.56h13.43a.56552.56552,0,0,1,.56.56v2.83h8.39v-2.83a.55908.55908,0,0,1,.56-.56h13.43a.55908.55908,0,0,1,.56.56v2.83h8.39v-2.83a.55908.55908,0,0,1,.56-.56h13.43a.55908.55908,0,0,1,.56.56v2.83h8.4v-2.83a.55908.55908,0,0,1,.56-.56h13.43a.557.557,0,0,1,.55.56v2.83h8.4v-2.83a.55908.55908,0,0,1,.56-.56H738a.55908.55908,0,0,1,.56.56v2.83h8.39v-2.83a.55908.55908,0,0,1,.56-.56h13.43a.55908.55908,0,0,1,.56.56v2.83h39.17A13.42636,13.42636,0,0,1,814.1,733.45544Z"
     transform="translate(-49.50001 -116.97455)" />
  <rect
     id="rect44"
     fill="#3f3d56"
     height="2"
     width="732.99951"
     y="635.4162"
     x="171.4482" />
  <path
     style="fill:#534a6d;fill-opacity:1"
     fill="#3f3d56"
     id="path46"
     d="M778.14246,477.82126H611.69957v-3.43053H536.22789v3.43053h-167.129a11.25861,11.25861,0,0,0-11.25861,11.25861v227.9115A11.25864,11.25864,0,0,0,369.09889,728.25H778.14246a11.25864,11.25864,0,0,0,11.25861-11.25865V489.07987A11.2586,11.2586,0,0,0,778.14246,477.82126Z"
     transform="translate(-49.50001 -116.97455)" />
  <rect
     id="rect52"
     fill="#3f3d56"
     height="2.26159"
     width="189"
     y="663.55077"
     x="26.02015" />
  <rect
     id="rect54"
     fill="#3f3d56"
     height="2.26159"
     width="189"
     y="663.55077"
     x="851.02015" />
  <path
     style="fill:#534a6d;fill-opacity:1"
     id="path56"
     fill="#3f3d56"
     d="M185.63919,707.69176c-19.911,32.5064-13.06067,72.9409-13.06067,72.9409s39.1325-12.26879,59.04353-44.7752,13.06067-72.9409,13.06067-72.9409S205.55022,675.18536,185.63919,707.69176Z"
     transform="translate(-49.50001 -116.97455)" />
  <path
     style="fill:#ffa0c5;fill-opacity:1"
     id="path58"
     fill="#ff3465"
     d="M171.76594,780.90107l-1.13209-.17932c-.40938-.06491-41.158-6.81651-65.56214-36.01491-24.40427-29.19937-23.817-70.4997-23.809-70.91351l.02429-1.14573,1.13209.17932c.40939.06492,41.158,6.81651,65.56228,36.01588h0c24.40414,29.19841,23.81684,70.49874,23.80885,70.91255Z"
     transform="translate(-49.50001 -116.97455)" />
  <path
     id="path60"
     fill="#3f3d56"
     d="M173.37365,781.92912l-1.09375-.34277c-.39551-.124-39.7207-12.75586-59.59766-45.20605-19.87695-32.45118-13.26269-73.22266-13.19433-73.63086l.1914-1.12989,1.09375.34278c.39551.124,39.72071,12.75586,59.59766,45.207h0c19.87695,32.45019,13.2627,73.22168,13.19434,73.62988Zm-72.081-117.67773c-.90528,6.84277-4.51368,42.33594,13.09472,71.084,17.60938,28.74707,50.86719,41.65821,57.373,43.96192.90527-6.84278,4.51367-42.33594-13.09473-71.083h0C141.05627,679.46623,107.79846,666.5551,101.2926,664.25139Z"
     transform="translate(-49.50001 -116.97455)" />
  <circle
     style="fill:#534a6d;fill-opacity:1"
     id="circle62"
     fill="#3f3d56"
     r="22"
     cy="536.32762"
     cx="124.32091" />
  <polygon
     style="fill:#3f3d56"
     transform="matrix(0.97710757,0,0,1,9.1846938,0)"
     id="polygon64"
     points="273.582,131.051 214,131.051 214,129.051 274.417,129.051 274.711,129.348 401.211,256.848 399.789,258.254 " />
  <polygon
     style="fill:#3f3d56"
     transform="matrix(0.84738381,0,0,1,106.03604,0)"
     id="polygon66"
     points="882,127.051 882,125.051 821.582,125.051 821.289,125.348 694.789,252.848 696.211,254.254 822.417,127.051 " />
  <rect
     style="fill:#ffa0c5;fill-opacity:1"
     id="rect84"
     height="28.955219"
     width="28.955219"
     y="92.573288"
     x="868" />
  <rect
     style="fill:#ffa0c5;fill-opacity:1"
     id="rect86"
     height="28.955219"
     width="28.955219"
     y="136.00612"
     x="868" />
  <circle
     style="fill:#ffa0c5;fill-opacity:1"
     id="circle100"
     r="16"
     cy="111.0509"
     cx="192.99998" />
  <circle
     style="fill:#ffa0c5;fill-opacity:1"
     id="circle102"
     r="16"
     cy="154.0509"
     cx="192.99998" />
  <path
     id="path110"
     fill="#3f3d56"
     d="M1038.5,713.02545h-2v-15a3.00328,3.00328,0,0,1,3-3h5a1.00067,1.00067,0,0,0,1-1v-10a1.00067,1.00067,0,0,0-1-1h-5a3.00328,3.00328,0,0,1-3-3v-5a1.00067,1.00067,0,0,0-1-1h-9a3.00328,3.00328,0,0,1-3-3v-1a1.00067,1.00067,0,0,0-1-1h-36a1.00067,1.00067,0,0,0-1,1v1a3.00328,3.00328,0,0,1-3,3h-9a1.00067,1.00067,0,0,0-1,1v5a3.00328,3.00328,0,0,1-3,3h-5a1.00067,1.00067,0,0,0-1,1v10a1.00067,1.00067,0,0,0,1,1h6a3.00328,3.00328,0,0,1,3,3v15h-2v-15a1.00067,1.00067,0,0,0-1-1h-6a3.00328,3.00328,0,0,1-3-3v-10a3.00328,3.00328,0,0,1,3-3h5a1.00067,1.00067,0,0,0,1-1v-5a3.00328,3.00328,0,0,1,3-3h9a1.00067,1.00067,0,0,0,1-1v-1a3.00328,3.00328,0,0,1,3-3h36a3.00328,3.00328,0,0,1,3,3v1a1.00067,1.00067,0,0,0,1,1h9a3.00328,3.00328,0,0,1,3,3v5a1.00067,1.00067,0,0,0,1,1h5a3.00328,3.00328,0,0,1,3,3v10a3.00328,3.00328,0,0,1-3,3h-5a1.00067,1.00067,0,0,0-1,1Z"
     transform="translate(-49.50001 -116.97455)" />
  <path
     id="path112"
     fill="#3f3d56"
     d="M1035.5,783.02545h-61a3.00328,3.00328,0,0,1-3-3v-43h2v43a1.00067,1.00067,0,0,0,1,1h61a1.00067,1.00067,0,0,0,1-1v-43h2v43A3.00328,3.00328,0,0,1,1035.5,783.02545Z"
     transform="translate(-49.50001 -116.97455)" />
  <rect
     style="fill:#ffa0c5;fill-opacity:1;stroke:#3f3d56;stroke-opacity:1;stroke-width:2;stroke-miterlimit:4;stroke-dasharray:none"
     id="rect114"
     fill="#ff3465"
     rx="2"
     height="24"
     width="79"
     y="597.0509"
     x="916" />
  <path
     id="path118"
     fill="#d0cde1"
     d="M1002.5,660.02545v0a249.6283,249.6283,0,0,1-2.09463-54.11121L1002.5,576.02545h0c-11.54175,22.96553-8.93335,53.1922,0,83.99993Z"
     transform="translate(-49.50001 -116.97455)" />
  <path
     id="path120"
     fill="#d0cde1"
     d="M1011.5,665.02545v0a183.49687,183.49687,0,0,1-1.00779-32.20905L1011.5,615.02545h0c-5.55309,13.67-4.29811,31.662,0,50Z"
     transform="translate(-49.50001 -116.97455)" />
  <g
     id="g3690"
     transform="translate(-1568.4926,515.76762)" />
  <g
     transform="translate(0,-0.73539)"
     aria-label="Rådgivning"
     id="text2912"
     style="font-style:normal;font-weight:normal;font-size:28.8393px;line-height:1.25;font-family:sans-serif;letter-spacing:0px;word-spacing:0px;fill:#000000;fill-opacity:1;stroke:none;stroke-width:0.720982px;stroke-linecap:butt;stroke-linejoin:miter;stroke-opacity:1">
    <path
       d="m 932.33997,144.47354 q 0,-0.78858 -0.32387,-1.35185 -0.32388,-0.56326 -1.11246,-0.88714 -0.54918,-0.22531 -1.28143,-0.26755 -0.73225,-0.0563 -1.70388,-0.0563 h -1.95736 v 5.64675 h 1.66164 q 1.29552,0 2.16858,-0.12673 0.87306,-0.12674 1.46449,-0.57735 0.56327,-0.43653 0.81674,-0.95755 0.26755,-0.53511 0.26755,-1.42225 z m 8.43493,14.54637 h -6.60431 l -5.71716,-7.6886 h -2.49246 v 7.6886 h -5.3792 v -20.96762 h 9.0686 q 1.85878,0 3.19654,0.21122 1.33776,0.21123 2.50654,0.91531 1.18287,0.70409 1.87287,1.83062 0.70408,1.11245 0.70408,2.80226 0,2.32347 -1.08429,3.78797 -1.07021,1.46449 -3.0698,2.43613 z"
       style="font-style:normal;font-variant:normal;font-weight:600;font-stretch:normal;font-family:Montserrat;-inkscape-font-specification:'Montserrat Semi-Bold';stroke-width:0.720982px"
       id="path1193" />
    <path
       d="m 952.4627,154.89398 v -3.29511 q -1.02796,0.0845 -2.22491,0.23938 -1.19694,0.14082 -1.81653,0.33797 -0.76041,0.23938 -1.16878,0.70408 -0.39429,0.45061 -0.39429,1.19694 0,0.49286 0.0845,0.80266 0.0845,0.3098 0.42245,0.59143 0.32388,0.28163 0.77449,0.42245 0.45062,0.12673 1.40817,0.12673 0.76041,0 1.5349,-0.30979 0.78858,-0.3098 1.38001,-0.81674 z m 0,2.45021 q -0.40837,0.3098 -1.01388,0.74633 -0.60551,0.43653 -1.14062,0.69 -0.74633,0.33796 -1.54898,0.49286 -0.80266,0.16898 -1.76021,0.16898 -2.25307,0 -3.77389,-1.39408 -1.52083,-1.39409 -1.52083,-3.56267 0,-1.73205 0.7745,-2.83042 0.77449,-1.09837 2.19674,-1.73204 1.40817,-0.63368 3.49226,-0.90123 2.08408,-0.26755 4.32307,-0.39429 v -0.0845 q 0,-1.3096 -1.07021,-1.80245 -1.0702,-0.50694 -3.15429,-0.50694 -1.25327,0 -2.67552,0.45061 -1.42225,0.43653 -2.04185,0.67592 h -0.46469 v -3.81614 q 0.76041,-0.19714 1.94327,-0.40836 1.19694,-0.21123 3.01348,-0.3098 -1.11245,-0.50694 -1.80245,-1.52082 -0.67593,-1.01388 -0.67593,-2.29532 0,-1.81653 1.29552,-3.02756 1.3096,-1.21102 3.18246,-1.21102 1.88694,0 3.18246,1.2251 1.29551,1.21103 1.29551,3.01348 0,1.36593 -0.74632,2.40797 -0.74633,1.04204 -1.9292,1.49266 2.81634,0.32388 4.22451,1.59123 1.42225,1.25327 1.42225,3.75981 v 10.7584 h -5.02716 z m -0.50694,-18.32027 q 0,-0.87306 -0.54919,-1.47857 -0.5351,-0.60551 -1.36592,-0.60551 -0.83082,0 -1.38001,0.60551 -0.5351,0.59143 -0.5351,1.47857 0,0.88715 0.5351,1.47858 0.53511,0.57735 1.38001,0.57735 0.8449,0 1.38,-0.59143 0.53511,-0.59143 0.53511,-1.4645 z"
       style="font-style:normal;font-variant:normal;font-weight:600;font-stretch:normal;font-family:Montserrat;-inkscape-font-specification:'Montserrat Semi-Bold';stroke-width:0.720982px"
       id="path1195" />
    <path
       d="m 977.52809,159.01991 h -5.0694 v -1.64755 q -1.3096,1.0702 -2.45021,1.57714 -1.14062,0.50694 -2.63328,0.50694 -2.88674,0 -4.61879,-2.2249 -1.73205,-2.22491 -1.73205,-5.9988 0,-2.01368 0.57735,-3.56266 0.59143,-1.56307 1.60531,-2.67552 0.95756,-1.05613 2.32348,-1.63348 1.36592,-0.59143 2.73185,-0.59143 1.42225,0 2.32347,0.3098 0.91531,0.29571 1.87287,0.76041 v -6.73104 h 5.0694 z m -5.0694,-4.36532 v -7.75901 q -0.53511,-0.2253 -1.12654,-0.32387 -0.59143,-0.0986 -1.08429,-0.0986 -1.99959,0 -2.99939,1.25327 -0.9998,1.23919 -0.9998,3.45002 0,2.32347 0.80265,3.3796 0.80266,1.04204 2.57695,1.04204 0.69,0 1.4645,-0.25347 0.77449,-0.26755 1.36592,-0.69 z"
       style="font-style:normal;font-variant:normal;font-weight:600;font-stretch:normal;font-family:Montserrat;-inkscape-font-specification:'Montserrat Semi-Bold';stroke-width:0.720982px"
       id="path1197" />
    <path
       d="m 997.69306,157.20338 q 0,2.2249 -0.63367,3.74572 -0.63368,1.52082 -1.7743,2.37981 -1.14061,0.87306 -2.76001,1.25327 -1.60531,0.39428 -3.63307,0.39428 -1.64756,0 -3.25287,-0.19714 -1.59123,-0.19714 -2.76001,-0.47878 v -3.95695 h 0.6196 q 0.92939,0.36612 2.26715,0.66184 1.33776,0.3098 2.39388,0.3098 1.40817,0 2.28123,-0.26756 0.88715,-0.25347 1.35185,-0.73224 0.43653,-0.45062 0.63367,-1.1547 0.19715,-0.70408 0.19715,-1.6898 v -0.29572 q -0.91531,0.74633 -2.02777,1.18286 -1.11245,0.43654 -2.47837,0.43654 -3.32328,0 -5.12574,-1.9996 -1.80245,-1.9996 -1.80245,-6.08329 0,-1.95735 0.54918,-3.3796 0.54919,-1.42225 1.54899,-2.47838 0.92939,-0.98572 2.28123,-1.5349 1.36593,-0.54919 2.78818,-0.54919 1.28143,0 2.32347,0.3098 1.05613,0.29571 1.91511,0.83082 l 0.18306,-0.70409 h 4.91451 z m -5.0694,-3.16838 v -7.16758 q -0.43654,-0.18306 -1.07021,-0.28163 -0.63368,-0.11266 -1.14062,-0.11266 -1.9996,0 -2.9994,1.1547 -0.9998,1.14062 -0.9998,3.19654 0,2.28124 0.8449,3.18246 0.85899,0.90123 2.53471,0.90123 0.76041,0 1.49266,-0.23939 0.73224,-0.23939 1.33776,-0.63367 z"
       style="font-style:normal;font-variant:normal;font-weight:600;font-stretch:normal;font-family:Montserrat;-inkscape-font-specification:'Montserrat Semi-Bold';stroke-width:0.720982px"
       id="path1199" />
    <path
       d="m 1007.5502,159.01991 h -5.0694 v -15.81373 h 5.0694 z m 0.1409,-18.0668 h -5.3511 v -3.84429 h 5.3511 z"
       style="font-style:normal;font-variant:normal;font-weight:600;font-stretch:normal;font-family:Montserrat;-inkscape-font-specification:'Montserrat Semi-Bold';stroke-width:0.720982px"
       id="path1201" />
    <path
       d="m 1028.2644,143.20618 -6.0974,15.81373 h -5.7453 l -6.0551,-15.81373 h 5.3651 l 3.6612,10.87106 3.619,-10.87106 z"
       style="font-style:normal;font-variant:normal;font-weight:600;font-stretch:normal;font-family:Montserrat;-inkscape-font-specification:'Montserrat Semi-Bold';stroke-width:0.720982px"
       id="path1203" />
    <path
       d="m 1046.979,159.01991 h -5.0976 v -7.84349 q 0,-0.95756 -0.099,-1.90103 -0.099,-0.95756 -0.3379,-1.40817 -0.2817,-0.52102 -0.8309,-0.76041 -0.5351,-0.23939 -1.5067,-0.23939 -0.69,0 -1.4082,0.22531 -0.7041,0.2253 -1.5349,0.71816 v 11.20902 h -5.0694 v -15.81373 h 5.0694 v 1.74613 q 1.3519,-1.05612 2.591,-1.61939 1.2533,-0.56327 2.7741,-0.56327 2.5629,0 3.9992,1.49266 1.4505,1.49266 1.4505,4.46389 z"
       style="font-style:normal;font-variant:normal;font-weight:600;font-stretch:normal;font-family:Montserrat;-inkscape-font-specification:'Montserrat Semi-Bold';stroke-width:0.720982px"
       id="path1205" />
    <path
       d="m 1056.7235,159.01991 h -5.0694 v -15.81373 h 5.0694 z m 0.1408,-18.0668 h -5.3511 v -3.84429 h 5.3511 z"
       style="font-style:normal;font-variant:normal;font-weight:600;font-stretch:normal;font-family:Montserrat;-inkscape-font-specification:'Montserrat Semi-Bold';stroke-width:0.720982px"
       id="path1207" />
    <path
       d="m 1077.3954,159.01991 h -5.0976 v -7.84349 q 0,-0.95756 -0.099,-1.90103 -0.099,-0.95756 -0.3379,-1.40817 -0.2817,-0.52102 -0.8308,-0.76041 -0.5351,-0.23939 -1.5068,-0.23939 -0.69,0 -1.4081,0.22531 -0.7041,0.2253 -1.535,0.71816 v 11.20902 h -5.0694 v -15.81373 h 5.0694 v 1.74613 q 1.3519,-1.05612 2.5911,-1.61939 1.2532,-0.56327 2.7741,-0.56327 2.5628,0 3.9992,1.49266 1.4504,1.49266 1.4504,4.46389 z"
       style="font-style:normal;font-variant:normal;font-weight:600;font-stretch:normal;font-family:Montserrat;-inkscape-font-specification:'Montserrat Semi-Bold';stroke-width:0.720982px"
       id="path1209" />
    <path
       d="m 1097.4477,157.20338 q 0,2.2249 -0.6337,3.74572 -0.6337,1.52082 -1.7743,2.37981 -1.1406,0.87306 -2.76,1.25327 -1.6053,0.39428 -3.6331,0.39428 -1.6475,0 -3.2528,-0.19714 -1.5913,-0.19714 -2.76,-0.47878 v -3.95695 h 0.6196 q 0.9293,0.36612 2.2671,0.66184 1.3378,0.3098 2.3939,0.3098 1.4082,0 2.2812,-0.26756 0.8872,-0.25347 1.3519,-0.73224 0.4365,-0.45062 0.6336,-1.1547 0.1972,-0.70408 0.1972,-1.6898 v -0.29572 q -0.9153,0.74633 -2.0278,1.18286 -1.1124,0.43654 -2.4784,0.43654 -3.3232,0 -5.1257,-1.9996 -1.8024,-1.9996 -1.8024,-6.08329 0,-1.95735 0.5491,-3.3796 0.5492,-1.42225 1.549,-2.47838 0.9294,-0.98572 2.2813,-1.5349 1.3659,-0.54919 2.7881,-0.54919 1.2815,0 2.3235,0.3098 1.0561,0.29571 1.9151,0.83082 l 0.1831,-0.70409 h 4.9145 z m -5.0694,-3.16838 v -7.16758 q -0.4365,-0.18306 -1.0702,-0.28163 -0.6337,-0.11266 -1.1406,-0.11266 -1.9996,0 -2.9994,1.1547 -0.9998,1.14062 -0.9998,3.19654 0,2.28124 0.8449,3.18246 0.8589,0.90123 2.5347,0.90123 0.7604,0 1.4926,-0.23939 0.7323,-0.23939 1.3378,-0.63367 z"
       style="font-style:normal;font-variant:normal;font-weight:600;font-stretch:normal;font-family:Montserrat;-inkscape-font-specification:'Montserrat Semi-Bold';stroke-width:0.720982px"
       id="path1211" />
  </g>
  <g
     aria-label="HR"
     id="text2916"
     style="font-style:normal;font-weight:normal;font-size:28.8393px;line-height:1.25;font-family:sans-serif;letter-spacing:0px;word-spacing:0px;fill:#000000;fill-opacity:1;stroke:none;stroke-width:0.720982px;stroke-linecap:butt;stroke-linejoin:miter;stroke-opacity:1">
    <path
       d="m 939.38082,117.14465 h -5.40737 v -9.23758 h -7.98431 v 9.23758 h -5.40737 V 96.177029 h 5.40737 v 7.674521 h 7.98431 v -7.674521 h 5.40737 z"
       style="font-style:normal;font-variant:normal;font-weight:600;font-stretch:normal;font-family:Montserrat;-inkscape-font-specification:'Montserrat Semi-Bold';stroke-width:0.720982px"
       id="path1214" />
    <path
       d="m 956.50414,102.59828 q 0,-0.78858 -0.32388,-1.35185 -0.32388,-0.56326 -1.11245,-0.88714 -0.54919,-0.22531 -1.28144,-0.26755 -0.73224,-0.0563 -1.70388,-0.0563 h -1.95735 v 5.64675 h 1.66164 q 1.29551,0 2.16858,-0.12673 0.87306,-0.12674 1.46449,-0.57735 0.56327,-0.43653 0.81674,-0.95755 0.26755,-0.53511 0.26755,-1.42225 z m 8.43493,14.54637 h -6.60431 l -5.71716,-7.6886 h -2.49246 v 7.6886 h -5.3792 V 96.177029 h 9.0686 q 1.85878,0 3.19654,0.211225 1.33776,0.211225 2.50654,0.915309 1.18286,0.704084 1.87286,1.830619 0.70409,1.112448 0.70409,2.802258 0,2.32347 -1.08429,3.78797 -1.07021,1.46449 -3.06981,2.43613 z"
       style="font-style:normal;font-variant:normal;font-weight:600;font-stretch:normal;font-family:Montserrat;-inkscape-font-specification:'Montserrat Semi-Bold';stroke-width:0.720982px"
       id="path1216" />
  </g>
  <g
     transform="translate(0,-0.95429)"
     aria-label="Lön"
     id="text2920"
     style="font-style:normal;font-weight:normal;font-size:28.8393px;line-height:1.25;font-family:sans-serif;letter-spacing:0px;word-spacing:0px;fill:#000000;fill-opacity:1;stroke:none;stroke-width:0.720982px;stroke-linecap:butt;stroke-linejoin:miter;stroke-opacity:1">
    <path
       d="M 27.419782,117.60608 H 12.296055 V 96.638454 h 5.407366 v 16.912096 h 9.716361 z"
       style="font-style:normal;font-variant:normal;font-weight:600;font-stretch:normal;font-family:Montserrat;-inkscape-font-specification:'Montserrat Semi-Bold';stroke-width:0.720982px"
       id="path1186" />
    <path
       d="m 46.542705,109.70626 q 0,3.90062 -2.281232,6.15369 -2.267151,2.23899 -6.379002,2.23899 -4.111851,0 -6.393084,-2.23899 -2.267151,-2.25307 -2.267151,-6.15369 0,-3.92879 2.281233,-6.16778 2.295314,-2.23899 6.379002,-2.23899 4.140014,0 6.393084,2.25307 2.26715,2.25307 2.26715,6.1537 z m -6.238185,3.84429 q 0.492859,-0.60551 0.732248,-1.45041 0.25347,-0.85898 0.25347,-2.36572 0,-1.39409 -0.25347,-2.33756 -0.253471,-0.94347 -0.704084,-1.50674 -0.450614,-0.57735 -1.08429,-0.81674 -0.633676,-0.23939 -1.365923,-0.23939 -0.732248,0 -1.309596,0.19715 -0.563268,0.19714 -1.08429,0.78857 -0.464696,0.54919 -0.746329,1.50674 -0.267552,0.95756 -0.267552,2.40797 0,1.29551 0.239388,2.25307 0.239389,0.94347 0.704085,1.52082 0.450613,0.54919 1.070207,0.80266 0.633676,0.25347 1.436332,0.25347 0.690002,0 1.309596,-0.22531 0.633676,-0.23939 1.070208,-0.78858 z m 3.450012,-14.011269 h -4.182259 v -3.844299 h 4.182259 z m -7.561863,0 H 32.01041 v -3.844299 h 4.182259 z"
       style="font-style:normal;font-variant:normal;font-weight:600;font-stretch:normal;font-family:Montserrat;-inkscape-font-specification:'Montserrat Semi-Bold';stroke-width:0.720982px"
       id="path1188" />
    <path
       d="m 66.088081,117.60608 h -5.097569 v -7.8435 q 0,-0.95755 -0.09857,-1.90102 -0.09857,-0.95756 -0.33796,-1.40817 -0.281634,-0.52103 -0.830819,-0.76041 -0.535104,-0.23939 -1.50674,-0.23939 -0.690003,0 -1.408169,0.2253 -0.704084,0.22531 -1.534903,0.71817 v 11.20902 h -5.069405 v -15.81373 h 5.069405 v 1.74613 q 1.351842,-1.05613 2.59103,-1.61939 1.253269,-0.56327 2.774091,-0.56327 2.562866,0 3.999198,1.49266 1.450413,1.49265 1.450413,4.46389 z"
       style="font-style:normal;font-variant:normal;font-weight:600;font-stretch:normal;font-family:Montserrat;-inkscape-font-specification:'Montserrat Semi-Bold';stroke-width:0.720982px"
       id="path1190" />
  </g>
  <g
     aria-label="Bokföring"
     id="text2924"
     style="font-style:normal;font-weight:normal;font-size:28.8393px;line-height:1.25;font-family:sans-serif;letter-spacing:0px;word-spacing:0px;fill:#000000;fill-opacity:1;stroke:none;stroke-width:0.720982px;stroke-linecap:butt;stroke-linejoin:miter;stroke-opacity:1">
    <path
       d="m 30.236118,151.86327 q 0,1.52082 -0.619594,2.71776 -0.605512,1.19695 -1.67572,1.98552 -1.239188,0.92939 -2.731846,1.32368 -1.478577,0.39429 -3.759809,0.39429 h -9.153094 v -20.96763 h 8.139213 q 2.534702,0 3.703482,0.16898 1.182861,0.16898 2.337559,0.74633 1.196943,0.60551 1.774292,1.63348 0.591431,1.01388 0.591431,2.32347 0,1.52082 -0.802656,2.6896 -0.802656,1.1547 -2.267151,1.80246 v 0.11265 q 2.055926,0.40837 3.252869,1.6898 1.211024,1.28144 1.211024,3.37961 z m -6.928187,-8.61799 q 0,-0.52102 -0.267552,-1.04205 -0.25347,-0.52102 -0.915309,-0.77449 -0.591431,-0.2253 -1.478577,-0.23939 -0.873064,-0.0282 -2.464294,-0.0282 h -0.506941 v 4.43573 h 0.844901 q 1.281433,0 2.182661,-0.0423 0.901227,-0.0422 1.42225,-0.28163 0.732247,-0.32388 0.957554,-0.83082 0.225307,-0.52102 0.225307,-1.19694 z m 1.323678,8.5335 q 0,-0.9998 -0.394287,-1.53491 -0.380206,-0.54918 -1.309597,-0.81673 -0.633675,-0.18306 -1.746128,-0.19715 -1.112453,-0.0141 -2.323478,-0.0141 h -1.182861 v 5.22431 h 0.394287 q 2.281233,0 3.26695,-0.0141 0.985718,-0.0141 1.816537,-0.36612 0.844901,-0.35204 1.154698,-0.92939 0.323879,-0.59143 0.323879,-1.35184 z"
       style="font-style:normal;font-variant:normal;font-weight:600;font-stretch:normal;font-family:Montserrat;-inkscape-font-specification:'Montserrat Semi-Bold';stroke-width:0.720982px"
       id="path1167" />
    <path
       d="m 50.147617,150.38469 q 0,3.90063 -2.281232,6.1537 -2.267151,2.23898 -6.379002,2.23898 -4.111851,0 -6.393084,-2.23898 -2.267151,-2.25307 -2.267151,-6.1537 0,-3.92879 2.281233,-6.16778 2.295314,-2.23898 6.379002,-2.23898 4.140014,0 6.393083,2.25307 2.267151,2.25307 2.267151,6.15369 z m -6.238185,3.8443 q 0.492859,-0.60551 0.732248,-1.45041 0.25347,-0.85898 0.25347,-2.36572 0,-1.39409 -0.25347,-2.33756 -0.253471,-0.94348 -0.704085,-1.50674 -0.450613,-0.57735 -1.084289,-0.81674 -0.633676,-0.23939 -1.365923,-0.23939 -0.732248,0 -1.309597,0.19714 -0.563267,0.19715 -1.084289,0.78858 -0.464696,0.54918 -0.746329,1.50674 -0.267552,0.95755 -0.267552,2.40797 0,1.29551 0.239388,2.25306 0.239389,0.94348 0.704084,1.52083 0.450614,0.54918 1.070208,0.80265 0.633676,0.25347 1.436332,0.25347 0.690002,0 1.309596,-0.2253 0.633676,-0.23939 1.070208,-0.78858 z"
       style="font-style:normal;font-variant:normal;font-weight:600;font-stretch:normal;font-family:Montserrat;-inkscape-font-specification:'Montserrat Semi-Bold';stroke-width:0.720982px"
       id="path1169" />
    <path
       d="m 70.59422,158.28452 h -5.900224 l -4.43573,-6.88595 -1.380005,1.67572 v 5.21023 h -5.069406 v -21.9111 h 5.069406 v 13.08188 l 5.463693,-6.98451 h 5.843898 l -5.689,6.81553 z"
       style="font-style:normal;font-variant:normal;font-weight:600;font-stretch:normal;font-family:Montserrat;-inkscape-font-specification:'Montserrat Semi-Bold';stroke-width:0.720982px"
       id="path1171" />
    <path
       d="m 83.436716,140.09098 h -0.380205 q -0.337961,-0.0986 -0.887146,-0.2253 -0.535104,-0.12674 -1.154698,-0.12674 -1.492658,0 -2.027762,0.5351 -0.521023,0.53511 -0.521023,2.07001 v 0.12674 h 3.914708 v 3.43593 h -3.745727 v 12.3778 h -5.069406 v -12.3778 h -2.168579 v -3.43593 h 2.168579 v -0.43654 q 0,-2.90082 1.534903,-4.35124 1.548985,-1.45041 4.675119,-1.45041 1.126534,0 2.041844,0.0845 0.915309,0.0704 1.619393,0.19714 z"
       style="font-style:normal;font-variant:normal;font-weight:600;font-stretch:normal;font-family:Montserrat;-inkscape-font-specification:'Montserrat Semi-Bold';stroke-width:0.720982px"
       id="path1173" />
    <path
       d="m 101.5176,150.38469 q 0,3.90063 -2.281237,6.1537 -2.267151,2.23898 -6.379002,2.23898 -4.111851,0 -6.393084,-2.23898 -2.267151,-2.25307 -2.267151,-6.1537 0,-3.92879 2.281233,-6.16778 2.295314,-2.23898 6.379002,-2.23898 4.140014,0 6.393083,2.25307 2.267156,2.25307 2.267156,6.15369 z m -6.23819,3.8443 q 0.492859,-0.60551 0.732247,-1.45041 0.253471,-0.85898 0.253471,-2.36572 0,-1.39409 -0.253471,-2.33756 -0.25347,-0.94348 -0.704084,-1.50674 -0.450613,-0.57735 -1.084289,-0.81674 -0.633676,-0.23939 -1.365923,-0.23939 -0.732248,0 -1.309597,0.19714 -0.563267,0.19715 -1.084289,0.78858 -0.464696,0.54918 -0.746329,1.50674 -0.267552,0.95755 -0.267552,2.40797 0,1.29551 0.239388,2.25306 0.239389,0.94348 0.704084,1.52083 0.450614,0.54918 1.070208,0.80265 0.633676,0.25347 1.436332,0.25347 0.690002,0 1.309596,-0.2253 0.633676,-0.23939 1.070208,-0.78858 z m 3.450012,-14.01127 h -4.182259 v -3.8443 h 4.182259 z m -7.561863,0 h -4.18226 v -3.8443 h 4.18226 z"
       style="font-style:normal;font-variant:normal;font-weight:600;font-stretch:normal;font-family:Montserrat;-inkscape-font-specification:'Montserrat Semi-Bold';stroke-width:0.720982px"
       id="path1175" />
    <path
       d="m 116.64132,147.3008 h -0.45061 q -0.32388,-0.11265 -1.04204,-0.16898 -0.71817,-0.0563 -1.19695,-0.0563 -1.08429,0 -1.91511,0.14081 -0.83081,0.14082 -1.78837,0.47878 v 10.58943 h -5.0694 v -15.81373 h 5.0694 v 2.32347 q 1.67572,-1.43633 2.91491,-1.90102 1.23919,-0.47878 2.28123,-0.47878 0.26755,0 0.60551,0.0141 0.33796,0.0141 0.59143,0.0422 z"
       style="font-style:normal;font-variant:normal;font-weight:600;font-stretch:normal;font-family:Montserrat;-inkscape-font-specification:'Montserrat Semi-Bold';stroke-width:0.720982px"
       id="path1177" />
    <path
       d="m 124.61155,158.28452 h -5.0694 v -15.81373 h 5.0694 z m 0.14082,-18.0668 h -5.35104 v -3.8443 h 5.35104 z"
       style="font-style:normal;font-variant:normal;font-weight:600;font-stretch:normal;font-family:Montserrat;-inkscape-font-specification:'Montserrat Semi-Bold';stroke-width:0.720982px"
       id="path1179" />
    <path
       d="m 145.28346,158.28452 h -5.09757 v -7.8435 q 0,-0.95756 -0.0986,-1.90103 -0.0986,-0.95755 -0.33796,-1.40817 -0.28163,-0.52102 -0.83082,-0.76041 -0.5351,-0.23939 -1.50674,-0.23939 -0.69,0 -1.40817,0.22531 -0.70408,0.22531 -1.5349,0.71817 v 11.20902 h -5.06941 v -15.81373 h 5.06941 v 1.74612 q 1.35184,-1.05612 2.59103,-1.61939 1.25327,-0.56327 2.77409,-0.56327 2.56287,0 3.9992,1.49266 1.45041,1.49266 1.45041,4.4639 z"
       style="font-style:normal;font-variant:normal;font-weight:600;font-stretch:normal;font-family:Montserrat;-inkscape-font-specification:'Montserrat Semi-Bold';stroke-width:0.720982px"
       id="path1181" />
    <path
       d="m 165.33577,156.46798 q 0,2.2249 -0.63367,3.74573 -0.63368,1.52082 -1.7743,2.3798 -1.14061,0.87306 -2.76001,1.25327 -1.60531,0.39429 -3.63307,0.39429 -1.64756,0 -3.25287,-0.19715 -1.59123,-0.19714 -2.76001,-0.47877 v -3.95696 h 0.6196 q 0.92939,0.36613 2.26715,0.66184 1.33776,0.3098 2.39388,0.3098 1.40817,0 2.28124,-0.26755 0.88714,-0.25347 1.35184,-0.73225 0.43653,-0.45061 0.63367,-1.1547 0.19715,-0.70408 0.19715,-1.6898 v -0.29571 q -0.91531,0.74632 -2.02777,1.18286 -1.11245,0.43653 -2.47837,0.43653 -3.32328,0 -5.12573,-1.9996 -1.80246,-1.9996 -1.80246,-6.08329 0,-1.95735 0.54919,-3.3796 0.54918,-1.42225 1.54898,-2.47838 0.92939,-0.98571 2.28123,-1.5349 1.36593,-0.54919 2.78818,-0.54919 1.28143,0 2.32347,0.3098 1.05613,0.29572 1.91511,0.83082 l 0.18306,-0.70408 h 4.91451 z m -5.0694,-3.16838 v -7.16758 q -0.43654,-0.18306 -1.07021,-0.28163 -0.63368,-0.11265 -1.14062,-0.11265 -1.9996,0 -2.9994,1.15469 -0.9998,1.14062 -0.9998,3.19655 0,2.28123 0.84491,3.18246 0.85898,0.90122 2.5347,0.90122 0.76041,0 1.49266,-0.23938 0.73224,-0.23939 1.33776,-0.63368 z"
       style="font-style:normal;font-variant:normal;font-weight:600;font-stretch:normal;font-family:Montserrat;-inkscape-font-specification:'Montserrat Semi-Bold';stroke-width:0.720982px"
       id="path1183" />
  </g>
  <g
     style="fill:#534a6d;fill-opacity:1"
     id="g897"
     transform="matrix(1.3333333,0,0,1.3333333,375.17534,315.54649)">
    <path
       id="path899"
       style="fill:#534a6d;fill-opacity:1;fill-rule:nonzero;stroke:#ffd9d8;stroke-width:4.8;stroke-linecap:butt;stroke-linejoin:miter;stroke-miterlimit:4;stroke-dasharray:none;stroke-opacity:1"
       d="m 147.051,126.598 c 0,19.519 -15.821,35.343 -35.34,35.343 -19.52,0 -35.344,-15.824 -35.344,-35.343 0,-19.516 15.824,-35.34 35.344,-35.34 19.519,0 35.34,15.824 35.34,35.34" />
  </g>
  <path
     id="path901"
     style="fill:#ffd9d8;fill-opacity:1;fill-rule:nonzero;stroke:none;stroke-width:1.33333"
     d="m 540.194,465.63447 c 4.61467,0 8.27067,1.37067 10.96267,4.11467 2.74533,2.69333 4.11466,6.76133 4.11466,12.19867 v 21.10934 h -10.69199 v -19.46401 c 0,-2.92667 -0.62,-5.09333 -1.84934,-6.516 -1.188,-1.45733 -2.90133,-2.192 -5.14133,-2.192 -2.51467,0 -4.49867,0.82267 -5.96267,2.468 -1.464,1.6 -2.19333,4 -2.19333,7.19867 v 18.50534 h -10.692 v -19.46401 c 0,-5.80133 -2.33333,-8.708 -6.99467,-8.708 -2.464,0 -4.428,0.82267 -5.89066,2.468 -1.464,1.6 -2.19334,4 -2.19334,7.19867 v 18.50534 H 492.97 v -36.87468 h 10.208 v 4.24934 c 1.37467,-1.552 3.04134,-2.74534 5.00534,-3.568 2.01066,-0.82267 4.20266,-1.22934 6.57733,-1.22934 2.60933,0 4.95867,0.52667 7.06267,1.57867 2.104,1.00533 3.792,2.48933 5.07333,4.45333 1.50533,-1.91733 3.40667,-3.40133 5.688,-4.45333 2.33333,-1.052 4.86933,-1.57867 7.60933,-1.57867" />
</svg>
