<?xml version="1.0" encoding="UTF-8" standalone="no"?>
<svg
   xmlns:dc="http://purl.org/dc/elements/1.1/"
   xmlns:cc="http://creativecommons.org/ns#"
   xmlns:rdf="http://www.w3.org/1999/02/22-rdf-syntax-ns#"
   xmlns:svg="http://www.w3.org/2000/svg"
   xmlns="http://www.w3.org/2000/svg"
   id="fb0462f1-4822-46c6-85a1-002b71cfcb82"
   data-name="Layer 1"
   width="1142.2421"
   height="725.73279"
   viewBox="0 0 1142.2421 725.73277"
   version="1.1">
  <metadata
     id="metadata111">
    <rdf:RDF>
      <cc:Work
         rdf:about="">
        <dc:format>image/svg+xml</dc:format>
        <dc:type
           rdf:resource="http://purl.org/dc/dcmitype/StillImage" />
        <dc:title>nakamoto</dc:title>
      </cc:Work>
    </rdf:RDF>
  </metadata>
  <defs
     id="defs109" />
  <title
     id="title2">nakamoto</title>
  <g
     id="g1396"
     transform="translate(161.7483)">
    <g
       id="g3953"
       transform="translate(-1441.7483,44.11984)">
      <g
         id="g4060">
        <rect
           style="fill:#3f3d56"
           id="rect4-0"
           height="107"
           width="2"
           y="116.99986"
           x="313.49414"
           transform="translate(1441.7483,-44.11984)" />
        <rect
           style="fill:#3f3d56"
           id="rect6-2"
           height="94.149406"
           width="2"
           y="255.85045"
           x="313.49414"
           transform="translate(1441.7483,-44.11984)" />
        <rect
           style="fill:#3f3d56"
           id="rect8-4"
           height="2"
           width="155"
           y="364.99985"
           x="310.49414"
           transform="translate(1441.7483,-44.11984)" />
        <rect
           style="fill:#3f3d56"
           id="rect10-8"
           height="85"
           width="2"
           y="391.99985"
           x="244.49413"
           transform="translate(1441.7483,-44.11984)" />
        <rect
           style="fill:#3f3d56"
           id="rect12-3"
           height="2"
           width="235"
           y="491.99985"
           x="262.49414"
           transform="translate(1441.7483,-44.11984)" />
        <path
           style="fill:none;stroke:#3f3d56;stroke-width:2;stroke-miterlimit:10"
           id="path14-9"
           stroke-miterlimit="10"
           transform="translate(1331.9952,-118.17218)"
           d="M 623.24692,551.05234" />
        <path
           style="fill:none;stroke:#3f3d56;stroke-width:2;stroke-miterlimit:10"
           id="path16-0"
           stroke-miterlimit="10"
           transform="translate(1331.9952,-118.17218)"
           d="M 623.24692,469.05234" />
        <rect
           style="fill:#3f3d56"
           id="rect18-5"
           height="101"
           width="2"
           y="48.999859"
           x="691.49414"
           transform="translate(1441.7483,-44.11984)" />
        <rect
           style="fill:#3f3d56"
           id="rect20-2"
           height="2"
           width="147.03418"
           y="165.99986"
           x="529.45996"
           transform="translate(1441.7483,-44.11984)" />
        <rect
           style="fill:#3f3d56"
           id="rect22-2"
           height="135"
           width="2"
           y="181.99989"
           x="512.49402"
           transform="translate(1441.7483,-44.11984)" />
        <path
           style="fill:#3f3d56"
           id="path24-7"
           transform="translate(1331.9952,-118.17218)"
           d="m 424.24721,331.0522 a 17,17 0 1 1 17,-17 17.019,17.019 0 0 1 -17,17 z m 0,-32 a 15,15 0 1 0 15,15 15.01672,15.01672 0 0 0 -15,-15 z" />
        <path
           style="fill:#3f3d56"
           id="path26-3"
           transform="translate(1331.9952,-118.17218)"
           d="m 356.24721,584.0522 a 17,17 0 1 1 17,-17 17.019,17.019 0 0 1 -17,17 z m 0,-32 a 15,15 0 1 0 15,15 15.01672,15.01672 0 0 0 -15,-15 z" />
        <circle
           style="fill:#ffd9d8;fill-opacity:1;stroke:#534a6d;stroke-opacity:1;stroke-width:1.51181102;stroke-miterlimit:4;stroke-dasharray:none"
           id="circle28-7"
           r="16"
           cy="366"
           cx="315.49384"
           transform="translate(1441.7483,-44.11984)" />
        <rect
           style="fill:#3f3d56"
           id="rect30-9"
           height="2"
           width="166"
           y="238.99986"
           x="728.49414"
           transform="translate(1441.7483,-44.11984)" />
        <rect
           style="fill:#3f3d56"
           id="rect32-0"
           height="94.149406"
           width="2"
           y="255.85045"
           x="711.49414"
           transform="translate(1441.7483,-44.11984)" />
        <rect
           style="fill:#3f3d56"
           id="rect34-2"
           height="2"
           width="133"
           y="364.99985"
           x="562.49414"
           transform="translate(1441.7483,-44.11984)" />
        <rect
           style="fill:#3f3d56"
           id="rect36-3"
           height="2"
           width="138"
           y="373.99985"
           x="796.49414"
           transform="translate(1441.7483,-44.11984)" />
        <rect
           style="fill:#3f3d56"
           id="rect38-9"
           height="85"
           width="2"
           y="391.99985"
           x="780.49414"
           transform="translate(1441.7483,-44.11984)" />
        <rect
           style="fill:#3f3d56"
           id="rect40-9"
           height="2"
           width="235"
           y="491.99985"
           x="529.49414"
           transform="translate(1441.7483,-44.11984)" />
        <rect
           style="fill:#3f3d56"
           id="rect42-7"
           height="62"
           width="2"
           y="414.99985"
           x="512.49414"
           transform="translate(1441.7483,-44.11984)" />
        <circle
           style="fill:#ffd9d8;fill-opacity:1;stroke:#534a6d;stroke-opacity:1;stroke-width:1.51181102;stroke-miterlimit:4;stroke-dasharray:none"
           id="circle44-0"
           r="16"
           cy="240"
           cx="712.49384"
           transform="translate(1441.7483,-44.11984)" />
        <path
           style="fill:#3f3d56"
           id="path46-3"
           transform="translate(1331.9952,-118.17218)"
           d="m 802.24721,257.0522 a 17,17 0 1 1 17,-17 17.019,17.019 0 0 1 -17,17 z m 0,-32 a 15,15 0 1 0 15,15 15.01672,15.01672 0 0 0 -15,-15 z" />
        <path
           style="fill:#3f3d56"
           id="path48-9"
           transform="translate(1331.9952,-118.17218)"
           d="m 623.24721,257.0522 a 17,17 0 1 1 17,-17 17.019,17.019 0 0 1 -17,17 z m 0,-32 a 15,15 0 1 0 15,15 15.01672,15.01672 0 0 0 -15,-15 z" />
        <path
           style="fill:#3f3d56"
           id="path50-8"
           transform="translate(1331.9952,-118.17218)"
           d="m 890.24721,467.0522 a 17,17 0 1 1 17,-17 17.019,17.019 0 0 1 -17,17 z m 0,-32 a 15,15 0 1 0 15,15 15.01672,15.01672 0 0 0 -15,-15 z" />
        <circle
           style="fill:#ffd9d8;fill-opacity:1;stroke:#534a6d;stroke-opacity:1;stroke-width:1.51181102;stroke-miterlimit:4;stroke-dasharray:none"
           id="circle52-6"
           r="16"
           cy="493"
           cx="780.49384"
           transform="translate(1441.7483,-44.11984)" />
        <path
           style="fill:#3f3d56"
           id="path54-5"
           transform="translate(1331.9952,-118.17218)"
           d="m 623.24721,584.0522 a 17,17 0 1 1 17,-17 17.019,17.019 0 0 1 -17,17 z m 0,-32 a 15,15 0 1 0 15,15 15.01672,15.01672 0 0 0 -15,-15 z" />
        <path
           style="fill:#3f3d56"
           id="path56-7"
           transform="translate(1331.9952,-118.17218)"
           d="m 821.24721,457.0522 a 17,17 0 1 1 17,-17 17.019,17.019 0 0 1 -17,17 z m 0,-32 a 15,15 0 1 0 15,15 15.01672,15.01672 0 0 0 -15,-15 z" />
        <path
           style="fill:#3f3d56"
           id="path58-6"
           transform="translate(1331.9952,-118.17218)"
           d="m 356.24692,416.05234 a 20,20 0 1 0 20,20 20.0588,20.0588 0 0 0 -20,-20 z m 0,6 a 6,6 0 1 1 -6,6 6.02013,6.02013 0 0 1 6,-6 z m 0,28.88462 a 14.56987,14.56987 0 0 1 -12,-6.40385 c 0.0962,-4 8,-6.20192 12,-6.20192 4,0 11.90385,2.20192 12,6.20192 a 14.59411,14.59411 0 0 1 -12,6.40385 z" />
        <path
           style="fill:#3f3d56"
           id="path60-2"
           transform="translate(1331.9952,-118.17218)"
           d="m 425.24692,143.05234 a 20,20 0 1 0 20,20 20.0588,20.0588 0 0 0 -20,-20 z m 0,6 a 6,6 0 1 1 -6,6 6.02013,6.02013 0 0 1 6,-6 z m 0,28.88462 a 14.56987,14.56987 0 0 1 -12,-6.40385 c 0.0962,-4 8,-6.20192 12,-6.20192 4,0 11.90385,2.20192 12,6.20192 a 14.59411,14.59411 0 0 1 -12,6.40385 z" />
        <path
           style="fill:#3f3d56"
           id="path62-7"
           transform="translate(1331.9952,-118.17218)"
           d="m 802.24692,74.05234 a 20,20 0 1 0 20,20 20.0588,20.0588 0 0 0 -20,-20 z m 0,6 a 6,6 0 1 1 -6,6 6.02013,6.02013 0 0 1 6,-6 z m 0,28.88462 a 14.56987,14.56987 0 0 1 -12,-6.40385 c 0.0962,-4 8,-6.20192 12,-6.20192 4,0 11.90385,2.20192 12,6.20192 a 14.59411,14.59411 0 0 1 -12,6.40385 z" />
        <path
           style="fill:#3f3d56"
           id="path64-0"
           transform="translate(1331.9952,-118.17218)"
           d="m 1032.2469,293.05234 a 20,20 0 1 0 20,20 20.0588,20.0588 0 0 0 -20,-20 z m 0,6 a 6,6 0 1 1 -6,6 6.02013,6.02013 0 0 1 6,-6 z m 0,28.88462 a 14.56987,14.56987 0 0 1 -12,-6.40385 c 0.096,-4 8,-6.20192 12,-6.20192 4,0 11.9039,2.20192 12,6.20192 a 14.59411,14.59411 0 0 1 -12,6.40385 z" />
        <path
           style="fill:#3f3d56"
           id="path66-3"
           transform="translate(1331.9952,-118.17218)"
           d="m 1070.2469,428.05234 a 20,20 0 1 0 20,20 20.0588,20.0588 0 0 0 -20,-20 z m 0,6 a 6,6 0 1 1 -6,6 6.02013,6.02013 0 0 1 6,-6 z m 0,28.88462 a 14.56987,14.56987 0 0 1 -12,-6.40385 c 0.096,-4 8,-6.20192 12,-6.20192 4,0 11.9039,2.20192 12,6.20192 a 14.59411,14.59411 0 0 1 -12,6.40385 z" />
        <path
           style="fill:#ff3465"
           id="path68-9"
           transform="translate(1331.9952,-118.17218)"
           d="m 624.52486,427.71889 -2.049,8.215 c 2.323,0.579 9.483,2.941 10.643,-1.708 1.209,-4.847 -6.271,-5.928 -8.594,-6.507 z" />
        <path
           style="fill:#ff3465"
           id="path70-9"
           transform="translate(1331.9952,-118.17218)"
           d="m 621.44286,440.07989 -2.26,9.058 c 2.789,0.693 11.392,3.455 12.664,-1.655 1.329,-5.32799 -7.615,-6.707 -10.404,-7.403 z" />
        <path
           transform="translate(1331.9952,-118.17218)"
           style="fill:#ffd9d8;fill-opacity:1;stroke:#534a6d;stroke-opacity:1;stroke-width:5.66929134;stroke-miterlimit:4;stroke-dasharray:none"
           id="path72-9"
           d="m 633.78686,403.26389 c -14.71378,-3.66869 -30.18883,1.88719 -39.20871,14.07674 -9.01986,12.18954 -9.80813,28.61209 -1.99836,41.61055 7.80977,12.99846 22.6797,20.0132 37.67712,17.7726 14.99744,-2.2406 27.16869,-13.29526 30.83795,-28.00889 5.01388,-20.09241 -7.21386,-40.44406 -27.308,-45.451 z" />
        <g
           style="fill:#534a6d;fill-opacity:1"
           transform="matrix(2.9827353,0,0,2.9827353,800.6475,-176.21574)"
           id="layer1">
          <path
             id="path2180"
             style="font-style:normal;font-variant:normal;font-weight:bold;font-stretch:normal;font-size:50.28952407999999963px;line-height:1.25;font-family:Montserrat;-inkscape-font-specification:Montserrat;letter-spacing:-3.51415085999999999px;word-spacing:0px;fill:#534a6d;fill-opacity:1;stroke:none;stroke-width:0.04140125000000000px;stroke-linecap:butt;stroke-linejoin:miter;stroke-opacity:1"
             d="m 391.47049,162.33456 q 1.67261,0 2.64969,0.99363 0.99362,0.97707 0.99362,2.94777 v 5.10063 h -2.58344 v -4.70317 q 0,-1.05988 -0.44712,-1.57325 -0.43058,-0.52994 -1.24204,-0.52994 -0.91083,0 -1.44077,0.59617 -0.52994,0.57963 -0.52994,1.73886 v 4.47133 h -2.58344 v -4.70317 q 0,-2.10319 -1.68916,-2.10319 -0.89427,0 -1.42421,0.59617 -0.52993,0.57963 -0.52993,1.73886 v 4.47133 h -2.58344 v -8.90954 h 2.46751 v 1.02675 q 0.49682,-0.56306 1.20892,-0.86115 0.72866,-0.29809 1.58981,-0.29809 0.94395,0 1.70573,0.38089 0.76178,0.36433 1.22548,1.07643 0.5465,-0.69554 1.37452,-1.07643 0.84458,-0.38089 1.83821,-0.38089 z" />
        </g>
        <path
           style="fill:#2f2e41"
           d="m 1390.8887,606.56032 -1.7774,-0.918 c 23.082,-44.624 10.7393,-102.5752 -3.6787,-143.332 a 439.29061,439.29061 0 0 0 -37.2778,-78.6748 l 1.6904,-1.06836 a 441.53687,441.53687 0 0 1 37.4722,79.0752 c 14.5508,41.12988 26.9804,99.65918 3.5713,144.91796 z"
           id="path3783" />
        <rect
           style="fill:#2f2e41;stroke-width:0.99999774"
           x="-195.77698"
           y="1453.9005"
           width="72.180161"
           height="1.9993554"
           transform="rotate(-79.644778)"
           id="rect3785" />
        <rect
           style="fill:#2f2e41"
           x="663.53174"
           y="1225.016"
           width="2.00072"
           height="98.35141"
           transform="rotate(-42.93968)"
           id="rect3787" />
        <rect
           style="fill:#2f2e41"
           x="363.43594"
           y="1474.886"
           width="58.008621"
           height="2.0003099"
           transform="rotate(-54.13715)"
           id="rect3789" />
        <circle
           style="fill:#3f3d56"
           cx="1414"
           cy="354.10135"
           r="10"
           id="circle3791" />
        <circle
           style="fill:#3f3d56"
           cx="1305"
           cy="431.10135"
           r="10"
           id="circle3793" />
        <circle
           style="fill:#3f3d56"
           cx="1349"
           cy="441.10135"
           r="10"
           id="circle3795" />
        <circle
           style="fill:#3f3d56"
           cx="1329"
           cy="480.10132"
           r="10"
           id="circle3797" />
        <circle
           style="fill:#3f3d56"
           cx="1454"
           cy="505.10132"
           r="10"
           id="circle3799" />
        <circle
           style="fill:#3f3d56"
           cx="1421"
           cy="516.10132"
           r="10"
           id="circle3801" />
        <circle
           style="fill:#3f3d56"
           cx="1444"
           cy="548.10132"
           r="10"
           id="circle3803" />
        <circle
           style="fill:#ffa0c5;fill-opacity:1"
           cx="1339"
           cy="366.10135"
           r="10"
           id="circle3805" />
        <path
           style="fill:#534a6d;fill-opacity:1"
           d="m 1792,617.10134 c 21.2135,22.74121 -1.8229,102.24878 -256,43 -137.6935,-32.09644 -256,-31.402 -256,-43 0,-11.598 114.6151,1 256,1 141.3849,0 248.0889,-9.48087 256,-1 z"
           id="path3807" />
        <path
           style="opacity:0.1;fill:#534a6d;fill-opacity:1"
           d="m 1792,617.10134 c 21.2135,22.74121 -1.8229,102.24878 -256,43 -137.6935,-32.09644 -256,-31.402 -256,-43 0,-11.598 114.6151,1 256,1 141.3849,0 248.0889,-9.48087 256,-1 z"
           id="path3809" />
        <path
           style="fill:#534a6d;fill-opacity:1"
           d="m 1792,617.10134 c 21.2135,22.74121 -1.8229,80.24878 -256,21 -137.6935,-32.09644 -256,-9.402 -256,-21 0,-11.598 114.6151,-21 256,-21 141.3849,0 248.0889,12.51913 256,21 z"
           id="path3811" />
        <path
           style="fill:#2f2e41"
           d="m 1525.7711,109.10134 h 11.5029 a 27.61206,27.61206 0 0 1 27.6121,27.61206 v 39.115 h -66.727 v -39.115 a 27.61206,27.61206 0 0 1 27.6121,-27.61206 z"
           id="path3813" />
        <path
           style="fill:#a0616a"
           d="m 1519.32,162.9294 c 0,0 2.7977,22.38159 -3.4971,23.78044 -6.2948,1.39885 -9.0925,9.79194 -9.0925,9.79194 l 20.9827,13.28907 21.6821,-4.19655 -2.0982,-16.08677 c 0,0 -5.5954,-16.08676 -2.7977,-26.57813 2.7976,-10.49137 -25.1793,0 -25.1793,0 z"
           id="path3815" />
        <path
           style="opacity:0.1"
           d="m 1519.32,162.9294 c 0,0 2.7977,22.38159 -3.4971,23.78044 -6.2948,1.39885 -9.0925,9.79194 -9.0925,9.79194 l 20.9827,13.28907 21.6821,-4.19655 -2.0982,-16.08677 c 0,0 -5.5954,-16.08676 -2.7977,-26.57813 2.7976,-10.49137 -25.1793,0 -25.1793,0 z"
           id="path3817" />
        <path
           style="fill:#a0616a"
           d="m 1491.3431,422.41593 5.5954,36.37008 c 0,0 -1.3989,37.0695 8.3931,69.94246 l 9.7919,32.873 9.7919,-11.19079 2.7977,-44.76321 c 0,0 0.6994,-16.08677 -2.0983,-28.67641 l 2.0983,-58.75167 z"
           id="path3819" />
        <path
           style="fill:#a0616a"
           d="m 1543.1004,416.12111 4.896,63.64763 c 0,0 -2.0982,67.84419 -2.7977,69.94247 -0.6994,2.09828 13.9885,4.896 13.9885,4.896 0,0 22.3816,-53.15627 15.3874,-95.12175 0,0 -4.1966,-35.67065 1.3988,-44.76317 5.5954,-9.09252 -32.873,1.39882 -32.873,1.39882 z"
           id="path3821" />
        <circle
           style="fill:#a0616a"
           cx="1531.2102"
           cy="149.64034"
           r="24.47986"
           id="circle3823" />
        <path
           style="fill:#2f2e41"
           d="m 1511.6263,192.30523 c 0,0 2.7977,10.49137 16.0868,9.79195 13.2891,-0.69942 19.5839,-12.58965 19.5839,-12.58965 0,0 16.0868,8.3931 23.7804,7.69367 l -2.0982,34.27181 c 0,0 -13.2891,36.37008 -10.4914,44.76317 2.7977,8.39309 59.4511,96.5206 52.4568,130.79241 0,0 6.9943,9.79194 -19.5839,11.89021 -26.5781,2.09827 -25.8787,-2.79769 -47.5608,6.99425 -21.6822,9.79194 -51.7574,4.19655 -58.7517,2.7977 -6.9942,-1.39885 -31.4741,-5.5954 -31.4741,-5.5954 0,0 5.5954,-103.51488 37.769,-138.48607 l -0.6995,-62.94821 -2.7977,-23.78044 c 0,0 22.5675,-11.19079 23.174,-8.3931 z"
           id="path3825" />
        <path
           style="fill:#a0616a"
           d="m 1615.1412,239.16668 c 0,0 35.6706,22.38159 21.6821,31.47411 -13.9884,9.09252 -63.9308,32.00652 -63.9308,32.00652 0,0 -38.1851,-18.018 -28.3932,-25.01228 9.7919,-6.99428 26.5781,12.58965 26.5781,12.58965 l 43.3644,-25.87871 -11.1908,-12.58965 z"
           id="path3827" />
        <path
           style="fill:#a0616a"
           d="m 1469.6609,258.05115 v 102.116 c 0,0 -3.4972,39.16778 9.7919,36.37008 13.2891,-2.7977 2.7977,-37.76893 2.7977,-37.76893 l 4.1966,-60.15053 v -33.57238 z"
           id="path3829" />
        <path
           style="fill:#2f2e41"
           d="m 1527.0137,533.62447 c 0,0 -6.2948,13.28907 -19.5839,5.5954 0,0 3.4971,11.89021 3.4971,14.68791 0,2.7977 3.4971,17.48562 4.896,18.88447 1.3989,1.39885 0,32.17353 6.9943,33.57238 6.9942,1.39885 13.289,-16.08677 13.289,-22.38159 0,-6.29482 -2.0983,-26.57813 -2.0983,-26.57813 0,0 1.3989,-13.28907 -6.2948,-17.48562 z"
           id="path3831" />
        <path
           style="fill:#2f2e41"
           d="m 1563.3838,549.01178 -19.5839,-2.7977 -4.1966,16.78619 c 0,0 -11.1908,30.07526 -11.8902,34.9712 -0.6995,4.89594 -13.2891,25.17929 -2.0983,25.17929 11.1908,0 22.3816,0.69942 24.4799,-5.5954 2.0982,-6.29482 6.2948,-27.977 9.7919,-35.67065 3.4971,-7.69365 -1.3988,-15.38734 -1.3988,-15.38734 z"
           id="path3833" />
        <path
           style="fill:#2f2e41"
           d="m 1564.7826,199.9989 6.2948,-2.7977 c 0,0 6.2949,0 16.0868,11.1908 9.7919,11.1908 35.6707,33.57238 35.6707,33.57238 0,0 -17.4857,17.48561 -21.6822,16.08677 -4.1965,-1.39884 -36.3701,-32.17354 -36.3701,-32.17354 z"
           id="path3835" />
        <path
           style="fill:#2f2e41"
           d="m 1491.3431,197.90063 h -3.4972 c 0,0 -14.6879,1.39885 -16.7861,19.58389 -2.0983,18.18504 -5.5954,39.8672 -6.9943,41.96547 -1.3988,2.09827 18.185,11.1908 21.6822,11.1908 3.4971,0 9.0925,-54.55512 9.0925,-54.55512 z"
           id="path3837" />
        <polygon
           transform="translate(1280,-50)"
           style="fill:#2f2e41"
           points="228.086,170.976 275.124,170.976 269.403,188.506 235.713,188.506 "
           id="polygon3839" />
        <ellipse
           style="fill:#a0616a"
           cx="1406.1"
           cy="560.48419"
           rx="1.69645"
           ry="4.52387"
           transform="rotate(-16.16012)"
           id="ellipse3841" />
        <ellipse
           style="fill:#a0616a"
           cx="290.3349"
           cy="1535.0916"
           rx="4.52387"
           ry="1.69645"
           transform="rotate(-73.83988)"
           id="ellipse3843" />
        <rect
           y="69.717644"
           x="832.50092"
           height="129.5392"
           width="131.50192"
           id="rect910"
           style="opacity:1;fill:#534a6d;stroke:#000000;stroke-width:0.3288189;stroke-linejoin:round;stroke-miterlimit:4;stroke-dasharray:none;stroke-opacity:1" />
        <rect
           y="250.28745"
           x="836.42639"
           height="143.27821"
           width="131.50192"
           id="rect912"
           style="opacity:1;fill:#ffd9d8;stroke:none;stroke-width:0.33;stroke-linejoin:round;fill-opacity:1" />
      </g>
    </g>
  </g>
</svg>
