<?xml version="1.0" encoding="UTF-8" standalone="no"?>
<svg
   xmlns:dc="http://purl.org/dc/elements/1.1/"
   xmlns:cc="http://creativecommons.org/ns#"
   xmlns:rdf="http://www.w3.org/1999/02/22-rdf-syntax-ns#"
   xmlns:svg="http://www.w3.org/2000/svg"
   xmlns="http://www.w3.org/2000/svg"
   viewBox="0 0 100.64533 100.644"
   height="100.644"
   width="100.64533"
   xml:space="preserve"
   id="svg833"
   version="1.1"><metadata
     id="metadata839"><rdf:RDF><cc:Work
         rdf:about=""><dc:format>image/svg+xml</dc:format><dc:type
           rdf:resource="http://purl.org/dc/dcmitype/StillImage" /><dc:title></dc:title></cc:Work></rdf:RDF></metadata><defs
     id="defs837" /><g
     transform="matrix(1.3333333,0,0,1.3333333,-98.622664,-118.47733)"
     id="g841"><g
       id="g843"><path
         id="path845"
         style="fill:#171717;fill-opacity:1;fill-rule:nonzero;stroke:none"
         d="m 94.859,177.141 -3.609,6.234 -3.656,-6.234 h -0.719 v 8.406 h 0.844 v -6.688 l 3.297,5.625 h 0.422 l 3.296,-5.656 v 6.719 h 0.86 v -8.406 z" /><path
         id="path847"
         style="fill:#171717;fill-opacity:1;fill-rule:nonzero;stroke:none"
         d="m 100.113,184.781 v -3.125 h 4.344 v -0.75 h -4.344 v -2.984 h 4.875 v -0.781 h -5.75 v 8.406 h 5.938 v -0.766 z" /><path
         id="path849"
         style="fill:#171717;fill-opacity:1;fill-rule:nonzero;stroke:none"
         d="m 108.164,185.547 h 5.578 v -0.766 h -4.703 v -7.64 h -0.875 z" /><path
         id="path851"
         style="fill:#171717;fill-opacity:1;fill-rule:nonzero;stroke:none"
         d="m 121.414,181.219 c 0.766,-0.313 1.281,-0.953 1.281,-1.907 0,-1.374 -1.078,-2.171 -2.953,-2.171 h -3.609 v 8.406 h 3.859 c 2.094,0 3.156,-0.813 3.156,-2.25 0,-1.141 -0.656,-1.844 -1.734,-2.078 z m -1.719,-3.344 c 1.344,0 2.125,0.516 2.125,1.531 0,1 -0.781,1.516 -2.125,1.516 h -2.687 v -3.047 z m 0.282,6.937 h -2.969 v -3.156 h 2.969 c 1.484,0 2.281,0.485 2.281,1.578 0,1.094 -0.797,1.578 -2.281,1.578 z" /><path
         id="path853"
         style="fill:#171717;fill-opacity:1;fill-rule:nonzero;stroke:none"
         d="m 126.082,177.141 h 0.875 v 8.406 h -0.875 z" /><path
         id="path855"
         style="fill:#171717;fill-opacity:1;fill-rule:nonzero;stroke:none"
         d="m 131.48,184.781 v -3.125 h 4.344 v -0.75 h -4.344 v -2.984 h 4.875 v -0.781 h -5.75 v 8.406 h 5.938 v -0.766 z" /><path
         id="path857"
         style="fill:#171717;fill-opacity:1;fill-rule:nonzero;stroke:none"
         d="m 73.133,197.547 h 2 c 1.562,0 2.625,-1.016 2.625,-2.453 0,-1.438 -1.063,-2.453 -2.625,-2.453 h -2 z m 0.515,-0.453 v -4 h 1.454 c 1.296,0 2.14,0.828 2.14,2 0,1.172 -0.844,2 -2.14,2 z" /><path
         id="path859"
         style="fill:#171717;fill-opacity:1;fill-rule:nonzero;stroke:none"
         d="m 79.441,192.641 h 0.516 v 4.906 h -0.516 z" /><path
         id="path861"
         style="fill:#171717;fill-opacity:1;fill-rule:nonzero;stroke:none"
         d="m 85.656,192.641 v 3.984 L 82.5,192.641 h -0.422 v 4.906 h 0.516 v -3.969 l 3.156,3.969 h 0.422 v -4.906 z" /><path
         id="path863"
         style="fill:#171717;fill-opacity:1;fill-rule:nonzero;stroke:none"
         d="m 91.172,197.094 v -1.813 h 2.531 v -0.437 h -2.531 v -1.75 h 2.844 v -0.453 h -3.36 v 4.906 h 3.469 v -0.453 z" /><path
         id="path865"
         style="fill:#171717;fill-opacity:1;fill-rule:nonzero;stroke:none"
         d="m 99.379,197.547 h 0.625 l -2.266,-2.688 2.11,-2.218 h -0.594 l -2.875,2.968 v -2.968 h -0.516 v 4.906 h 0.516 v -1.281 l 1,-1.016 z" /><path
         id="path867"
         style="fill:#171717;fill-opacity:1;fill-rule:nonzero;stroke:none"
         d="m 103.332,197.594 c 1.469,0 2.578,-1.063 2.578,-2.5 0,-1.438 -1.109,-2.485 -2.578,-2.485 -1.484,0 -2.578,1.063 -2.578,2.485 0,1.437 1.094,2.5 2.578,2.5 z m 0,-0.469 c -1.187,0 -2.062,-0.859 -2.062,-2.031 0,-1.172 0.875,-2.032 2.062,-2.032 1.172,0 2.047,0.86 2.047,2.032 0,1.172 -0.875,2.031 -2.047,2.031 z" /><path
         id="path869"
         style="fill:#171717;fill-opacity:1;fill-rule:nonzero;stroke:none"
         d="m 111.168,192.641 v 3.984 l -3.156,-3.984 h -0.422 v 4.906 h 0.515 v -3.969 l 3.157,3.969 h 0.422 v -4.906 z" /><path
         id="path871"
         style="fill:#171717;fill-opacity:1;fill-rule:nonzero;stroke:none"
         d="m 115.945,197.594 c 1.469,0 2.578,-1.063 2.578,-2.5 0,-1.438 -1.109,-2.485 -2.578,-2.485 -1.484,0 -2.578,1.063 -2.578,2.485 0,1.437 1.094,2.5 2.578,2.5 z m 0,-0.469 c -1.187,0 -2.062,-0.859 -2.062,-2.031 0,-1.172 0.875,-2.032 2.062,-2.032 1.172,0 2.047,0.86 2.047,2.032 0,1.172 -0.875,2.031 -2.047,2.031 z" /><path
         id="path873"
         style="fill:#171717;fill-opacity:1;fill-rule:nonzero;stroke:none"
         d="m 124.859,192.641 -2.093,3.64 -2.141,-3.64 h -0.422 v 4.906 h 0.5 v -3.906 l 1.922,3.281 h 0.25 l 1.922,-3.297 v 3.922 h 0.5 v -4.906 z" /><path
         id="path875"
         style="fill:#171717;fill-opacity:1;fill-rule:nonzero;stroke:none"
         d="m 127.414,192.641 h 0.516 v 4.906 h -0.516 z" /><path
         id="path877"
         style="fill:#171717;fill-opacity:1;fill-rule:nonzero;stroke:none"
         d="m 133.145,195.016 c 0.437,-0.172 0.75,-0.547 0.75,-1.11 0,-0.797 -0.641,-1.265 -1.735,-1.265 h -2.109 v 4.906 h 2.25 c 1.234,0 1.844,-0.469 1.844,-1.313 0,-0.656 -0.375,-1.078 -1,-1.218 z m -1.016,-1.938 c 0.781,0 1.234,0.297 1.234,0.891 0,0.578 -0.453,0.89 -1.234,0.89 h -1.563 v -1.781 z m 0.172,4.047 h -1.735 v -1.844 h 1.735 c 0.859,0 1.328,0.281 1.328,0.922 0,0.641 -0.469,0.922 -1.328,0.922 z" /><path
         id="path879"
         style="fill:#171717;fill-opacity:1;fill-rule:nonzero;stroke:none"
         d="m 139.391,192.641 h -0.516 l -1.687,2.75 -1.672,-2.75 h -0.563 l 1.969,3.218 v 1.688 h 0.516 v -1.688 z" /><path
         id="path881"
         style="fill:#171717;fill-opacity:1;fill-rule:nonzero;stroke:none"
         d="m 144.535,197.547 -1.203,-1.688 c 0.719,-0.218 1.125,-0.765 1.125,-1.531 0,-1.047 -0.766,-1.687 -2.016,-1.687 h -1.828 v 4.906 h 0.516 V 196 h 1.312 c 0.141,0 0.266,-0.016 0.407,-0.031 l 1.109,1.578 z m -2.094,-2 h -1.312 v -2.453 h 1.312 c 0.969,0 1.485,0.453 1.485,1.234 0,0.766 -0.516,1.219 -1.485,1.219 z" /><path
         id="path883"
         style="fill:#171717;fill-opacity:1;fill-rule:nonzero;stroke:none"
         d="m 147.902,192.156 c 0.422,0 0.735,-0.312 0.735,-0.703 0,-0.406 -0.313,-0.734 -0.735,-0.734 -0.406,0 -0.718,0.328 -0.718,0.734 0,0.391 0.312,0.703 0.718,0.703 z m 0,-1.203 c 0.282,0 0.485,0.219 0.485,0.5 0,0.266 -0.203,0.469 -0.485,0.469 -0.281,0 -0.468,-0.203 -0.468,-0.469 0,-0.281 0.203,-0.5 0.468,-0.5 z m 1.953,6.594 h 0.547 l -2.234,-4.906 h -0.516 l -2.234,4.906 h 0.531 l 0.594,-1.313 h 2.734 z m -3.125,-1.735 1.172,-2.624 1.188,2.624 z" /><g
         transform="scale(1,-1)"
         id="g885"><path
           id="path887"
           style="fill:none;stroke:#0a1e61;stroke-width:0.5;stroke-linecap:butt;stroke-linejoin:miter;stroke-miterlimit:10;stroke-dasharray:none;stroke-opacity:1"
           d="m 83.031,-188.93 h 56.696" /></g><g
         transform="scale(1,-1)"
         id="g889"><path
           id="path891"
           style="fill:none;stroke:#ffffff;stroke-width:1.25;stroke-linecap:butt;stroke-linejoin:miter;stroke-miterlimit:10;stroke-dasharray:none;stroke-opacity:1"
           d="M 27,-33 H 0 m 194.906,0 h 27 M 27,-273.945 H 0 m 194.906,0 h 27 M 33,-27 V 0 m 0,-279.945 v -27 M 188.906,-27 V 0 m 0,-279.945 v -27" /></g><g
         transform="scale(1,-1)"
         id="g893"><path
           id="path895"
           style="fill:none;stroke:#000000;stroke-width:0.25;stroke-linecap:butt;stroke-linejoin:miter;stroke-miterlimit:10;stroke-dasharray:none;stroke-opacity:1"
           d="M 27,-33 H 0 m 194.906,0 h 27 M 27,-273.945 H 0 m 194.906,0 h 27 M 33,-27 V 0 m 0,-279.945 v -27 M 188.906,-27 V 0 m 0,-279.945 v -27" /></g><g
         id="g897"><path
           id="path899"
           style="fill:#ffd9d8;fill-opacity:1;fill-rule:nonzero;stroke:#534a6d;stroke-width:4.8;stroke-linecap:butt;stroke-linejoin:miter;stroke-miterlimit:4;stroke-dasharray:none;stroke-opacity:1"
           d="m 147.051,126.598 c 0,19.519 -15.821,35.343 -35.34,35.343 -19.52,0 -35.344,-15.824 -35.344,-35.343 0,-19.516 15.824,-35.34 35.344,-35.34 19.519,0 35.34,15.824 35.34,35.34" /></g><path
         id="path901"
         style="fill:#534a6d;fill-opacity:1;fill-rule:nonzero;stroke:none"
         d="m 123.766,112.566 c 3.461,0 6.203,1.028 8.222,3.086 2.059,2.02 3.086,5.071 3.086,9.149 v 15.832 h -8.019 v -14.598 c 0,-2.195 -0.465,-3.82 -1.387,-4.887 -0.891,-1.093 -2.176,-1.644 -3.856,-1.644 -1.886,0 -3.374,0.617 -4.472,1.851 -1.098,1.2 -1.645,3 -1.645,5.399 v 13.879 h -8.019 v -14.598 c 0,-4.351 -1.75,-6.531 -5.246,-6.531 -1.848,0 -3.321,0.617 -4.418,1.851 -1.098,1.2 -1.645,3 -1.645,5.399 v 13.879 h -8.019 v -27.656 h 7.656 v 3.187 c 1.031,-1.164 2.281,-2.059 3.754,-2.676 1.508,-0.617 3.152,-0.922 4.933,-0.922 1.957,0 3.719,0.395 5.297,1.184 1.578,0.754 2.844,1.867 3.805,3.34 1.129,-1.438 2.555,-2.551 4.266,-3.34 1.75,-0.789 3.652,-1.184 5.707,-1.184" /></g></g></svg>
