<?xml version="1.0" encoding="UTF-8" standalone="no"?>
<svg
   xmlns:dc="http://purl.org/dc/elements/1.1/"
   xmlns:cc="http://creativecommons.org/ns#"
   xmlns:rdf="http://www.w3.org/1999/02/22-rdf-syntax-ns#"
   xmlns:svg="http://www.w3.org/2000/svg"
   xmlns="http://www.w3.org/2000/svg"
   viewBox="0 0 100.64533 100.644"
   height="100.644"
   width="100.64533"
   xml:space="preserve"
   id="svg833"
   version="1.1"><metadata
     id="metadata839"><rdf:RDF><cc:Work
         rdf:about=""><dc:format>image/svg+xml</dc:format><dc:type
           rdf:resource="http://purl.org/dc/dcmitype/StillImage" /><dc:title></dc:title></cc:Work></rdf:RDF></metadata><defs
     id="defs837" /><g
     transform="matrix(1.3333333,0,0,1.3333333,-98.622664,-118.47733)"
     id="g841"><g
       id="g843"><g
         transform="scale(1,-1)"
         id="g889"><path
           id="path891"
           style="fill:none;stroke:#ffffff;stroke-width:1.25;stroke-linecap:butt;stroke-linejoin:miter;stroke-miterlimit:10;stroke-dasharray:none;stroke-opacity:1"
           d="M 27,-33 H 0 m 194.906,0 h 27 M 27,-273.945 H 0 m 194.906,0 h 27 M 33,-27 V 0 m 0,-279.945 v -27 M 188.906,-27 V 0 m 0,-279.945 v -27" /></g><g
         transform="scale(1,-1)"
         id="g893"><path
           id="path895"
           style="fill:none;stroke:#000000;stroke-width:0.25;stroke-linecap:butt;stroke-linejoin:miter;stroke-miterlimit:10;stroke-dasharray:none;stroke-opacity:1"
           d="M 27,-33 H 0 m 194.906,0 h 27 M 27,-273.945 H 0 m 194.906,0 h 27 M 33,-27 V 0 m 0,-279.945 v -27 M 188.906,-27 V 0 m 0,-279.945 v -27" /></g><g
         style="fill:#534a6d;fill-opacity:1"
         id="g897"><path
           id="path899"
           style="fill:#534a6d;fill-opacity:1;fill-rule:nonzero;stroke:#ffd9d8;stroke-width:4.8;stroke-linecap:butt;stroke-linejoin:miter;stroke-miterlimit:4;stroke-dasharray:none;stroke-opacity:1"
           d="m 147.051,126.598 c 0,19.519 -15.821,35.343 -35.34,35.343 -19.52,0 -35.344,-15.824 -35.344,-35.343 0,-19.516 15.824,-35.34 35.344,-35.34 19.519,0 35.34,15.824 35.34,35.34" /></g><path
         id="path901"
         style="fill:#ffd9d8;fill-opacity:1;fill-rule:nonzero;stroke:none"
         d="m 123.766,112.566 c 3.461,0 6.203,1.028 8.222,3.086 2.059,2.02 3.086,5.071 3.086,9.149 v 15.832 h -8.019 v -14.598 c 0,-2.195 -0.465,-3.82 -1.387,-4.887 -0.891,-1.093 -2.176,-1.644 -3.856,-1.644 -1.886,0 -3.374,0.617 -4.472,1.851 -1.098,1.2 -1.645,3 -1.645,5.399 v 13.879 h -8.019 v -14.598 c 0,-4.351 -1.75,-6.531 -5.246,-6.531 -1.848,0 -3.321,0.617 -4.418,1.851 -1.098,1.2 -1.645,3 -1.645,5.399 v 13.879 h -8.019 v -27.656 h 7.656 v 3.187 c 1.031,-1.164 2.281,-2.059 3.754,-2.676 1.508,-0.617 3.152,-0.922 4.933,-0.922 1.957,0 3.719,0.395 5.297,1.184 1.578,0.754 2.844,1.867 3.805,3.34 1.129,-1.438 2.555,-2.551 4.266,-3.34 1.75,-0.789 3.652,-1.184 5.707,-1.184" /></g></g></svg>
